<svg xmlns="http://www.w3.org/2000/svg" width="59.509" height="55.574" viewBox="0 0 59.509 55.574">
  <g id="Group_1196" data-name="Group 1196" transform="translate(-3127.856 -4288.732)">
    <path id="Path_6163" data-name="Path 6163" d="M3128.75,4304.974l14.066-11.425,17.8-4.176,16.264,7.8,9.751,18.354-7.863,18.56-30.441,9.509-17.524-15.837Z" fill="none" stroke="#595757" stroke-linecap="round" stroke-linejoin="round" stroke-width="1.28"/>
    <path id="Path_6164" data-name="Path 6164" d="M3128.75,4304.974l22.218,16.119,35.666-5.566" fill="none" stroke="#595757" stroke-linecap="round" stroke-linejoin="round" stroke-width="1.28"/>
    <line id="Line_216" data-name="Line 216" y1="22.504" x2="2.637" transform="translate(3148.331 4321.093)" fill="none" stroke="#595757" stroke-linecap="round" stroke-linejoin="round" stroke-width="1.28"/>
    <line id="Line_217" data-name="Line 217" x2="28.741" y2="4.991" transform="translate(3150.03 4329.096)" fill="none" stroke="#595757" stroke-linecap="round" stroke-linejoin="round" stroke-width="1.28"/>
    <path id="Path_6165" data-name="Path 6165" d="M3156.391,4317.449l25.39-4.416-1.2-2.244a37.3,37.3,0,0,0-17.331-16.312h0S3171.84,4308.784,3156.391,4317.449Z" fill="#ded7d3"/>
    <g id="Group_1195" data-name="Group 1195">
      <path id="Path_6166" data-name="Path 6166" d="M3142,4298.979l-7.476,5.994,16.293,11.16C3151.251,4312.791,3151,4305.182,3142,4298.979Z" fill="#ded7d3"/>
      <path id="Path_6167" data-name="Path 6167" d="M3160.421,4293.671,3144.1,4297.3s11.71,9.471,8.642,20.151C3170.451,4307.172,3160.421,4293.671,3160.421,4293.671Z" fill="#ded7d3"/>
    </g>
  </g>
</svg>
