<svg xmlns="http://www.w3.org/2000/svg" width="65.771" height="57.869" viewBox="0 0 65.771 57.869">
  <g id="Group_1193" data-name="Group 1193" transform="translate(-3290.541 -4287.54)">
    <path id="Path_6159" data-name="Path 6159" d="M3298.217,4315.555a14.033,14.033,0,0,1,0-19.843c.007,0,.162-.163.168-.168a14.034,14.034,0,0,1,19.828.016l2.648,2.648a3.249,3.249,0,0,0,4.6,0l2.648-2.648a14.036,14.036,0,0,1,19.846,0,14.1,14.1,0,0,1,.15,20L3323.16,4340.5Z" fill="#ded7d3"/>
    <path id="Path_6160" data-name="Path 6160" d="M3333.364,4328.494s-4.7,5.891-12.589,1.858c-10.769-5.506-9.08-23.332-9.08-23.332,7.892,5.251,8.327,3.608,16.538,5.251,10.1,2.02,6.949,13.342,6.949,13.342" fill="#fff" stroke="#595757" stroke-linecap="round" stroke-linejoin="round" stroke-width="1.28"/>
    <path id="Path_6161" data-name="Path 6161" d="M3353.876,4297.752a17.506,17.506,0,0,1-3.3,20.047l-7.613,7.614-19.357,19.356-3.885-3.521L3296.27,4317.8a17.481,17.481,0,0,1,1.329-25.859,16.978,16.978,0,0,1,13.215-3.561,18.911,18.911,0,0,1,10.7,5.343l1.912,1.775,1.912-1.775a18.911,18.911,0,0,1,10.713-5.345,17.267,17.267,0,0,1,10.413,1.725" fill="none" stroke="#595757" stroke-linecap="round" stroke-linejoin="round" stroke-width="1.28"/>
    <path id="Path_6162" data-name="Path 6162" d="M3319.872,4317.757s15.576,6.2,15.169,15.713" fill="none" stroke="#595757" stroke-linecap="round" stroke-linejoin="round" stroke-width="1.28"/>
  </g>
</svg>
