<svg xmlns="http://www.w3.org/2000/svg" width="1074.284" height="422.679" viewBox="0 0 1074.284 422.679">
  <g id="Group_1536" data-name="Group 1536" transform="translate(-505.12 -2567.345)">
    <rect id="Rectangle_3266" data-name="Rectangle 3266" width="962.026" height="422.679" transform="translate(538.12 2567.345)" fill="none"/>
    <g id="Group_1733" data-name="Group 1733" transform="translate(4.3 -1608.991)">
      <path id="Path_8158" data-name="Path 8158" d="M1240.971,4417.058H1346.28l-7.977-8.637" fill="none" stroke="#5f7563" stroke-miterlimit="10" stroke-width="1"/>
      <path id="Path_8159" data-name="Path 8159" d="M737.86,4417.058H843.168l-7.977-8.637" fill="none" stroke="#5f7563" stroke-miterlimit="10" stroke-width="1"/>
      <g id="Group_1734" data-name="Group 1734">
        <path id="Path_8160" data-name="Path 8160" d="M1419.382,4434.874c-9.158-6.922-15.148-17.273-17.687-28.379" fill="none" stroke="#5f7563" stroke-linecap="round" stroke-linejoin="round" stroke-width="2.598"/>
        <path id="Path_8161" data-name="Path 8161" d="M1463.4,4441.807a44.842,44.842,0,0,1-29.343-2.021" fill="none" stroke="#5f7563" stroke-linecap="round" stroke-linejoin="round" stroke-width="2.598"/>
        <path id="Path_8162" data-name="Path 8162" d="M1495.872,4410.937c-3.38,10.944-11.458,19.833-21.426,25.268" fill="none" stroke="#5f7563" stroke-linecap="round" stroke-linejoin="round" stroke-width="2.598"/>
        <path id="Path_8163" data-name="Path 8163" d="M1483.79,4364.523a47.372,47.372,0,0,1,14.721,34.4" fill="none" stroke="#5f7563" stroke-linecap="round" stroke-linejoin="round" stroke-width="2.598"/>
        <path id="Path_8164" data-name="Path 8164" d="M1435.885,4348.464a48.083,48.083,0,0,1,29.4.132" fill="none" stroke="#5f7563" stroke-linecap="round" stroke-linejoin="round" stroke-width="2.598"/>
        <path id="Path_8165" data-name="Path 8165" d="M1405.9,4391.057a41.561,41.561,0,0,1,15.42-28.019" fill="none" stroke="#5f7563" stroke-linecap="round" stroke-linejoin="round" stroke-width="2.598"/>
        <path id="Path_8166" data-name="Path 8166" d="M1383.718,4423.229c8.528-5.409,20.156,13.965,11.37,18.946C1386.56,4447.583,1374.933,4428.209,1383.718,4423.229Z" fill="none" stroke="#5f7563" stroke-linecap="round" stroke-linejoin="round" stroke-width="2.598"/>
        <path id="Path_8167" data-name="Path 8167" d="M1444.585,4471.345c-.42-10.09,22.172-10.472,22.092-.373C1467.1,4481.061,1444.505,4481.444,1444.585,4471.345Z" fill="none" stroke="#5f7563" stroke-linecap="round" stroke-linejoin="round" stroke-width="2.598"/>
        <path id="Path_8168" data-name="Path 8168" d="M1505.042,4439.448c-8.948-4.681,2.016-24.438,10.722-19.319C1524.712,4424.81,1513.747,4444.567,1505.042,4439.448Z" fill="none" stroke="#5f7563" stroke-linecap="round" stroke-linejoin="round" stroke-width="2.598"/>
        <path id="Path_8169" data-name="Path 8169" d="M1523.636,4373.343c-8.528,5.408-20.156-13.966-11.37-18.946C1520.794,4348.989,1532.421,4368.363,1523.636,4373.343Z" fill="none" stroke="#5f7563" stroke-linecap="round" stroke-linejoin="round" stroke-width="2.598"/>
        <path id="Path_8170" data-name="Path 8170" d="M1462.574,4325.252c.42,10.09-22.172,10.473-22.092.373C1440.062,4315.536,1462.654,4315.154,1462.574,4325.252Z" fill="none" stroke="#5f7563" stroke-linecap="round" stroke-linejoin="round" stroke-width="2.598"/>
        <path id="Path_8171" data-name="Path 8171" d="M1394.851,4351.985c8.948,4.682-2.016,24.438-10.723,19.32C1375.181,4366.624,1386.146,4346.867,1394.851,4351.985Z" fill="none" stroke="#5f7563" stroke-linecap="round" stroke-linejoin="round" stroke-width="2.598"/>
        <line id="Line_328" data-name="Line 328" y1="6.837" x2="11.392" transform="translate(1396.086 4421.854)" fill="none" stroke="#5f7563" stroke-linecap="round" stroke-linejoin="round" stroke-width="2.598"/>
        <line id="Line_329" data-name="Line 329" x1="0.225" y1="13.284" transform="translate(1455.274 4450.081)" fill="none" stroke="#5f7563" stroke-linecap="round" stroke-linejoin="round" stroke-width="2.598"/>
        <line id="Line_330" data-name="Line 330" x1="11.617" y1="6.447" transform="translate(1491.971 4419.559)" fill="none" stroke="#5f7563" stroke-linecap="round" stroke-linejoin="round" stroke-width="2.598"/>
        <line id="Line_331" data-name="Line 331" x1="11.392" y2="6.837" transform="translate(1499.876 4367.881)" fill="none" stroke="#5f7563" stroke-linecap="round" stroke-linejoin="round" stroke-width="2.598"/>
        <line id="Line_332" data-name="Line 332" x2="0.215" y2="12.712" transform="translate(1450.702 4333.179)" fill="none" stroke="#5f7563" stroke-linecap="round" stroke-linejoin="round" stroke-width="2.598"/>
        <line id="Line_333" data-name="Line 333" x2="11.617" y2="6.447" transform="translate(1396.305 4365.428)" fill="none" stroke="#5f7563" stroke-linecap="round" stroke-linejoin="round" stroke-width="2.598"/>
        <g id="Group_1733-2" data-name="Group 1733">
          <path id="Path_8172" data-name="Path 8172" d="M1473.533,4386.412a24.624,24.624,0,0,0,7.828,8.692,6.833,6.833,0,0,0,4.3,1.55c7.613-.619.945-18.824-.465-22.254-1.524-3.7-5.245-6.7-8.928-3.59C1470.975,4375.276,1470.841,4381.149,1473.533,4386.412Z" fill="#a6b0a4"/>
          <path id="Path_8173" data-name="Path 8173" d="M1421.267,4406.739a17.1,17.1,0,0,0-7.8-2.156,4.763,4.763,0,0,0-3.09.687c-4.227,3.172,6.424,11.283,8.521,12.754,2.264,1.588,5.553,1.954,6.556-1.213C1426.892,4412.262,1424.794,4408.8,1421.267,4406.739Z" fill="#a6b0a4"/>
          <path id="Path_8174" data-name="Path 8174" d="M1457.189,4394.751c0,.046.007.091.012.146.614,6.575,15.607,4.472,13.974-2.307-1.161-4.818-6.587-5.291-10.549-3.277A6.021,6.021,0,0,0,1457.189,4394.751Z" fill="#a6b0a4"/>
          <path id="Path_8175" data-name="Path 8175" d="M1488.726,4409.6c.012-2.368-1.167-4.377-4.095-5.653-6.371-2.775-20.863-1.169-25.3,4.58-5.046,6.536-1.355,26.052,9.682,23.113C1474.529,4430.169,1488.685,4417.752,1488.726,4409.6Z" fill="#a6b0a4"/>
          <path id="Path_8176" data-name="Path 8176" d="M1442.3,4394.559a7.192,7.192,0,0,0,7.328.466c4-1.719,12.579-8.871,9.479-14.034-.016-.027-.018-.033-.031-.056l-.041-.039c-.2-.206-.412-.4-.624-.6-5.249-2.687-10.569-3.9-14.628-2.565C1436.569,4380.1,1437.107,4390.88,1442.3,4394.559Z" fill="#a6b0a4"/>
          <path id="Path_8177" data-name="Path 8177" d="M1411.287,4386.377a11.311,11.311,0,0,0,3.664,9.5c4.1,4.046,16.575,10.711,20.308,3.823.02-.037.026-.042.043-.072s.008-.038.018-.074c.1-.374.192-.751.279-1.13-.12-8.163-1.852-15.562-5.572-19.9C1423.416,4370.8,1412.256,4377.714,1411.287,4386.377Z" fill="#a6b0a4"/>
          <path id="Path_8178" data-name="Path 8178" d="M1429.284,4415.646a19.607,19.607,0,0,0,3.886,12.6c4.078,5.622,16.254,15.46,19.532,6.969.018-.045.023-.051.038-.087s.006-.048.014-.094c.085-.471.152-.948.22-1.426-3.486-11.213,2.944-25.794-.784-31.757C1445.566,4391.249,1429.852,4404.591,1429.284,4415.646Z" fill="#a6b0a4"/>
          <path id="Path_8179" data-name="Path 8179" d="M1431.933,4363.64a12.841,12.841,0,0,0-.567,3.842,5.075,5.075,0,0,0,2.916,4.626,12.89,12.89,0,0,0,3.73,1.214,66.506,66.506,0,0,0,16.94.73c10.734-.7,21.418-9.128,4.148-18.349a23.122,23.122,0,0,0-11.289-2.592C1438.689,4353.486,1433.528,4358.5,1431.933,4363.64Z" fill="#a6b0a4"/>
        </g>
      </g>
      <g id="Group_1743" data-name="Group 1743">
        <g id="Group_1735" data-name="Group 1735">
          <path id="Path_8180" data-name="Path 8180" d="M998.511,4407.135h52.87l-7.977-8.637" fill="none" stroke="#5f7563" stroke-miterlimit="10" stroke-width="6"/>
          <path id="Path_8181" data-name="Path 8181" d="M998.511,4413.739h52.87l-7.977,8.637" fill="none" stroke="#5f7563" stroke-miterlimit="10" stroke-width="6"/>
        </g>
        <g id="Group_1737" data-name="Group 1737">
          <g id="Group_1736" data-name="Group 1736">
            <path id="Path_8182" data-name="Path 8182" d="M1132.555,4479.8c-30.812,2.815-53.566-19.39-55.425-49.646" fill="none" stroke="#5f7563" stroke-linecap="round" stroke-linejoin="round" stroke-width="2.943"/>
            <path id="Path_8183" data-name="Path 8183" d="M1175.138,4452.441c-5.788,11.617-16.452,20.074-28.595,24.321" fill="none" stroke="#5f7563" stroke-linecap="round" stroke-linejoin="round" stroke-width="2.943"/>
            <path id="Path_8184" data-name="Path 8184" d="M1169.537,4397.127a53.68,53.68,0,0,1,10.146,41.165" fill="none" stroke="#5f7563" stroke-linecap="round" stroke-linejoin="round" stroke-width="2.943"/>
            <path id="Path_8185" data-name="Path 8185" d="M1121.645,4378.971a54.477,54.477,0,0,1,32.848,5.543" fill="none" stroke="#5f7563" stroke-linecap="round" stroke-linejoin="round" stroke-width="2.943"/>
            <path id="Path_8186" data-name="Path 8186" d="M1079.419,4414.173a47.088,47.088,0,0,1,22.385-28.5" fill="none" stroke="#5f7563" stroke-linecap="round" stroke-linejoin="round" stroke-width="2.943"/>
            <path id="Path_8187" data-name="Path 8187" d="M1053.958,4445.563c10.528-4.482,19.973,19.314,9.235,23.27C1052.666,4473.315,1043.221,4449.519,1053.958,4445.563Z" fill="none" stroke="#5f7563" stroke-linecap="round" stroke-linejoin="round" stroke-width="2.943"/>
            <path id="Path_8188" data-name="Path 8188" d="M1106.095,4509.372c1.382-11.359,26.713-7.641,24.77,3.637C1129.483,4524.367,1104.152,4520.648,1106.095,4509.372Z" fill="none" stroke="#5f7563" stroke-linecap="round" stroke-linejoin="round" stroke-width="2.943"/>
            <path id="Path_8189" data-name="Path 8189" d="M1180.158,4486c-9.146-6.877,6.74-26.954,15.535-19.633C1204.838,4473.247,1188.952,4493.325,1180.158,4486Z" fill="none" stroke="#5f7563" stroke-linecap="round" stroke-linejoin="round" stroke-width="2.943"/>
            <path id="Path_8190" data-name="Path 8190" d="M1212.47,4414.3c-10.528,4.482-19.973-19.315-9.235-23.271C1213.762,4386.549,1223.207,4410.346,1212.47,4414.3Z" fill="none" stroke="#5f7563" stroke-linecap="round" stroke-linejoin="round" stroke-width="2.943"/>
            <path id="Path_8191" data-name="Path 8191" d="M1152.081,4356.491c-1.383,11.359-26.714,7.641-24.771-3.637C1128.692,4341.5,1154.023,4345.215,1152.081,4356.491Z" fill="none" stroke="#5f7563" stroke-linecap="round" stroke-linejoin="round" stroke-width="2.943"/>
            <path id="Path_8192" data-name="Path 8192" d="M1072.394,4366.785c9.145,6.877-6.74,26.955-15.536,19.633C1047.713,4379.543,1063.6,4359.465,1072.394,4366.785Z" fill="none" stroke="#5f7563" stroke-linecap="round" stroke-linejoin="round" stroke-width="2.943"/>
            <line id="Line_334" data-name="Line 334" y1="5.554" x2="13.992" transform="translate(1066.784 4448.387)" fill="none" stroke="#5f7563" stroke-linecap="round" stroke-linejoin="round" stroke-width="2.943"/>
            <line id="Line_335" data-name="Line 335" y1="14.894" x2="2.187" transform="translate(1119.763 4487.558)" fill="none" stroke="#5f7563" stroke-linecap="round" stroke-linejoin="round" stroke-width="2.943"/>
            <line id="Line_336" data-name="Line 336" x1="11.806" y1="9.341" transform="translate(1169.193 4461.367)" fill="none" stroke="#5f7563" stroke-linecap="round" stroke-linejoin="round" stroke-width="2.943"/>
            <line id="Line_337" data-name="Line 337" x1="13.992" y2="5.554" transform="translate(1185.651 4405.924)" fill="none" stroke="#5f7563" stroke-linecap="round" stroke-linejoin="round" stroke-width="2.943"/>
            <line id="Line_338" data-name="Line 338" x1="2.187" y2="14.894" transform="translate(1136.226 4363.411)" fill="none" stroke="#5f7563" stroke-linecap="round" stroke-linejoin="round" stroke-width="2.943"/>
            <line id="Line_339" data-name="Line 339" x2="11.806" y2="9.341" transform="translate(1071.552 4382.082)" fill="none" stroke="#5f7563" stroke-linecap="round" stroke-linejoin="round" stroke-width="2.943"/>
          </g>
          <path id="Path_8193" data-name="Path 8193" d="M1141.068,4402.391s.179,16.734-3.792,26.468-13.622,44.032,3.2,42.405,31.952-28.6,31.132-42.063-10.527-30.805-20.687-32.6S1141.068,4402.391,1141.068,4402.391Z" fill="#a6b0a4"/>
          <path id="Path_8194" data-name="Path 8194" d="M1125.087,4464.694s.349-20.7,5.862-32.216,8.551-44.539-13.42-44.674-31.9,23.132-31.3,39.874,12.644,39.4,25.82,42.909S1125.087,4464.694,1125.087,4464.694Z" fill="#a6b0a4"/>
        </g>
        <g id="Group_1742" data-name="Group 1742">
          <g id="Group_1739" data-name="Group 1739">
            <g id="Group_1738" data-name="Group 1738">
              <path id="Path_8195" data-name="Path 8195" d="M894.826,4357.565c-5.706-46.223,56.8-75.409,88.36-39.883,52.758,60.508-50,127.876-84.506,55.49" fill="none" stroke="#5f7563" stroke-linecap="round" stroke-linejoin="round" stroke-width="2.943"/>
              <path id="Path_8196" data-name="Path 8196" d="M883.044,4396.054c8.045-8.071,25.653,10.371,17.217,18.034C892.216,4422.157,874.609,4403.716,883.044,4396.054Z" fill="none" stroke="#5f7563" stroke-linecap="round" stroke-linejoin="round" stroke-width="2.943"/>
              <path id="Path_8197" data-name="Path 8197" d="M951.678,4429.148c-2.966-11,21.808-17.031,24.227-5.894C978.871,4434.256,954.1,4440.284,951.678,4429.148Z" fill="none" stroke="#5f7563" stroke-linecap="round" stroke-linejoin="round" stroke-width="2.943"/>
              <path id="Path_8198" data-name="Path 8198" d="M1014.655,4386.255c-11.011-2.932-3.844-27.4,7.01-23.927C1032.676,4365.26,1025.509,4389.729,1014.655,4386.255Z" fill="none" stroke="#5f7563" stroke-linecap="round" stroke-linejoin="round" stroke-width="2.943"/>
              <path id="Path_8199" data-name="Path 8199" d="M1009,4310.269c-8.046,8.07-25.653-10.371-17.218-18.034C999.826,4284.166,1017.434,4302.607,1009,4310.269Z" fill="none" stroke="#5f7563" stroke-linecap="round" stroke-linejoin="round" stroke-width="2.943"/>
              <path id="Path_8200" data-name="Path 8200" d="M940.364,4277.175c2.966,11-21.808,17.031-24.226,5.894C913.172,4272.067,937.946,4266.039,940.364,4277.175Z" fill="none" stroke="#5f7563" stroke-linecap="round" stroke-linejoin="round" stroke-width="2.943"/>
              <path id="Path_8201" data-name="Path 8201" d="M877.387,4320.067c11.011,2.933,3.844,27.4-7.01,23.928C859.366,4341.063,866.534,4316.594,877.387,4320.067Z" fill="none" stroke="#5f7563" stroke-linecap="round" stroke-linejoin="round" stroke-width="2.943"/>
              <line id="Line_340" data-name="Line 340" y1="10.353" x2="10.843" transform="translate(898.014 4388.644)" fill="none" stroke="#5f7563" stroke-linecap="round" stroke-linejoin="round" stroke-width="2.943"/>
              <line id="Line_341" data-name="Line 341" x1="3.544" y1="14.567" transform="translate(958.168 4403.087)" fill="none" stroke="#5f7563" stroke-linecap="round" stroke-linejoin="round" stroke-width="2.943"/>
              <line id="Line_342" data-name="Line 342" x1="14.388" y1="4.214" transform="translate(995.332 4367.605)" fill="none" stroke="#5f7563" stroke-linecap="round" stroke-linejoin="round" stroke-width="2.943"/>
              <line id="Line_343" data-name="Line 343" x1="10.843" y2="10.353" transform="translate(983.185 4307.326)" fill="none" stroke="#5f7563" stroke-linecap="round" stroke-linejoin="round" stroke-width="2.943"/>
              <line id="Line_344" data-name="Line 344" x2="3.544" y2="14.567" transform="translate(930.33 4288.668)" fill="none" stroke="#5f7563" stroke-linecap="round" stroke-linejoin="round" stroke-width="2.943"/>
              <line id="Line_345" data-name="Line 345" x2="14.388" y2="4.214" transform="translate(882.323 4334.503)" fill="none" stroke="#5f7563" stroke-linecap="round" stroke-linejoin="round" stroke-width="2.943"/>
            </g>
          </g>
          <path id="Path_8202" data-name="Path 8202" d="M871.234,4295.43l5.276-5.948a.548.548,0,0,1,.847.031l5.372,7.064a.548.548,0,0,0,.846.033l3.029-3.4a.548.548,0,0,1,.869.067l9.163,14.126-7.336-5.528a.548.548,0,0,0-.683.019l-4.041,3.406a.551.551,0,0,1-.693.012l-10.728-8.433" fill="#e7e3e0"/>
          <path id="Path_8203" data-name="Path 8203" d="M904.2,4441.815l-4.964-6.156a.548.548,0,0,1,.2-.844l8.9-4a.547.547,0,0,0,.154-.9l-3.789-3.619a.549.549,0,0,1,.161-.9l15.351-6.651-6.667,6.317a.548.548,0,0,0-.095.677l2.689,4.55a.55.55,0,0,1-.1.685l-10.094,9.183" fill="#e7e3e0"/>
          <path id="Path_8204" data-name="Path 8204" d="M971.915,4257.288l8.989,4.595a.548.548,0,0,1,.159.854l-8.407,9.415a.548.548,0,0,0,.225.881l6.579,2.348a.549.549,0,0,1,.22.888l-12.222,13.322a.548.548,0,0,1-.911-.58l3.261-7.873a.548.548,0,0,0-.189-.657l-5.586-3.966a.548.548,0,0,1-.185-.667l6.913-15.773" fill="#e7e3e0"/>
          <g id="Group_1741" data-name="Group 1741">
            <path id="Path_8205" data-name="Path 8205" d="M905.268,4338.2c-18.848,54.224,61.317,83.629,82,30.072C1006.116,4314.047,925.951,4284.642,905.268,4338.2Zm55.175,25.172c-11.026-4.363-25.391,9.638-24.821,2.98a27.338,27.338,0,0,0-4.855-21.823,1.9,1.9,0,0,1,1.9-2.985c11,4.348,25.37-9.652,24.8-3C953.1,4349.574,967.1,4363.938,960.443,4363.369Z" fill="#a6b0a4"/>
            <g id="Group_1740" data-name="Group 1740">
              <path id="Path_8206" data-name="Path 8206" d="M894.826,4357.565c-5.706-46.223,56.8-75.409,88.36-39.883,52.758,60.508-50,127.876-84.506,55.49" fill="none" stroke="#5f7563" stroke-linecap="round" stroke-linejoin="round" stroke-width="2.943"/>
              <path id="Path_8207" data-name="Path 8207" d="M883.044,4396.054c8.045-8.071,25.653,10.371,17.217,18.034C892.216,4422.157,874.609,4403.716,883.044,4396.054Z" fill="none" stroke="#5f7563" stroke-linecap="round" stroke-linejoin="round" stroke-width="2.943"/>
              <path id="Path_8208" data-name="Path 8208" d="M951.678,4429.148c-2.966-11,21.808-17.031,24.227-5.894C978.871,4434.256,954.1,4440.284,951.678,4429.148Z" fill="none" stroke="#5f7563" stroke-linecap="round" stroke-linejoin="round" stroke-width="2.943"/>
              <path id="Path_8209" data-name="Path 8209" d="M1014.655,4386.255c-11.011-2.932-3.844-27.4,7.01-23.927C1032.676,4365.26,1025.509,4389.729,1014.655,4386.255Z" fill="none" stroke="#5f7563" stroke-linecap="round" stroke-linejoin="round" stroke-width="2.943"/>
              <path id="Path_8210" data-name="Path 8210" d="M1009,4310.269c-8.046,8.07-25.653-10.371-17.218-18.034C999.826,4284.166,1017.434,4302.607,1009,4310.269Z" fill="none" stroke="#5f7563" stroke-linecap="round" stroke-linejoin="round" stroke-width="2.943"/>
              <path id="Path_8211" data-name="Path 8211" d="M940.364,4277.175c2.966,11-21.808,17.031-24.226,5.894C913.172,4272.067,937.946,4266.039,940.364,4277.175Z" fill="none" stroke="#5f7563" stroke-linecap="round" stroke-linejoin="round" stroke-width="2.943"/>
              <path id="Path_8212" data-name="Path 8212" d="M877.387,4320.067c11.011,2.933,3.844,27.4-7.01,23.928C859.366,4341.063,866.534,4316.594,877.387,4320.067Z" fill="none" stroke="#5f7563" stroke-linecap="round" stroke-linejoin="round" stroke-width="2.943"/>
              <line id="Line_346" data-name="Line 346" y1="10.353" x2="10.843" transform="translate(898.014 4388.644)" fill="none" stroke="#5f7563" stroke-linecap="round" stroke-linejoin="round" stroke-width="2.943"/>
              <line id="Line_347" data-name="Line 347" x1="3.544" y1="14.567" transform="translate(958.168 4403.087)" fill="none" stroke="#5f7563" stroke-linecap="round" stroke-linejoin="round" stroke-width="2.943"/>
              <line id="Line_348" data-name="Line 348" x1="14.388" y1="4.214" transform="translate(995.332 4367.605)" fill="none" stroke="#5f7563" stroke-linecap="round" stroke-linejoin="round" stroke-width="2.943"/>
              <line id="Line_349" data-name="Line 349" x1="10.843" y2="10.353" transform="translate(983.185 4307.326)" fill="none" stroke="#5f7563" stroke-linecap="round" stroke-linejoin="round" stroke-width="2.943"/>
              <line id="Line_350" data-name="Line 350" x2="3.544" y2="14.567" transform="translate(930.33 4288.668)" fill="none" stroke="#5f7563" stroke-linecap="round" stroke-linejoin="round" stroke-width="2.943"/>
              <line id="Line_351" data-name="Line 351" x2="14.388" y2="4.214" transform="translate(882.323 4334.503)" fill="none" stroke="#5f7563" stroke-linecap="round" stroke-linejoin="round" stroke-width="2.943"/>
            </g>
          </g>
          <path id="Path_8213" data-name="Path 8213" d="M871.234,4295.43l5.276-5.948a.548.548,0,0,1,.847.031l5.372,7.064a.548.548,0,0,0,.846.033l3.029-3.4a.548.548,0,0,1,.869.067l9.163,14.126-7.336-5.528a.548.548,0,0,0-.683.019l-4.041,3.406a.551.551,0,0,1-.693.012l-10.728-8.433" fill="#5f7563"/>
          <path id="Path_8214" data-name="Path 8214" d="M904.2,4441.815l-4.964-6.156a.548.548,0,0,1,.2-.844l8.9-4a.547.547,0,0,0,.154-.9l-3.789-3.619a.549.549,0,0,1,.161-.9l15.351-6.651-6.667,6.317a.548.548,0,0,0-.095.677l2.689,4.55a.55.55,0,0,1-.1.685l-10.094,9.183" fill="#5f7563"/>
          <path id="Path_8215" data-name="Path 8215" d="M1037.77,4324.926l2.505,9.834a.868.868,0,0,1-.847,1.082l-12.345-.086a.867.867,0,0,0-.812,1.189l2.37,5.947a.868.868,0,0,1-.824,1.189l-21.65-.441,11.254-3.845a.869.869,0,0,0,.583-.912l-.7-6.634a.867.867,0,0,1,.6-.917l16.886-5.389" fill="#5f7563"/>
          <path id="Path_8216" data-name="Path 8216" d="M971.915,4257.288l8.989,4.595a.548.548,0,0,1,.159.854l-8.407,9.415a.548.548,0,0,0,.225.881l6.579,2.348a.549.549,0,0,1,.22.888l-12.222,13.322a.548.548,0,0,1-.911-.58l3.261-7.873a.548.548,0,0,0-.189-.657l-5.586-3.966a.548.548,0,0,1-.185-.667l6.913-15.773" fill="#5f7563"/>
        </g>
      </g>
      <g id="Group_1779" data-name="Group 1779">
        <g id="Group_1761" data-name="Group 1761">
          <g id="Group_1744" data-name="Group 1744">
            <path id="Path_8217" data-name="Path 8217" d="M668.562,4399.848c-1.245,71.133-109.729,71.122-110.964,0C558.843,4328.714,667.327,4328.726,668.562,4399.848Z" fill="#a6b0a4"/>
          </g>
          <g id="Group_1747" data-name="Group 1747">
            <g id="Group_1745" data-name="Group 1745">
              <circle id="Ellipse_245" data-name="Ellipse 245" cx="18.827" cy="18.827" r="18.827" transform="translate(595.93 4379.977)" fill="#fff"/>
            </g>
            <g id="Group_1746" data-name="Group 1746">
              <path id="Path_8218" data-name="Path 8218" d="M628.724,4390.971a5.657,5.657,0,0,1-5.706.809,6.212,6.212,0,0,1-3.779-8.388,16.008,16.008,0,1,0,9.485,7.579Z" fill="#a6b0a4"/>
            </g>
          </g>
          <g id="Group_1756" data-name="Group 1756">
            <g id="Group_1748" data-name="Group 1748">
              <path id="Path_8219" data-name="Path 8219" d="M595.467,4401.448a.964.964,0,0,1-.338-.06.99.99,0,0,1-.647-.844c-.051-.592-.089-1.187-.089-1.792a20.122,20.122,0,0,1,2.19-9.15.935.935,0,0,1,.9-.543.989.989,0,0,1,.881.58c.861,1.892,1.84,3.854,2.907,5.829a.989.989,0,0,1-.234,1.229c-1.735,1.458-3.374,2.957-4.87,4.459A.991.991,0,0,1,595.467,4401.448Zm2.032-9a18,18,0,0,0-1.119,5.746c.889-.836,1.816-1.67,2.773-2.489C598.573,4394.608,598.019,4393.518,597.5,4392.445Z" fill="#585757"/>
            </g>
            <g id="Group_1749" data-name="Group 1749">
              <path id="Path_8220" data-name="Path 8220" d="M632.45,4430.207c-4.136,0-10.253-4.051-17.116-11.482a.989.989,0,0,1,.661-1.658,18.43,18.43,0,0,0,15.155-10.057.989.989,0,0,1,1.783.037c5.219,11.483,6.042,19.859,2.2,22.408A4.756,4.756,0,0,1,632.45,4430.207Zm-14.316-11.4c6.968,7.178,13.257,10.754,15.907,9s1.784-8.951-2.122-18.151A20.449,20.449,0,0,1,618.134,4418.8Z" fill="#585757"/>
            </g>
            <g id="Group_1750" data-name="Group 1750">
              <path id="Path_8221" data-name="Path 8221" d="M597.466,4391.038h-.02a.99.99,0,0,1-.881-.58c-5.218-11.482-6.042-19.86-2.2-22.41s11.244,1.465,19.8,10.733a.989.989,0,0,1-.661,1.658,18.434,18.434,0,0,0-15.157,10.056A.989.989,0,0,1,597.466,4391.038Zm-.36-21.784a2.913,2.913,0,0,0-1.648.445c-2.658,1.765-1.784,8.949,2.122,18.15a20.449,20.449,0,0,1,13.786-9.147C605.579,4372.743,600.264,4369.254,597.106,4369.254Z" fill="#585757"/>
            </g>
            <g id="Group_1751" data-name="Group 1751">
              <path id="Path_8222" data-name="Path 8222" d="M600.4,4396.929a.984.984,0,0,1-.87-.518c-1.09-2.016-2.089-4.018-2.969-5.953a.988.988,0,0,1,.018-.856,20.421,20.421,0,0,1,16.791-11.138l.255-.017a19.979,19.979,0,0,1,10.646,2.321.989.989,0,0,1-.093,1.791c-1.967.795-3.987,1.724-6.007,2.76a93.8,93.8,0,0,0-17.136,11.378A.985.985,0,0,1,600.4,4396.929Zm-1.837-6.853c.654,1.415,1.371,2.866,2.14,4.329,2.379-1.94,4.894-3.792,7.491-5.518a94.376,94.376,0,0,1,9.073-5.326c1.364-.7,2.732-1.357,4.083-1.954a17.828,17.828,0,0,0-7.584-1.187l-.264.019A18.441,18.441,0,0,0,598.567,4390.076Z" fill="#585757"/>
            </g>
            <g id="Group_1752" data-name="Group 1752">
              <path id="Path_8223" data-name="Path 8223" d="M593.158,4419.915c-3.042,0-5.232-.862-6.38-2.589-2.414-3.636.5-10.039,7.988-17.565a.989.989,0,0,1,1.687.611,18.3,18.3,0,0,0,9.7,14.619.99.99,0,0,1-.093,1.791C600.9,4418.868,596.511,4419.915,593.158,4419.915Zm1.61-17.3c-5.5,5.916-7.973,11.161-6.342,13.62s7.426,2.209,15.01-.561A20.239,20.239,0,0,1,594.768,4402.612Z" fill="#585757"/>
            </g>
            <g id="Group_1753" data-name="Group 1753">
              <path id="Path_8224" data-name="Path 8224" d="M634.031,4398.037a.967.967,0,0,1-.336-.06.986.986,0,0,1-.649-.843,18.3,18.3,0,0,0-9.7-14.619.99.99,0,0,1,.093-1.792c9.838-3.981,16.867-4.178,19.281-.543s-.5,10.037-7.988,17.565A1,1,0,0,1,634.031,4398.037Zm-7.968-16.2a20.237,20.237,0,0,1,8.668,13.059c5.5-5.918,7.972-11.163,6.341-13.62S633.645,4379.065,626.063,4381.835Z" fill="#585757"/>
            </g>
            <g id="Group_1754" data-name="Group 1754">
              <path id="Path_8225" data-name="Path 8225" d="M614.75,4419.109a20.356,20.356,0,0,1-20.268-18.564.991.991,0,0,1,.284-.784c1.538-1.544,3.222-3.085,5-4.579a.972.972,0,0,1,.821-.214.989.989,0,0,1,.684.5c1.595,2.944,3.363,5.885,5.259,8.74s3.93,5.64,6.015,8.237h0c1.405,1.751,2.831,3.412,4.24,4.938a.989.989,0,0,1-.661,1.659l-.228.015C615.516,4419.084,615.137,4419.109,614.75,4419.109ZM596.5,4400.828a18.373,18.373,0,0,0,17.38,16.281c-.961-1.092-1.923-2.238-2.874-3.423h0c-2.124-2.644-4.183-5.466-6.121-8.384-1.7-2.557-3.3-5.184-4.765-7.822C598.848,4398.582,597.634,4399.7,596.5,4400.828Z" fill="#585757"/>
            </g>
            <g id="Group_1755" data-name="Group 1755">
              <path id="Path_8226" data-name="Path 8226" d="M616.061,4419.044a.983.983,0,0,1-.727-.319c-1.44-1.56-2.9-3.255-4.329-5.039-2.124-2.644-4.183-5.466-6.121-8.384-1.929-2.9-3.729-5.895-5.35-8.891a.989.989,0,0,1,.234-1.229,95.2,95.2,0,0,1,17.5-11.621c2.071-1.065,4.147-2.02,6.169-2.838a.987.987,0,0,1,.835.045,20.272,20.272,0,0,1,10.742,16.192v0c.05.592.089,1.185.089,1.79a20.13,20.13,0,0,1-2.19,9.151,20.424,20.424,0,0,1-16.79,11.139C616.1,4419.044,616.082,4419.044,616.061,4419.044Zm-14.4-22.863c1.492,2.7,3.127,5.4,4.87,8.027,1.906,2.868,3.93,5.64,6.015,8.237,1.3,1.616,2.613,3.156,3.916,4.585a18.441,18.441,0,0,0,14.687-10.02,18.162,18.162,0,0,0,1.977-8.258c0-.547-.035-1.086-.081-1.62a18.3,18.3,0,0,0-9.3-14.4c-1.83.756-3.7,1.624-5.574,2.584a93.772,93.772,0,0,0-16.513,10.862Z" fill="#585757"/>
            </g>
          </g>
          <g id="Group_1757" data-name="Group 1757">
            <path id="Path_8227" data-name="Path 8227" d="M502.03,4419.483l-1.206-12.139a.841.841,0,0,1,.918-.921l13.553,1.3a.843.843,0,0,0,.918-.92l-.678-6.954a.841.841,0,0,1,.98-.911l25.458,4.388-13.867,2.508a.842.842,0,0,0-.691.789l-.371,8.1a.841.841,0,0,1-.708.792l-20.674,3.307" fill="#a6b0a4"/>
          </g>
          <g id="Group_1758" data-name="Group 1758">
            <path id="Path_8228" data-name="Path 8228" d="M583.67,4505.549l-8.5-5.1a.687.687,0,0,1-.126-1.081l8.753-8.552a.687.687,0,0,0-.206-1.122l-6.023-2.624a.688.688,0,0,1-.2-1.129l15.2-14.458-5.122,10.316a.686.686,0,0,0,.181.838l5.13,4.2a.689.689,0,0,1,.174.851l-7.92,15.168" fill="#a6b0a4"/>
          </g>
          <g id="Group_1759" data-name="Group 1759">
            <path id="Path_8229" data-name="Path 8229" d="M711.968,4427.318l-1.4,6.411a.561.561,0,0,1-.8.38l-7.113-3.621a.561.561,0,0,0-.813.453l-.35,4.124a.561.561,0,0,1-.82.449L688.283,4429l7.619,1.033a.561.561,0,0,0,.6-.359l1.517-4.037a.561.561,0,0,1,.612-.357l11.322,1.769" fill="#a6b0a4"/>
          </g>
          <g id="Group_1760" data-name="Group 1760">
            <path id="Path_8230" data-name="Path 8230" d="M657.335,4306.608l7.931,6.613a.561.561,0,0,1-.034.888l-10.513,7.5a.56.56,0,0,0,.025.93l6.034,3.828a.561.561,0,0,1,.019.935l-15.2,10.533a.561.561,0,0,1-.778-.784l5.031-7.119a.561.561,0,0,0-.04-.7l-4.678-5.218a.562.562,0,0,1-.033-.708l10.458-14.177" fill="#a6b0a4"/>
          </g>
        </g>
        <g id="Group_1764" data-name="Group 1764">
          <g id="Group_1763" data-name="Group 1763">
            <g id="Group_1762" data-name="Group 1762">
              <path id="Path_8231" data-name="Path 8231" d="M675.054,4399.848c-1.391,79.455-122.568,79.443-123.948,0C552.5,4320.392,673.674,4320.4,675.054,4399.848Z" fill="none" stroke="#5f7563" stroke-miterlimit="10" stroke-width="1.731" stroke-dasharray="32.031 32.031"/>
            </g>
          </g>
        </g>
        <g id="Group_1767" data-name="Group 1767">
          <g id="Group_1766" data-name="Group 1766">
            <g id="Group_1765" data-name="Group 1765">
              <path id="Path_8232" data-name="Path 8232" d="M681.692,4399.848c-1.54,87.966-135.7,87.953-137.224,0C546.008,4311.881,680.165,4311.9,681.692,4399.848Z" fill="none" stroke="#5f7563" stroke-miterlimit="10" stroke-width="1.917" stroke-dasharray="35.463 35.463"/>
            </g>
          </g>
        </g>
        <g id="Group_1770" data-name="Group 1770">
          <g id="Group_1769" data-name="Group 1769">
            <g id="Group_1768" data-name="Group 1768">
              <path id="Path_8233" data-name="Path 8233" d="M688.283,4399.848c-1.689,96.416-148.732,96.4-150.406,0C539.565,4303.431,686.609,4303.447,688.283,4399.848Z" fill="none" stroke="#5f7563" stroke-miterlimit="10" stroke-width="2.101" stroke-dasharray="38.87 38.87"/>
            </g>
          </g>
        </g>
        <g id="Group_1772" data-name="Group 1772">
          <circle id="Ellipse_246" data-name="Ellipse 246" cx="17.383" cy="17.383" r="17.383" transform="translate(677.202 4310.158)" fill="#a6b0a4"/>
          <g id="Group_1771" data-name="Group 1771">
            <path id="Path_8234" data-name="Path 8234" d="M692.049,4321.278c-.025,1.233-.025,2.49-.025,3.747v.532c0,1.232,0,2.477.025,3.722l1.063.108v.411h-4.181v-.411l1.015-.108c.036-1.2.036-2.453.036-3.843h-3.251c0,1.365,0,2.622.037,3.855l1,.1v.411h-4.182v-.411l1.076-.108c.012-1.221.012-2.466.012-3.722v-.532c0-1.257,0-2.5-.012-3.734l-1.076-.109v-.411h4.182v.411l-1,.1c-.037,1.209-.037,2.454-.037,3.7h3.251c0-1.233,0-2.478-.036-3.7l-1.015-.1v-.411h4.181v.411Z" fill="#fff"/>
            <path id="Path_8235" data-name="Path 8235" d="M697.619,4332.957v.867h-3.531v-.634c.388-.423.8-.825,1.141-1.185.8-.824,1.122-1.3,1.122-2.037,0-.662-.331-1.078-.874-1.078a1.2,1.2,0,0,0-.268.027l-.155.7c-.078.479-.311.592-.53.592a.5.5,0,0,1-.458-.3c.064-.818.861-1.262,1.8-1.262,1.114,0,1.629.585,1.629,1.382,0,.733-.6,1.374-1.946,2.256-.24.169-.55.415-.874.669Z" fill="#fff"/>
            <path id="Path_8236" data-name="Path 8236" d="M707.08,4325.279c0,3.141-1.994,4.761-4.278,4.761s-4.29-1.607-4.29-4.761c0-3.118,2.03-4.75,4.29-4.75S707.08,4322.148,707.08,4325.279Zm-4.278,4.3c1.474,0,2.151-1.813,2.151-4.3,0-2.466-.677-4.291-2.151-4.291s-2.152,1.825-2.152,4.291C700.65,4327.768,701.315,4329.581,702.8,4329.581Z" fill="#fff"/>
          </g>
        </g>
        <g id="Group_1774" data-name="Group 1774">
          <circle id="Ellipse_247" data-name="Ellipse 247" cx="13.697" cy="13.697" r="13.697" transform="translate(510.631 4438.585)" fill="#a6b0a4"/>
          <g id="Group_1773" data-name="Group 1773">
            <path id="Path_8237" data-name="Path 8237" d="M522.329,4447.348c-.019.972-.019,1.962-.019,2.952v.419c0,.971,0,1.952.019,2.933l.838.085v.324h-3.295v-.324l.8-.085c.029-.943.029-1.933.029-3.028H518.14c0,1.076,0,2.066.028,3.037l.79.076v.324h-3.294v-.324l.848-.085c.009-.962.009-1.943.009-2.933v-.419c0-.99,0-1.971-.009-2.942l-.848-.086v-.323h3.294v.323l-.79.076c-.028.952-.028,1.933-.028,2.914H520.7c0-.971,0-1.952-.029-2.914l-.8-.076v-.323h3.295v.323Z" fill="#fff"/>
            <path id="Path_8238" data-name="Path 8238" d="M526.719,4456.55v.683h-2.782v-.5c.3-.333.626-.65.9-.933.633-.65.883-1.028.883-1.6,0-.522-.261-.85-.689-.85a.983.983,0,0,0-.211.022l-.122.55c-.061.378-.244.467-.417.467a.387.387,0,0,1-.36-.234c.05-.644.677-.994,1.422-.994.877,0,1.282.461,1.282,1.089,0,.577-.472,1.083-1.532,1.777-.19.133-.434.328-.69.528Z" fill="#fff"/>
            <path id="Path_8239" data-name="Path 8239" d="M534.173,4450.5c0,2.476-1.571,3.751-3.37,3.751s-3.381-1.266-3.381-3.751a3.4,3.4,0,0,1,3.381-3.742C532.592,4446.758,534.173,4448.034,534.173,4450.5Zm-3.37,3.39c1.161,0,1.694-1.429,1.694-3.39,0-1.942-.533-3.38-1.694-3.38s-1.7,1.438-1.7,3.38C529.107,4452.461,529.631,4453.89,530.8,4453.89Z" fill="#fff"/>
          </g>
        </g>
        <g id="Group_1776" data-name="Group 1776">
          <circle id="Ellipse_248" data-name="Ellipse 248" cx="12.125" cy="12.125" r="12.125" transform="translate(520.219 4317.905)" fill="#a6b0a4"/>
          <g id="Group_1775" data-name="Group 1775">
            <path id="Path_8240" data-name="Path 8240" d="M530.581,4325.655c-.018.861-.018,1.739-.018,2.616v.371c0,.861,0,1.73.018,2.6l.742.076v.287H528.4v-.287l.709-.076c.026-.835.026-1.713.026-2.683h-2.27c0,.953,0,1.831.026,2.692l.7.067v.287h-2.92v-.287l.751-.076c.009-.852.009-1.721.009-2.6v-.371c0-.877,0-1.747-.009-2.607l-.751-.077v-.286h2.92v.286l-.7.068c-.026.844-.026,1.713-.026,2.582h2.27c0-.861,0-1.73-.026-2.582l-.709-.068v-.286h2.92v.286Z" fill="#fff"/>
            <path id="Path_8241" data-name="Path 8241" d="M534.457,4333.808v.6H532v-.442c.271-.3.555-.575.8-.825.56-.575.781-.91.781-1.42,0-.462-.231-.752-.609-.752a.815.815,0,0,0-.187.02l-.108.486c-.054.334-.216.413-.368.413a.345.345,0,0,1-.32-.207c.044-.57.6-.879,1.258-.879.777,0,1.135.407,1.135.963,0,.511-.418.958-1.356,1.572-.167.118-.383.29-.61.467Z" fill="#fff"/>
            <path id="Path_8242" data-name="Path 8242" d="M541.065,4328.448a3.007,3.007,0,1,1-2.987-3.316A2.992,2.992,0,0,1,541.065,4328.448Zm-2.987,3c1.029,0,1.5-1.265,1.5-3,0-1.721-.473-3-1.5-3s-1.5,1.274-1.5,3C536.576,4330.187,537.04,4331.452,538.078,4331.452Z" fill="#fff"/>
          </g>
        </g>
        <g id="Group_1778" data-name="Group 1778">
          <circle id="Ellipse_249" data-name="Ellipse 249" cx="17.026" cy="17.026" r="17.026" transform="translate(669.567 4455.95)" fill="#a6b0a4"/>
          <g id="Group_1777" data-name="Group 1777">
            <path id="Path_8243" data-name="Path 8243" d="M684.112,4466.838c-.024,1.207-.024,2.439-.024,3.67v.521c0,1.208,0,2.428.024,3.647l1.042.107v.4h-4.1v-.4l.995-.107c.035-1.172.035-2.4.035-3.765H678.9c0,1.338,0,2.569.036,3.777l.982.1v.4h-4.1v-.4l1.054-.107c.012-1.2.012-2.415.012-3.647v-.521c0-1.231,0-2.451-.012-3.658l-1.054-.107v-.4h4.1v.4l-.982.095c-.036,1.184-.036,2.4-.036,3.623h3.185c0-1.208,0-2.427-.035-3.623l-.995-.095v-.4h4.1v.4Z" fill="#fff"/>
            <path id="Path_8244" data-name="Path 8244" d="M689.561,4478.28v.848H686.1v-.62c.379-.414.78-.807,1.118-1.159.786-.807,1.1-1.276,1.1-1.993,0-.648-.324-1.056-.855-1.056a1.2,1.2,0,0,0-.262.028l-.152.683c-.075.469-.3.579-.517.579a.484.484,0,0,1-.449-.289c.062-.8.842-1.235,1.766-1.235,1.089,0,1.593.573,1.593,1.352,0,.717-.586,1.345-1.9,2.207-.234.166-.538.407-.855.655Z" fill="#fff"/>
            <path id="Path_8245" data-name="Path 8245" d="M698.834,4470.757c0,3.078-1.954,4.665-4.191,4.665s-4.205-1.574-4.205-4.665c0-3.055,1.99-4.653,4.205-4.653S698.834,4467.69,698.834,4470.757Zm-4.191,4.215c1.444,0,2.107-1.776,2.107-4.215,0-2.416-.663-4.2-2.107-4.2s-2.108,1.787-2.108,4.2C692.535,4473.2,693.186,4474.972,694.643,4474.972Z" fill="#fff"/>
          </g>
        </g>
      </g>
      <g id="Group_1815" data-name="Group 1815">
        <g id="Group_1797" data-name="Group 1797">
          <g id="Group_1780" data-name="Group 1780">
            <path id="Path_8246" data-name="Path 8246" d="M1411.122,4293.8c-.579,33.034-50.959,33.029-51.533,0C1360.168,4260.763,1410.548,4260.768,1411.122,4293.8Z" fill="#a6b0a4"/>
          </g>
          <g id="Group_1783" data-name="Group 1783">
            <g id="Group_1781" data-name="Group 1781">
              <circle id="Ellipse_250" data-name="Ellipse 250" cx="8.743" cy="8.743" r="8.743" transform="translate(1377.391 4284.57)" fill="#fff"/>
            </g>
            <g id="Group_1782" data-name="Group 1782">
              <path id="Path_8247" data-name="Path 8247" d="M1392.62,4289.676a2.625,2.625,0,0,1-2.649.375,2.884,2.884,0,0,1-1.755-3.9,7.436,7.436,0,1,0,4.4,3.52Z" fill="#a6b0a4"/>
            </g>
          </g>
          <g id="Group_1792" data-name="Group 1792">
            <g id="Group_1784" data-name="Group 1784">
              <path id="Path_8248" data-name="Path 8248" d="M1377.176,4294.541a.447.447,0,0,1-.157-.028.459.459,0,0,1-.3-.392c-.023-.275-.041-.551-.041-.832a9.346,9.346,0,0,1,1.017-4.249.433.433,0,0,1,.419-.252.456.456,0,0,1,.409.269c.4.879.855,1.79,1.35,2.707a.459.459,0,0,1-.108.571c-.806.677-1.568,1.373-2.262,2.07A.461.461,0,0,1,1377.176,4294.541Zm.943-4.181a8.376,8.376,0,0,0-.519,2.669c.412-.389.843-.776,1.288-1.156C1378.618,4291.365,1378.361,4290.858,1378.119,4290.36Z" fill="#585757"/>
            </g>
            <g id="Group_1785" data-name="Group 1785">
              <path id="Path_8249" data-name="Path 8249" d="M1394.351,4307.9c-1.921,0-4.762-1.881-7.949-5.333a.459.459,0,0,1,.307-.77,8.559,8.559,0,0,0,7.038-4.67.459.459,0,0,1,.828.017c2.424,5.333,2.806,9.223,1.023,10.407A2.21,2.21,0,0,1,1394.351,4307.9Zm-6.648-5.3c3.235,3.334,6.156,4.994,7.387,4.181s.828-4.157-.986-8.429A9.494,9.494,0,0,1,1387.7,4302.6Z" fill="#585757"/>
            </g>
            <g id="Group_1786" data-name="Group 1786">
              <path id="Path_8250" data-name="Path 8250" d="M1378.1,4289.707h-.009a.459.459,0,0,1-.409-.27c-2.424-5.332-2.806-9.223-1.023-10.407s5.222.68,9.2,4.984a.459.459,0,0,1-.307.77,8.561,8.561,0,0,0-7.039,4.67A.46.46,0,0,1,1378.1,4289.707Zm-.167-10.117a1.355,1.355,0,0,0-.766.207c-1.234.819-.828,4.155.986,8.429a9.5,9.5,0,0,1,6.4-4.249C1381.872,4281.21,1379.4,4279.59,1377.937,4279.59Z" fill="#585757"/>
            </g>
            <g id="Group_1787" data-name="Group 1787">
              <path id="Path_8251" data-name="Path 8251" d="M1379.468,4292.442a.434.434,0,0,1-.086-.008.461.461,0,0,1-.318-.232c-.506-.936-.97-1.866-1.378-2.765a.457.457,0,0,1,.008-.4,9.484,9.484,0,0,1,7.8-5.173l.118-.008a9.287,9.287,0,0,1,4.944,1.078.46.46,0,0,1-.043.832c-.914.369-1.852.8-2.789,1.282a43.4,43.4,0,0,0-7.958,5.284A.463.463,0,0,1,1379.468,4292.442Zm-.852-3.182c.3.657.636,1.331.993,2.01,1.1-.9,2.273-1.761,3.479-2.562a43.62,43.62,0,0,1,4.213-2.474c.634-.326,1.27-.63,1.9-.907a8.283,8.283,0,0,0-3.522-.552l-.123.009A8.562,8.562,0,0,0,1378.616,4289.26Z" fill="#585757"/>
            </g>
            <g id="Group_1788" data-name="Group 1788">
              <path id="Path_8252" data-name="Path 8252" d="M1376.1,4303.117a3.337,3.337,0,0,1-2.963-1.2c-1.121-1.689.232-4.662,3.71-8.158a.46.46,0,0,1,.784.284,8.5,8.5,0,0,0,4.5,6.789.46.46,0,0,1-.043.832A16.917,16.917,0,0,1,1376.1,4303.117Zm.748-8.036c-2.553,2.748-3.7,5.184-2.945,6.326s3.449,1.025,6.971-.261A9.4,9.4,0,0,1,1376.851,4295.081Z" fill="#585757"/>
            </g>
            <g id="Group_1789" data-name="Group 1789">
              <path id="Path_8253" data-name="Path 8253" d="M1395.085,4292.957a.438.438,0,0,1-.156-.028.46.46,0,0,1-.3-.391,8.5,8.5,0,0,0-4.5-6.79.46.46,0,0,1,.044-.832c4.568-1.849,7.833-1.94,8.954-.252s-.232,4.661-3.71,8.157A.461.461,0,0,1,1395.085,4292.957Zm-3.7-7.525a9.4,9.4,0,0,1,4.025,6.065c2.553-2.748,3.7-5.184,2.945-6.325S1394.906,4284.146,1391.385,4285.432Z" fill="#585757"/>
            </g>
            <g id="Group_1790" data-name="Group 1790">
              <path id="Path_8254" data-name="Path 8254" d="M1386.131,4302.743a9.454,9.454,0,0,1-9.413-8.621.465.465,0,0,1,.132-.365c.715-.717,1.5-1.432,2.323-2.126a.456.456,0,0,1,.382-.1.461.461,0,0,1,.317.233c.741,1.367,1.562,2.733,2.443,4.059s1.824,2.619,2.793,3.825h0c.652.813,1.315,1.584,1.969,2.294a.459.459,0,0,1-.307.77l-.106.007C1386.486,4302.731,1386.311,4302.743,1386.131,4302.743Zm-8.476-8.49a8.534,8.534,0,0,0,8.071,7.561c-.446-.507-.893-1.039-1.334-1.59h0c-.987-1.227-1.943-2.538-2.843-3.893-.789-1.188-1.531-2.408-2.213-3.633C1378.746,4293.21,1378.182,4293.731,1377.655,4294.253Z" fill="#585757"/>
            </g>
            <g id="Group_1791" data-name="Group 1791">
              <path id="Path_8255" data-name="Path 8255" d="M1386.74,4302.713a.455.455,0,0,1-.338-.149c-.669-.724-1.345-1.511-2.01-2.34-.987-1.227-1.943-2.538-2.843-3.893s-1.732-2.738-2.485-4.129a.46.46,0,0,1,.109-.571,44.074,44.074,0,0,1,3.915-2.923,43.62,43.62,0,0,1,4.213-2.474c.963-.5,1.927-.938,2.866-1.318a.457.457,0,0,1,.387.021,9.414,9.414,0,0,1,4.989,7.52h0c.023.274.041.55.041.831a9.347,9.347,0,0,1-1.017,4.25,9.486,9.486,0,0,1-7.8,5.173Zm-6.687-10.618c.693,1.256,1.452,2.509,2.262,3.728.885,1.332,1.824,2.619,2.793,3.825.6.751,1.213,1.466,1.818,2.129a8.564,8.564,0,0,0,6.821-4.653,8.44,8.44,0,0,0,.918-3.835c0-.254-.016-.5-.038-.752a8.5,8.5,0,0,0-4.317-6.686c-.85.351-1.72.754-2.588,1.2a43.422,43.422,0,0,0-7.669,5.044Z" fill="#585757"/>
            </g>
          </g>
          <g id="Group_1793" data-name="Group 1793">
            <path id="Path_8256" data-name="Path 8256" d="M1333.783,4302.917l-.56-5.638a.391.391,0,0,1,.426-.428l6.294.606a.391.391,0,0,0,.427-.427l-.315-3.23a.39.39,0,0,1,.455-.423l11.823,2.038-6.44,1.165a.391.391,0,0,0-.321.366l-.172,3.762a.392.392,0,0,1-.329.368l-9.6,1.536" fill="#a6b0a4"/>
          </g>
          <g id="Group_1794" data-name="Group 1794">
            <path id="Path_8257" data-name="Path 8257" d="M1371.7,4342.886l-3.948-2.371a.319.319,0,0,1-.059-.5l4.065-3.971a.32.32,0,0,0-.095-.522l-2.8-1.218a.32.32,0,0,1-.092-.525l7.059-6.714-2.378,4.791a.319.319,0,0,0,.084.389l2.382,1.949a.32.32,0,0,1,.081.4l-3.678,7.044" fill="#a6b0a4"/>
          </g>
          <g id="Group_1795" data-name="Group 1795">
            <path id="Path_8258" data-name="Path 8258" d="M1431.279,4306.555l-.648,2.977a.261.261,0,0,1-.373.177l-3.3-1.682a.261.261,0,0,0-.378.211l-.162,1.915a.261.261,0,0,1-.381.209l-5.754-3.027,3.538.479a.261.261,0,0,0,.279-.167l.7-1.874a.261.261,0,0,1,.284-.166l5.258.821" fill="#a6b0a4"/>
          </g>
          <g id="Group_1796" data-name="Group 1796">
            <path id="Path_8259" data-name="Path 8259" d="M1405.908,4250.5l3.683,3.071a.26.26,0,0,1-.016.412l-4.883,3.481a.262.262,0,0,0,.012.433l2.8,1.777a.26.26,0,0,1,.008.434l-7.059,4.892a.261.261,0,0,1-.362-.364l2.337-3.306a.261.261,0,0,0-.019-.324l-2.172-2.424a.26.26,0,0,1-.016-.328l4.857-6.584" fill="#a6b0a4"/>
          </g>
        </g>
        <g id="Group_1800" data-name="Group 1800">
          <g id="Group_1799" data-name="Group 1799">
            <g id="Group_1798" data-name="Group 1798">
              <path id="Path_8260" data-name="Path 8260" d="M1414.136,4293.8c-.646,36.9-56.921,36.893-57.561,0C1357.221,4256.9,1413.5,4256.9,1414.136,4293.8Z" fill="none" stroke="#5f7563" stroke-miterlimit="10" stroke-width="0.804" stroke-dasharray="14.873 14.873"/>
            </g>
          </g>
        </g>
        <g id="Group_1803" data-name="Group 1803">
          <g id="Group_1802" data-name="Group 1802">
            <g id="Group_1801" data-name="Group 1801">
              <path id="Path_8261" data-name="Path 8261" d="M1417.219,4293.8c-.715,40.852-63.018,40.846-63.727,0C1354.207,4252.946,1416.51,4252.952,1417.219,4293.8Z" fill="none" stroke="#5f7563" stroke-miterlimit="10" stroke-width="0.89" stroke-dasharray="16.466 16.466"/>
            </g>
          </g>
        </g>
        <g id="Group_1806" data-name="Group 1806">
          <g id="Group_1805" data-name="Group 1805">
            <g id="Group_1804" data-name="Group 1804">
              <path id="Path_8262" data-name="Path 8262" d="M1420.28,4293.8c-.784,44.776-69.072,44.769-69.849,0C1351.215,4249.022,1419.5,4249.029,1420.28,4293.8Z" fill="none" stroke="#5f7563" stroke-miterlimit="10" stroke-width="0.976" stroke-dasharray="18.047 18.047"/>
            </g>
          </g>
        </g>
        <g id="Group_1808" data-name="Group 1808">
          <circle id="Ellipse_251" data-name="Ellipse 251" cx="8.073" cy="8.073" r="8.073" transform="translate(1415.134 4252.146)" fill="#a6b0a4"/>
          <g id="Group_1807" data-name="Group 1807">
            <path id="Path_8263" data-name="Path 8263" d="M1422.032,4257.308c-.011.572-.011,1.156-.011,1.74v.247c0,.574,0,1.152.011,1.73l.494.051v.191h-1.943v-.191l.472-.051c.017-.556.017-1.14.017-1.785h-1.51c0,.634,0,1.218.016,1.791l.466.045v.191H1418.1v-.191l.5-.051c0-.567,0-1.146,0-1.73v-.247c0-.584,0-1.162,0-1.735l-.5-.05v-.191h1.942v.191l-.466.045c-.016.562-.016,1.14-.016,1.718h1.51c0-.572,0-1.151-.017-1.718l-.472-.045v-.191h1.943v.191Z" fill="#fff"/>
            <path id="Path_8264" data-name="Path 8264" d="M1424.62,4262.733v.4h-1.643v-.3c.18-.2.371-.384.531-.551.374-.384.522-.607.522-.948,0-.309-.154-.5-.407-.5a.539.539,0,0,0-.125.013l-.072.325c-.036.223-.144.275-.246.275a.229.229,0,0,1-.213-.138c.029-.38.4-.587.84-.587.518,0,.757.272.757.643,0,.341-.278.64-.9,1.05-.111.079-.256.194-.407.312Z" fill="#fff"/>
            <path id="Path_8265" data-name="Path 8265" d="M1429.013,4259.167a2,2,0,1,1-1.988-2.208A1.992,1.992,0,0,1,1429.013,4259.167Zm-1.988,2c.685,0,1-.843,1-2s-.314-1.994-1-1.994-1,.848-1,1.994S1426.334,4261.166,1427.025,4261.166Z" fill="#fff"/>
          </g>
        </g>
        <g id="Group_1810" data-name="Group 1810">
          <circle id="Ellipse_252" data-name="Ellipse 252" cx="6.361" cy="6.361" r="6.361" transform="translate(1337.777 4311.788)" fill="#a6b0a4"/>
          <g id="Group_1809" data-name="Group 1809">
            <path id="Path_8266" data-name="Path 8266" d="M1343.214,4315.855c-.009.452-.009.912-.009,1.372v.195c0,.451,0,.907.009,1.363l.389.04v.15h-1.531v-.15l.371-.04c.014-.438.014-.9.014-1.408h-1.19c0,.5,0,.961.012,1.412l.368.036v.15h-1.531v-.15l.394-.04c.005-.447.005-.9.005-1.363v-.195c0-.46,0-.916-.005-1.367l-.394-.04v-.151h1.531v.151l-.368.035c-.012.443-.012.9-.012,1.354h1.19c0-.451,0-.907-.014-1.354l-.371-.035v-.151h1.531v.151Z" fill="#fff"/>
            <path id="Path_8267" data-name="Path 8267" d="M1345.25,4320.131v.317h-1.292v-.232c.142-.154.291-.3.418-.433.294-.3.409-.477.409-.745,0-.243-.121-.4-.319-.4a.49.49,0,0,0-.1.01l-.056.256c-.029.175-.115.216-.194.216a.181.181,0,0,1-.168-.108c.024-.3.315-.461.66-.461.408,0,.6.214.6.5,0,.268-.22.5-.712.825-.088.062-.2.152-.319.245Z" fill="#fff"/>
            <path id="Path_8268" data-name="Path 8268" d="M1348.713,4317.32a1.577,1.577,0,1,1-1.567-1.739A1.569,1.569,0,0,1,1348.713,4317.32Zm-1.567,1.576c.541,0,.789-.664.789-1.576s-.248-1.571-.789-1.571-.787.668-.787,1.571S1346.6,4318.9,1347.146,4318.9Z" fill="#fff"/>
          </g>
        </g>
        <g id="Group_1812" data-name="Group 1812">
          <circle id="Ellipse_253" data-name="Ellipse 253" cx="5.631" cy="5.631" r="5.631" transform="translate(1342.23 4255.743)" fill="#a6b0a4"/>
          <g id="Group_1811" data-name="Group 1811">
            <path id="Path_8269" data-name="Path 8269" d="M1347.046,4259.341c-.008.4-.008.807-.008,1.216v.172c0,.4,0,.8.008,1.208l.345.035v.133h-1.357v-.133l.329-.035c.012-.388.012-.8.012-1.247h-1.055c0,.443,0,.851.012,1.251l.325.031v.133H1344.3v-.133l.348-.035c0-.4,0-.8,0-1.208v-.172c0-.409,0-.812,0-1.212l-.348-.035v-.134h1.356v.134l-.325.031c-.012.392-.012.8-.012,1.2h1.055c0-.4,0-.8-.012-1.2l-.329-.031v-.134h1.357v.134Z" fill="#fff"/>
            <path id="Path_8270" data-name="Path 8270" d="M1348.848,4263.128v.282H1347.7v-.206c.126-.138.259-.268.371-.385.261-.268.365-.423.365-.661,0-.216-.109-.35-.285-.35a.394.394,0,0,0-.087.009l-.05.226c-.025.156-.1.192-.171.192a.161.161,0,0,1-.15-.1c.021-.265.28-.41.586-.41.363,0,.53.19.53.449,0,.239-.2.447-.632.733-.078.055-.179.135-.284.217Z" fill="#fff"/>
            <path id="Path_8271" data-name="Path 8271" d="M1351.915,4260.639a1.4,1.4,0,1,1-1.389-1.541A1.391,1.391,0,0,1,1351.915,4260.639Zm-1.389,1.4c.479,0,.7-.588.7-1.4s-.22-1.392-.7-1.392-.7.592-.7,1.392S1350.044,4262.035,1350.526,4262.035Z" fill="#fff"/>
          </g>
        </g>
        <g id="Group_1814" data-name="Group 1814">
          <circle id="Ellipse_254" data-name="Ellipse 254" cx="7.907" cy="7.907" r="7.907" transform="translate(1411.588 4319.852)" fill="#a6b0a4"/>
          <g id="Group_1813" data-name="Group 1813">
            <path id="Path_8272" data-name="Path 8272" d="M1418.339,4324.913c-.011.56-.011,1.131-.011,1.7v.241c0,.561,0,1.127.011,1.692l.483.05v.187h-1.9v-.187l.461-.05c.016-.544.016-1.115.016-1.746h-1.477c0,.62,0,1.192.016,1.752l.457.044v.187h-1.9v-.187l.488-.05c.006-.554.006-1.12.006-1.692v-.241c0-.572,0-1.137-.006-1.7l-.488-.049v-.187h1.9v.187l-.457.044c-.016.549-.016,1.115-.016,1.681h1.477c0-.56,0-1.126-.016-1.681l-.461-.044v-.187h1.9v.187Z" fill="#fff"/>
            <path id="Path_8273" data-name="Path 8273" d="M1420.875,4330.223v.394h-1.6v-.289c.175-.192.361-.374.518-.538.365-.375.51-.593.51-.926,0-.3-.151-.49-.4-.49a.569.569,0,0,0-.122.012l-.07.318c-.035.217-.141.269-.24.269a.225.225,0,0,1-.208-.135c.028-.371.39-.573.82-.573.506,0,.74.266.74.628,0,.333-.272.625-.884,1.025-.109.077-.25.189-.4.305Z" fill="#fff"/>
            <path id="Path_8274" data-name="Path 8274" d="M1425.176,4326.731a1.958,1.958,0,1,1-1.945-2.159A1.948,1.948,0,0,1,1425.176,4326.731Zm-1.945,1.956c.67,0,.978-.824.978-1.956s-.308-1.95-.978-1.95-.977.83-.977,1.95S1422.556,4328.687,1423.231,4328.687Z" fill="#fff"/>
          </g>
        </g>
      </g>
      <g id="Group_1851" data-name="Group 1851">
        <g id="Group_1833" data-name="Group 1833">
          <g id="Group_1816" data-name="Group 1816">
            <path id="Path_8275" data-name="Path 8275" d="M1405.548,4488.448c-.578,33.034-50.959,33.029-51.532,0C1354.594,4455.413,1404.975,4455.419,1405.548,4488.448Z" fill="#a6b0a4"/>
          </g>
          <g id="Group_1819" data-name="Group 1819">
            <g id="Group_1817" data-name="Group 1817">
              <circle id="Ellipse_255" data-name="Ellipse 255" cx="8.743" cy="8.743" r="8.743" transform="translate(1371.818 4479.22)" fill="#fff"/>
            </g>
            <g id="Group_1818" data-name="Group 1818">
              <path id="Path_8276" data-name="Path 8276" d="M1387.047,4484.326a2.626,2.626,0,0,1-2.65.375,2.885,2.885,0,0,1-1.755-3.9,7.436,7.436,0,1,0,4.405,3.52Z" fill="#a6b0a4"/>
            </g>
          </g>
          <g id="Group_1828" data-name="Group 1828">
            <g id="Group_1820" data-name="Group 1820">
              <path id="Path_8277" data-name="Path 8277" d="M1371.6,4489.191a.459.459,0,0,1-.458-.42c-.024-.275-.042-.551-.042-.832a9.344,9.344,0,0,1,1.017-4.249.435.435,0,0,1,.42-.252.459.459,0,0,1,.409.269c.4.879.854,1.79,1.35,2.707a.459.459,0,0,1-.109.571c-.806.677-1.567,1.373-2.262,2.071A.459.459,0,0,1,1371.6,4489.191Zm.943-4.181a8.382,8.382,0,0,0-.52,2.669c.413-.389.844-.776,1.288-1.156C1373.045,4486.015,1372.787,4485.508,1372.546,4485.01Z" fill="#585757"/>
            </g>
            <g id="Group_1821" data-name="Group 1821">
              <path id="Path_8278" data-name="Path 8278" d="M1388.778,4502.547c-1.921,0-4.762-1.881-7.949-5.332a.46.46,0,0,1,.307-.771,8.557,8.557,0,0,0,7.038-4.67.459.459,0,0,1,.828.017c2.423,5.333,2.806,9.223,1.022,10.407A2.211,2.211,0,0,1,1388.778,4502.547Zm-6.649-5.3c3.236,3.334,6.157,4.994,7.387,4.181s.829-4.156-.985-8.429A9.5,9.5,0,0,1,1382.129,4497.251Z" fill="#585757"/>
            </g>
            <g id="Group_1822" data-name="Group 1822">
              <path id="Path_8279" data-name="Path 8279" d="M1372.531,4484.357h-.009a.462.462,0,0,1-.41-.269c-2.423-5.333-2.805-9.224-1.022-10.408s5.222.681,9.2,4.984a.46.46,0,0,1-.307.771,8.557,8.557,0,0,0-7.039,4.67A.461.461,0,0,1,1372.531,4484.357Zm-.167-10.117a1.36,1.36,0,0,0-.766.207c-1.234.819-.828,4.155.986,8.429a9.5,9.5,0,0,1,6.4-4.248C1376.3,4475.86,1373.83,4474.24,1372.364,4474.24Z" fill="#585757"/>
            </g>
            <g id="Group_1823" data-name="Group 1823">
              <path id="Path_8280" data-name="Path 8280" d="M1373.9,4487.093a.5.5,0,0,1-.086-.008.461.461,0,0,1-.318-.233c-.506-.936-.97-1.866-1.379-2.764a.466.466,0,0,1,.008-.4,9.489,9.489,0,0,1,7.8-5.173l.118-.008a9.3,9.3,0,0,1,4.944,1.078.46.46,0,0,1-.043.832c-.914.369-1.852.8-2.79,1.282a42.74,42.74,0,0,0-4.125,2.423,43.287,43.287,0,0,0-3.833,2.861A.456.456,0,0,1,1373.9,4487.093Zm-.853-3.183c.3.657.637,1.331.994,2.01,1.1-.9,2.273-1.761,3.479-2.562a44.231,44.231,0,0,1,4.213-2.474c.634-.326,1.269-.63,1.9-.907a8.269,8.269,0,0,0-3.522-.551l-.123.009A8.559,8.559,0,0,0,1373.042,4483.91Z" fill="#585757"/>
            </g>
            <g id="Group_1824" data-name="Group 1824">
              <path id="Path_8281" data-name="Path 8281" d="M1370.53,4497.767a3.333,3.333,0,0,1-2.963-1.2c-1.121-1.689.232-4.662,3.71-8.157a.459.459,0,0,1,.783.283,8.5,8.5,0,0,0,4.5,6.789.459.459,0,0,1-.043.832A16.913,16.913,0,0,1,1370.53,4497.767Zm.748-8.036c-2.553,2.748-3.7,5.184-2.945,6.326s3.448,1.026,6.97-.261A9.4,9.4,0,0,1,1371.278,4489.731Z" fill="#585757"/>
            </g>
            <g id="Group_1825" data-name="Group 1825">
              <path id="Path_8282" data-name="Path 8282" d="M1389.512,4487.607a.438.438,0,0,1-.156-.028.458.458,0,0,1-.3-.391,8.5,8.5,0,0,0-4.5-6.789.461.461,0,0,1,.043-.833c4.569-1.849,7.833-1.94,8.954-.252s-.231,4.661-3.709,8.157A.462.462,0,0,1,1389.512,4487.607Zm-3.7-7.524a9.4,9.4,0,0,1,4.026,6.064c2.552-2.748,3.7-5.184,2.945-6.325S1389.332,4478.8,1385.811,4480.083Z" fill="#585757"/>
            </g>
            <g id="Group_1826" data-name="Group 1826">
              <path id="Path_8283" data-name="Path 8283" d="M1380.558,4497.393a9.452,9.452,0,0,1-9.413-8.621.459.459,0,0,1,.132-.364c.714-.718,1.5-1.433,2.323-2.127a.449.449,0,0,1,.381-.1.459.459,0,0,1,.318.232c.74,1.367,1.562,2.733,2.442,4.059s1.825,2.619,2.793,3.825h0c.653.814,1.315,1.585,1.97,2.294a.459.459,0,0,1-.307.77l-.106.007C1380.913,4497.382,1380.737,4497.393,1380.558,4497.393Zm-8.476-8.49a8.532,8.532,0,0,0,8.071,7.561c-.446-.507-.893-1.039-1.335-1.589h0c-.986-1.228-1.942-2.539-2.842-3.894-.789-1.188-1.532-2.407-2.213-3.633C1373.172,4487.86,1372.609,4488.381,1372.082,4488.9Z" fill="#585757"/>
            </g>
            <g id="Group_1827" data-name="Group 1827">
              <path id="Path_8284" data-name="Path 8284" d="M1381.166,4497.363a.457.457,0,0,1-.337-.148c-.669-.725-1.346-1.512-2.011-2.34-.986-1.228-1.942-2.539-2.842-3.894s-1.732-2.738-2.485-4.129a.46.46,0,0,1,.109-.571,44.315,44.315,0,0,1,8.128-5.4c.962-.494,1.926-.938,2.865-1.318a.459.459,0,0,1,.388.021,9.418,9.418,0,0,1,4.989,7.52h0c.023.275.041.55.041.831a9.347,9.347,0,0,1-1.017,4.25,9.484,9.484,0,0,1-7.8,5.173Zm-6.687-10.618c.693,1.256,1.453,2.509,2.262,3.728.885,1.332,1.825,2.619,2.793,3.825.6.751,1.214,1.466,1.819,2.129a8.563,8.563,0,0,0,6.821-4.653,8.44,8.44,0,0,0,.918-3.835c0-.254-.016-.5-.038-.752a8.5,8.5,0,0,0-4.317-6.686c-.85.351-1.72.754-2.589,1.2a43.485,43.485,0,0,0-7.669,5.044Z" fill="#585757"/>
            </g>
          </g>
          <g id="Group_1829" data-name="Group 1829">
            <path id="Path_8285" data-name="Path 8285" d="M1328.21,4497.567l-.56-5.638a.391.391,0,0,1,.426-.428l6.294.606a.391.391,0,0,0,.426-.427l-.315-3.23a.391.391,0,0,1,.456-.423l11.823,2.038-6.44,1.165a.389.389,0,0,0-.321.367l-.173,3.761a.39.39,0,0,1-.328.368l-9.6,1.536" fill="#a6b0a4"/>
          </g>
          <g id="Group_1830" data-name="Group 1830">
            <path id="Path_8286" data-name="Path 8286" d="M1366.124,4537.536l-3.948-2.371a.319.319,0,0,1-.059-.5l4.065-3.971a.319.319,0,0,0-.1-.521l-2.8-1.219a.319.319,0,0,1-.092-.524l7.059-6.715-2.379,4.791a.32.32,0,0,0,.084.389l2.383,1.949a.32.32,0,0,1,.081.4l-3.678,7.044" fill="#a6b0a4"/>
          </g>
          <g id="Group_1831" data-name="Group 1831">
            <path id="Path_8287" data-name="Path 8287" d="M1425.706,4501.205l-.648,2.977a.26.26,0,0,1-.373.177l-3.3-1.681a.26.26,0,0,0-.378.21l-.163,1.915a.261.261,0,0,1-.381.209l-5.754-3.027,3.539.479a.262.262,0,0,0,.279-.166l.7-1.875a.26.26,0,0,1,.284-.166l5.258.822" fill="#a6b0a4"/>
          </g>
          <g id="Group_1832" data-name="Group 1832">
            <path id="Path_8288" data-name="Path 8288" d="M1400.334,4445.147l3.683,3.071a.26.26,0,0,1-.015.412l-4.883,3.482a.26.26,0,0,0,.012.432l2.8,1.777a.261.261,0,0,1,.009.435l-7.06,4.891a.26.26,0,0,1-.361-.364l2.336-3.306a.261.261,0,0,0-.018-.324l-2.173-2.424a.26.26,0,0,1-.015-.328l4.856-6.584" fill="#a6b0a4"/>
          </g>
        </g>
        <g id="Group_1836" data-name="Group 1836">
          <g id="Group_1835" data-name="Group 1835">
            <g id="Group_1834" data-name="Group 1834">
              <path id="Path_8289" data-name="Path 8289" d="M1408.563,4488.448c-.646,36.9-56.921,36.894-57.562,0C1351.647,4451.548,1407.922,4451.554,1408.563,4488.448Z" fill="none" stroke="#5f7563" stroke-miterlimit="10" stroke-width="0.804" stroke-dasharray="14.873 14.873"/>
            </g>
          </g>
        </g>
        <g id="Group_1839" data-name="Group 1839">
          <g id="Group_1838" data-name="Group 1838">
            <g id="Group_1837" data-name="Group 1837">
              <path id="Path_8290" data-name="Path 8290" d="M1411.646,4488.448c-.716,40.852-63.019,40.846-63.728,0C1348.633,4447.6,1410.937,4447.6,1411.646,4488.448Z" fill="none" stroke="#5f7563" stroke-miterlimit="10" stroke-width="0.89" stroke-dasharray="16.466 16.466"/>
            </g>
          </g>
        </g>
        <g id="Group_1842" data-name="Group 1842">
          <g id="Group_1841" data-name="Group 1841">
            <g id="Group_1840" data-name="Group 1840">
              <path id="Path_8291" data-name="Path 8291" d="M1414.707,4488.448c-.785,44.776-69.072,44.769-69.85,0C1345.642,4443.672,1413.929,4443.679,1414.707,4488.448Z" fill="none" stroke="#5f7563" stroke-miterlimit="10" stroke-width="0.976" stroke-dasharray="18.047 18.047"/>
            </g>
          </g>
        </g>
        <g id="Group_1844" data-name="Group 1844">
          <circle id="Ellipse_256" data-name="Ellipse 256" cx="8.073" cy="8.073" r="8.073" transform="translate(1409.561 4446.795)" fill="#a6b0a4"/>
          <g id="Group_1843" data-name="Group 1843">
            <path id="Path_8292" data-name="Path 8292" d="M1416.459,4451.958c-.012.573-.012,1.157-.012,1.741v.247c0,.572,0,1.151.012,1.729l.494.051v.191h-1.943v-.191l.471-.051c.017-.556.017-1.14.017-1.786h-1.51c0,.635,0,1.219.017,1.792l.466.045v.191h-1.943v-.191l.5-.051c.006-.567.006-1.145.006-1.729v-.247c0-.584,0-1.163-.006-1.736l-.5-.05v-.191h1.943v.191l-.466.045c-.017.561-.017,1.14-.017,1.718h1.51c0-.573,0-1.151-.017-1.718l-.471-.045v-.191h1.943v.191Z" fill="#fff"/>
            <path id="Path_8293" data-name="Path 8293" d="M1419.047,4457.383v.4H1417.4v-.295c.181-.2.371-.384.532-.551.374-.384.522-.607.522-.948,0-.309-.154-.5-.407-.5a.566.566,0,0,0-.125.013l-.072.325c-.037.223-.144.275-.247.275a.228.228,0,0,1-.212-.138c.029-.38.4-.587.839-.587.519,0,.758.272.758.643,0,.341-.278.64-.9,1.05-.111.079-.256.194-.407.312Z" fill="#fff"/>
            <path id="Path_8294" data-name="Path 8294" d="M1423.439,4453.816a2,2,0,1,1-1.988-2.206A1.992,1.992,0,0,1,1423.439,4453.816Zm-1.988,2c.686,0,1-.842,1-2s-.314-1.993-1-1.993-1,.848-1,1.993S1420.761,4455.815,1421.451,4455.815Z" fill="#fff"/>
          </g>
        </g>
        <g id="Group_1846" data-name="Group 1846">
          <circle id="Ellipse_257" data-name="Ellipse 257" cx="6.361" cy="6.361" r="6.361" transform="translate(1332.204 4506.438)" fill="#a6b0a4"/>
          <g id="Group_1845" data-name="Group 1845">
            <path id="Path_8295" data-name="Path 8295" d="M1337.641,4510.506c-.009.451-.009.911-.009,1.371v.195c0,.451,0,.907.009,1.363l.388.04v.15h-1.53v-.15l.371-.04c.014-.438.014-.9.014-1.407h-1.191c0,.5,0,.96.014,1.411l.367.036v.15h-1.531v-.15l.394-.04c0-.447,0-.9,0-1.363v-.195c0-.46,0-.916,0-1.367l-.394-.04v-.15h1.531v.15l-.367.036c-.014.442-.014.9-.014,1.354h1.191c0-.451,0-.907-.014-1.354l-.371-.036v-.15h1.53v.15Z" fill="#fff"/>
            <path id="Path_8296" data-name="Path 8296" d="M1339.677,4514.781v.318h-1.292v-.232c.141-.155.291-.3.418-.434.294-.3.409-.477.409-.745,0-.242-.121-.4-.319-.4a.4.4,0,0,0-.1.011l-.057.255c-.028.175-.114.217-.193.217a.182.182,0,0,1-.168-.109c.023-.3.314-.461.66-.461.407,0,.6.214.6.5,0,.268-.22.5-.712.826-.088.061-.2.151-.319.244Z" fill="#fff"/>
            <path id="Path_8297" data-name="Path 8297" d="M1343.141,4511.971a1.577,1.577,0,1,1-1.568-1.74A1.57,1.57,0,0,1,1343.141,4511.971Zm-1.568,1.575c.54,0,.788-.664.788-1.575s-.248-1.572-.788-1.572-.787.669-.787,1.572S1341.029,4513.546,1341.573,4513.546Z" fill="#fff"/>
          </g>
        </g>
        <g id="Group_1848" data-name="Group 1848">
          <circle id="Ellipse_258" data-name="Ellipse 258" cx="5.631" cy="5.631" r="5.631" transform="translate(1336.657 4450.394)" fill="#a6b0a4"/>
          <g id="Group_1847" data-name="Group 1847">
            <path id="Path_8298" data-name="Path 8298" d="M1341.473,4453.991c-.008.4-.008.807-.008,1.216v.172c0,.4,0,.8.008,1.208l.344.035v.133h-1.356v-.133l.329-.035c.012-.388.012-.8.012-1.247h-1.055c0,.443,0,.851.012,1.251l.325.031v.133h-1.356v-.133l.348-.035c0-.4,0-.8,0-1.208v-.172c0-.409,0-.812,0-1.212l-.348-.036v-.133h1.356v.133l-.325.032c-.012.392-.012.8-.012,1.2h1.055c0-.4,0-.8-.012-1.2l-.329-.032v-.133h1.356v.133Z" fill="#fff"/>
            <path id="Path_8299" data-name="Path 8299" d="M1343.275,4457.778v.282h-1.147v-.206c.126-.138.259-.268.371-.385.261-.268.364-.424.364-.661,0-.216-.108-.35-.284-.35a.385.385,0,0,0-.087.008l-.051.227c-.024.156-.1.192-.17.192a.16.16,0,0,1-.15-.1c.021-.265.279-.41.586-.41.362,0,.529.19.529.449,0,.238-.195.446-.632.733-.078.055-.178.135-.284.217Z" fill="#fff"/>
            <path id="Path_8300" data-name="Path 8300" d="M1346.342,4455.289a1.4,1.4,0,1,1-1.389-1.541A1.392,1.392,0,0,1,1346.342,4455.289Zm-1.389,1.4c.479,0,.7-.588.7-1.4s-.219-1.393-.7-1.393-.7.593-.7,1.393S1344.471,4456.685,1344.953,4456.685Z" fill="#fff"/>
          </g>
        </g>
        <g id="Group_1850" data-name="Group 1850">
          <circle id="Ellipse_259" data-name="Ellipse 259" cx="7.907" cy="7.907" r="7.907" transform="translate(1406.015 4514.502)" fill="#a6b0a4"/>
          <g id="Group_1849" data-name="Group 1849">
            <path id="Path_8301" data-name="Path 8301" d="M1412.766,4519.563c-.011.561-.011,1.132-.011,1.7v.242c0,.56,0,1.126.011,1.692l.483.05v.186h-1.9v-.186l.461-.05c.016-.544.016-1.116.016-1.747h-1.477c0,.621,0,1.192.016,1.753l.456.044v.186h-1.9v-.186l.488-.05c.006-.555.006-1.121.006-1.692v-.242c0-.571,0-1.137-.006-1.7l-.488-.049v-.187h1.9v.187l-.456.043c-.016.55-.016,1.115-.016,1.681h1.477c0-.56,0-1.126-.016-1.681l-.461-.043v-.187h1.9v.187Z" fill="#fff"/>
            <path id="Path_8302" data-name="Path 8302" d="M1415.3,4524.873v.394h-1.6v-.288c.176-.192.362-.375.519-.539.365-.375.51-.592.51-.926,0-.3-.151-.49-.4-.49a.515.515,0,0,0-.122.013l-.07.317c-.035.218-.141.269-.24.269a.224.224,0,0,1-.208-.134c.028-.372.39-.574.82-.574.506,0,.74.266.74.628,0,.333-.272.625-.885,1.025-.108.078-.25.19-.4.305Z" fill="#fff"/>
            <path id="Path_8303" data-name="Path 8303" d="M1419.6,4521.381a1.958,1.958,0,1,1-1.945-2.158A1.949,1.949,0,0,1,1419.6,4521.381Zm-1.945,1.956c.67,0,.978-.824.978-1.956s-.308-1.949-.978-1.949-.978.829-.978,1.949S1416.982,4523.337,1417.658,4523.337Z" fill="#fff"/>
          </g>
        </g>
      </g>
      <g id="Group_1887" data-name="Group 1887">
        <g id="Group_1869" data-name="Group 1869">
          <g id="Group_1852" data-name="Group 1852">
            <path id="Path_8304" data-name="Path 8304" d="M1554.946,4488.628c-.578,33.035-50.959,33.03-51.532,0C1503.992,4455.594,1554.373,4455.6,1554.946,4488.628Z" fill="#a6b0a4"/>
          </g>
          <g id="Group_1855" data-name="Group 1855">
            <g id="Group_1853" data-name="Group 1853">
              <circle id="Ellipse_260" data-name="Ellipse 260" cx="8.743" cy="8.743" r="8.743" transform="translate(1521.216 4479.4)" fill="#fff"/>
            </g>
            <g id="Group_1854" data-name="Group 1854">
              <path id="Path_8305" data-name="Path 8305" d="M1536.445,4484.506a2.626,2.626,0,0,1-2.65.376,2.887,2.887,0,0,1-1.755-3.9,7.436,7.436,0,1,0,4.4,3.52Z" fill="#a6b0a4"/>
            </g>
          </g>
          <g id="Group_1864" data-name="Group 1864">
            <g id="Group_1856" data-name="Group 1856">
              <path id="Path_8306" data-name="Path 8306" d="M1521,4489.371a.492.492,0,0,1-.158-.027.461.461,0,0,1-.3-.393c-.024-.274-.041-.551-.041-.832a9.348,9.348,0,0,1,1.016-4.249.435.435,0,0,1,.42-.252.462.462,0,0,1,.409.269c.4.879.854,1.79,1.35,2.707a.46.46,0,0,1-.109.571c-.806.677-1.567,1.373-2.262,2.071A.458.458,0,0,1,1521,4489.371Zm.943-4.181a8.391,8.391,0,0,0-.52,2.669c.413-.389.844-.776,1.288-1.156C1522.443,4486.195,1522.185,4485.689,1521.944,4485.19Z" fill="#585757"/>
            </g>
            <g id="Group_1857" data-name="Group 1857">
              <path id="Path_8307" data-name="Path 8307" d="M1538.176,4502.727c-1.921,0-4.762-1.881-7.949-5.332a.459.459,0,0,1,.307-.77,8.561,8.561,0,0,0,7.038-4.67.459.459,0,0,1,.828.017c2.423,5.332,2.806,9.222,1.022,10.406A2.211,2.211,0,0,1,1538.176,4502.727Zm-6.649-5.295c3.236,3.333,6.157,4.994,7.387,4.18s.829-4.156-.985-8.429A9.5,9.5,0,0,1,1531.527,4497.432Z" fill="#585757"/>
            </g>
            <g id="Group_1858" data-name="Group 1858">
              <path id="Path_8308" data-name="Path 8308" d="M1521.929,4484.537h-.009a.462.462,0,0,1-.41-.269c-2.423-5.333-2.805-9.224-1.022-10.408s5.222.681,9.2,4.985a.46.46,0,0,1-.307.77,8.559,8.559,0,0,0-7.039,4.67A.461.461,0,0,1,1521.929,4484.537Zm-.167-10.116a1.356,1.356,0,0,0-.766.206c-1.234.819-.828,4.156.986,8.429a9.5,9.5,0,0,1,6.4-4.248C1525.7,4476.041,1523.228,4474.421,1521.762,4474.421Z" fill="#585757"/>
            </g>
            <g id="Group_1859" data-name="Group 1859">
              <path id="Path_8309" data-name="Path 8309" d="M1523.293,4487.273a.511.511,0,0,1-.086-.008.463.463,0,0,1-.318-.233c-.506-.936-.97-1.866-1.379-2.764a.466.466,0,0,1,.008-.4,9.489,9.489,0,0,1,7.8-5.173l.118-.008a9.287,9.287,0,0,1,4.944,1.078.46.46,0,0,1-.043.832c-.914.369-1.852.8-2.79,1.282a43.638,43.638,0,0,0-7.958,5.284A.459.459,0,0,1,1523.293,4487.273Zm-.853-3.183c.3.657.637,1.331.994,2.011,1.1-.9,2.273-1.761,3.479-2.563a44.026,44.026,0,0,1,4.213-2.474c.634-.325,1.269-.63,1.9-.907a8.269,8.269,0,0,0-3.522-.551l-.123.009A8.562,8.562,0,0,0,1522.44,4484.09Z" fill="#585757"/>
            </g>
            <g id="Group_1860" data-name="Group 1860">
              <path id="Path_8310" data-name="Path 8310" d="M1519.928,4497.948a3.335,3.335,0,0,1-2.963-1.2c-1.121-1.688.232-4.662,3.71-8.157a.459.459,0,0,1,.783.283,8.5,8.5,0,0,0,4.5,6.79.459.459,0,0,1-.043.832A16.934,16.934,0,0,1,1519.928,4497.948Zm.748-8.036c-2.553,2.747-3.7,5.183-2.945,6.325s3.448,1.026,6.97-.26A9.4,9.4,0,0,1,1520.676,4489.912Z" fill="#585757"/>
            </g>
            <g id="Group_1861" data-name="Group 1861">
              <path id="Path_8311" data-name="Path 8311" d="M1538.91,4487.787a.438.438,0,0,1-.156-.028.456.456,0,0,1-.3-.391,8.5,8.5,0,0,0-4.5-6.789.46.46,0,0,1,.043-.832c4.569-1.849,7.833-1.941,8.954-.253s-.231,4.662-3.709,8.158A.46.46,0,0,1,1538.91,4487.787Zm-3.7-7.524a9.4,9.4,0,0,1,4.026,6.065c2.552-2.749,3.7-5.185,2.945-6.325S1538.73,4478.977,1535.209,4480.263Z" fill="#585757"/>
            </g>
            <g id="Group_1862" data-name="Group 1862">
              <path id="Path_8312" data-name="Path 8312" d="M1529.956,4497.573a9.452,9.452,0,0,1-9.413-8.621.46.46,0,0,1,.132-.364c.714-.717,1.5-1.433,2.323-2.127a.454.454,0,0,1,.381-.1.461.461,0,0,1,.318.232c.74,1.367,1.562,2.733,2.442,4.059s1.825,2.619,2.793,3.826h0c.653.813,1.315,1.584,1.97,2.293a.46.46,0,0,1-.307.77l-.106.007C1530.311,4497.562,1530.135,4497.573,1529.956,4497.573Zm-8.476-8.49a8.529,8.529,0,0,0,8.071,7.561c-.446-.507-.893-1.039-1.335-1.589h0c-.986-1.228-1.942-2.539-2.842-3.894-.789-1.187-1.532-2.407-2.213-3.632C1522.57,4488.04,1522.007,4488.561,1521.48,4489.083Z" fill="#585757"/>
            </g>
            <g id="Group_1863" data-name="Group 1863">
              <path id="Path_8313" data-name="Path 8313" d="M1530.564,4497.543a.456.456,0,0,1-.337-.148c-.669-.725-1.346-1.512-2.011-2.34-.986-1.228-1.942-2.539-2.842-3.894s-1.732-2.737-2.485-4.129a.46.46,0,0,1,.109-.571,44.309,44.309,0,0,1,8.128-5.4c.962-.494,1.926-.938,2.865-1.317a.461.461,0,0,1,.388.02,9.416,9.416,0,0,1,4.989,7.52h0c.023.275.041.55.041.831a9.345,9.345,0,0,1-1.017,4.25,9.484,9.484,0,0,1-7.8,5.173Zm-6.687-10.618c.693,1.256,1.453,2.509,2.262,3.728.885,1.332,1.825,2.619,2.793,3.826.6.75,1.214,1.465,1.819,2.129a8.566,8.566,0,0,0,6.821-4.653,8.444,8.444,0,0,0,.918-3.836c0-.254-.016-.5-.038-.752a8.5,8.5,0,0,0-4.317-6.686c-.85.351-1.72.754-2.589,1.2a43.711,43.711,0,0,0-7.669,5.044Z" fill="#585757"/>
            </g>
          </g>
          <g id="Group_1865" data-name="Group 1865">
            <path id="Path_8314" data-name="Path 8314" d="M1477.608,4497.747l-.56-5.638a.389.389,0,0,1,.426-.427l6.294.6a.39.39,0,0,0,.426-.427l-.315-3.23a.392.392,0,0,1,.456-.423l11.823,2.039-6.44,1.164a.391.391,0,0,0-.321.367l-.173,3.762a.391.391,0,0,1-.328.368l-9.6,1.535" fill="#a6b0a4"/>
          </g>
          <g id="Group_1866" data-name="Group 1866">
            <path id="Path_8315" data-name="Path 8315" d="M1515.522,4537.716l-3.948-2.37a.32.32,0,0,1-.059-.5l4.065-3.971a.319.319,0,0,0-.1-.521l-2.8-1.219a.319.319,0,0,1-.092-.524l7.059-6.714-2.379,4.79a.322.322,0,0,0,.084.39l2.383,1.948a.32.32,0,0,1,.081.4l-3.678,7.044" fill="#a6b0a4"/>
          </g>
          <g id="Group_1867" data-name="Group 1867">
            <path id="Path_8316" data-name="Path 8316" d="M1575.1,4501.386l-.648,2.977a.261.261,0,0,1-.373.176l-3.3-1.681a.261.261,0,0,0-.378.21l-.163,1.915a.261.261,0,0,1-.381.209l-5.754-3.027,3.539.479a.26.26,0,0,0,.279-.166l.7-1.875a.261.261,0,0,1,.284-.166l5.258.822" fill="#a6b0a4"/>
          </g>
          <g id="Group_1868" data-name="Group 1868">
            <path id="Path_8317" data-name="Path 8317" d="M1549.732,4445.327l3.683,3.071a.262.262,0,0,1-.015.413l-4.883,3.481a.26.26,0,0,0,.012.432l2.8,1.778a.26.26,0,0,1,.009.434l-7.06,4.892a.261.261,0,0,1-.361-.365l2.336-3.306a.261.261,0,0,0-.018-.324l-2.173-2.423a.261.261,0,0,1-.015-.329l4.856-6.584" fill="#a6b0a4"/>
          </g>
        </g>
        <g id="Group_1872" data-name="Group 1872">
          <g id="Group_1871" data-name="Group 1871">
            <g id="Group_1870" data-name="Group 1870">
              <path id="Path_8318" data-name="Path 8318" d="M1557.961,4488.628c-.646,36.9-56.921,36.894-57.562,0C1501.045,4451.729,1557.32,4451.734,1557.961,4488.628Z" fill="none" stroke="#5f7563" stroke-miterlimit="10" stroke-width="0.804" stroke-dasharray="14.873 14.873"/>
            </g>
          </g>
        </g>
        <g id="Group_1875" data-name="Group 1875">
          <g id="Group_1874" data-name="Group 1874">
            <g id="Group_1873" data-name="Group 1873">
              <path id="Path_8319" data-name="Path 8319" d="M1561.044,4488.628c-.715,40.852-63.019,40.846-63.728,0C1498.032,4447.776,1560.334,4447.782,1561.044,4488.628Z" fill="none" stroke="#5f7563" stroke-miterlimit="10" stroke-width="0.89" stroke-dasharray="16.466 16.466"/>
            </g>
          </g>
        </g>
        <g id="Group_1878" data-name="Group 1878">
          <g id="Group_1877" data-name="Group 1877">
            <g id="Group_1876" data-name="Group 1876">
              <path id="Path_8320" data-name="Path 8320" d="M1564.1,4488.628c-.784,44.776-69.071,44.769-69.849,0C1495.04,4443.852,1563.327,4443.859,1564.1,4488.628Z" fill="none" stroke="#5f7563" stroke-miterlimit="10" stroke-width="0.976" stroke-dasharray="18.047 18.047"/>
            </g>
          </g>
        </g>
        <g id="Group_1880" data-name="Group 1880">
          <circle id="Ellipse_261" data-name="Ellipse 261" cx="8.073" cy="8.073" r="8.073" transform="translate(1558.959 4446.976)" fill="#a6b0a4"/>
          <g id="Group_1879" data-name="Group 1879">
            <path id="Path_8321" data-name="Path 8321" d="M1565.856,4452.138c-.011.573-.011,1.157-.011,1.741v.247c0,.573,0,1.151.011,1.73l.495.05v.191h-1.944v-.191l.472-.05c.017-.556.017-1.14.017-1.786h-1.51c0,.635,0,1.219.016,1.791l.466.045v.191h-1.942v-.191l.5-.05c.005-.567.005-1.146.005-1.73v-.247c0-.584,0-1.162-.005-1.735l-.5-.051v-.19h1.942v.19l-.466.045c-.016.562-.016,1.14-.016,1.719h1.51c0-.573,0-1.151-.017-1.719l-.472-.045v-.19h1.944v.19Z" fill="#fff"/>
            <path id="Path_8322" data-name="Path 8322" d="M1568.444,4457.563v.4H1566.8v-.3c.18-.2.371-.383.531-.55.374-.385.522-.607.522-.949,0-.308-.154-.5-.407-.5a.542.542,0,0,0-.125.014l-.072.324c-.036.223-.144.276-.246.276a.23.23,0,0,1-.213-.138c.029-.38.4-.587.84-.587.518,0,.758.272.758.643,0,.341-.279.639-.906,1.049-.111.08-.255.194-.407.312Z" fill="#fff"/>
            <path id="Path_8323" data-name="Path 8323" d="M1572.837,4454a2,2,0,1,1-1.987-2.206A1.991,1.991,0,0,1,1572.837,4454Zm-1.987,2c.684,0,1-.842,1-2s-.315-1.994-1-1.994-1,.849-1,1.994S1570.158,4456,1570.85,4456Z" fill="#fff"/>
          </g>
        </g>
        <g id="Group_1882" data-name="Group 1882">
          <circle id="Ellipse_262" data-name="Ellipse 262" cx="6.361" cy="6.361" r="6.361" transform="translate(1481.602 4506.618)" fill="#a6b0a4"/>
          <g id="Group_1881" data-name="Group 1881">
            <path id="Path_8324" data-name="Path 8324" d="M1487.039,4510.686c-.009.451-.009.911-.009,1.371v.195c0,.451,0,.907.009,1.363l.389.04v.15H1485.9v-.15l.372-.04c.013-.438.013-.9.013-1.407h-1.19c0,.5,0,.96.013,1.411l.368.036v.15h-1.532v-.15l.394-.04c.005-.447.005-.9.005-1.363v-.195c0-.46,0-.916-.005-1.367l-.394-.04v-.15h1.532v.15l-.368.036c-.013.442-.013.9-.013,1.354h1.19c0-.452,0-.908-.013-1.354l-.372-.036v-.15h1.531v.15Z" fill="#fff"/>
            <path id="Path_8325" data-name="Path 8325" d="M1489.075,4514.961v.317h-1.292v-.232c.142-.154.291-.3.418-.433.294-.3.409-.477.409-.745,0-.243-.121-.4-.319-.4a.5.5,0,0,0-.1.01l-.056.256c-.029.175-.115.217-.194.217a.183.183,0,0,1-.168-.109c.024-.3.315-.461.661-.461.407,0,.595.214.595.5,0,.268-.219.5-.712.825-.088.062-.2.152-.319.245Z" fill="#fff"/>
            <path id="Path_8326" data-name="Path 8326" d="M1492.539,4512.15a1.577,1.577,0,1,1-1.567-1.739A1.57,1.57,0,0,1,1492.539,4512.15Zm-1.567,1.576c.54,0,.788-.664.788-1.576s-.248-1.571-.788-1.571-.787.669-.787,1.571S1490.428,4513.726,1490.972,4513.726Z" fill="#fff"/>
          </g>
        </g>
        <g id="Group_1884" data-name="Group 1884">
          <circle id="Ellipse_263" data-name="Ellipse 263" cx="5.631" cy="5.631" r="5.631" transform="translate(1486.055 4450.574)" fill="#a6b0a4"/>
          <g id="Group_1883" data-name="Group 1883">
            <path id="Path_8327" data-name="Path 8327" d="M1490.871,4454.171c-.008.4-.008.808-.008,1.216v.173c0,.4,0,.8.008,1.208l.345.035v.133h-1.357v-.133l.329-.035c.012-.389.012-.8.012-1.247h-1.054c0,.442,0,.851.011,1.25l.325.032v.133h-1.356v-.133l.349-.035c0-.4,0-.8,0-1.208v-.173c0-.408,0-.812,0-1.212l-.349-.035v-.133h1.356v.133l-.325.031c-.011.392-.011.8-.011,1.2h1.054c0-.4,0-.805-.012-1.2l-.329-.031v-.133h1.357v.133Z" fill="#fff"/>
            <path id="Path_8328" data-name="Path 8328" d="M1492.674,4457.958v.282h-1.148v-.206c.126-.137.259-.267.371-.384.261-.268.365-.424.365-.662,0-.215-.109-.35-.284-.35a.382.382,0,0,0-.087.009l-.051.227c-.025.155-.1.192-.171.192a.162.162,0,0,1-.149-.1c.02-.265.279-.41.585-.41.363,0,.53.19.53.449,0,.238-.2.446-.632.732-.078.055-.179.135-.284.217Z" fill="#fff"/>
            <path id="Path_8329" data-name="Path 8329" d="M1495.74,4455.469a1.4,1.4,0,1,1-1.388-1.541A1.391,1.391,0,0,1,1495.74,4455.469Zm-1.388,1.4c.478,0,.7-.588.7-1.4s-.22-1.392-.7-1.392-.7.592-.7,1.392S1493.869,4456.865,1494.352,4456.865Z" fill="#fff"/>
          </g>
        </g>
        <g id="Group_1886" data-name="Group 1886">
          <circle id="Ellipse_264" data-name="Ellipse 264" cx="7.907" cy="7.907" r="7.907" transform="translate(1555.413 4514.682)" fill="#a6b0a4"/>
          <g id="Group_1885" data-name="Group 1885">
            <path id="Path_8330" data-name="Path 8330" d="M1562.164,4519.743c-.011.56-.011,1.132-.011,1.7v.242c0,.56,0,1.126.011,1.691l.483.05v.187h-1.9v-.187l.461-.05c.017-.544.017-1.115.017-1.746h-1.478c0,.62,0,1.192.017,1.752l.456.044v.187h-1.9v-.187l.489-.05c.005-.554.005-1.12.005-1.691v-.242c0-.571,0-1.137-.005-1.7l-.489-.05v-.187h1.9v.187l-.456.044c-.017.549-.017,1.115-.017,1.681h1.478c0-.56,0-1.126-.017-1.681l-.461-.044v-.187h1.9v.187Z" fill="#fff"/>
            <path id="Path_8331" data-name="Path 8331" d="M1564.7,4525.053v.394h-1.6v-.289c.176-.192.361-.374.518-.538.366-.375.51-.593.51-.926,0-.3-.15-.49-.4-.49a.6.6,0,0,0-.122.012l-.071.318c-.035.217-.14.269-.24.269a.225.225,0,0,1-.208-.135c.028-.371.391-.573.82-.573.506,0,.741.266.741.628,0,.333-.273.625-.885,1.025-.109.077-.25.19-.4.305Z" fill="#fff"/>
            <path id="Path_8332" data-name="Path 8332" d="M1569,4521.561a1.958,1.958,0,1,1-1.944-2.159A1.948,1.948,0,0,1,1569,4521.561Zm-1.944,1.956c.67,0,.977-.824.977-1.956s-.307-1.95-.977-1.95-.979.83-.979,1.95S1566.381,4523.517,1567.057,4523.517Z" fill="#fff"/>
          </g>
        </g>
      </g>
      <g id="Group_1923" data-name="Group 1923">
        <g id="Group_1905" data-name="Group 1905">
          <g id="Group_1888" data-name="Group 1888">
            <path id="Path_8333" data-name="Path 8333" d="M1547.317,4270.637c-.578,33.035-50.959,33.03-51.532,0C1496.363,4237.6,1546.743,4237.608,1547.317,4270.637Z" fill="#a6b0a4"/>
          </g>
          <g id="Group_1891" data-name="Group 1891">
            <g id="Group_1889" data-name="Group 1889">
              <circle id="Ellipse_265" data-name="Ellipse 265" cx="8.743" cy="8.743" r="8.743" transform="translate(1513.586 4261.409)" fill="#fff"/>
            </g>
            <g id="Group_1890" data-name="Group 1890">
              <path id="Path_8334" data-name="Path 8334" d="M1528.816,4266.515a2.629,2.629,0,0,1-2.65.376,2.886,2.886,0,0,1-1.755-3.9,7.433,7.433,0,1,0,4.405,3.52Z" fill="#a6b0a4"/>
            </g>
          </g>
          <g id="Group_1900" data-name="Group 1900">
            <g id="Group_1892" data-name="Group 1892">
              <path id="Path_8335" data-name="Path 8335" d="M1513.371,4271.38a.446.446,0,0,1-.157-.027.459.459,0,0,1-.3-.393c-.024-.274-.042-.551-.042-.832a9.35,9.35,0,0,1,1.017-4.249.435.435,0,0,1,.419-.252.462.462,0,0,1,.41.269c.4.879.854,1.79,1.35,2.707a.46.46,0,0,1-.109.571c-.806.677-1.567,1.374-2.262,2.071A.46.46,0,0,1,1513.371,4271.38Zm.944-4.18a8.376,8.376,0,0,0-.52,2.668c.413-.389.844-.775,1.288-1.156C1514.814,4268.2,1514.556,4267.7,1514.315,4267.2Z" fill="#585757"/>
            </g>
            <g id="Group_1893" data-name="Group 1893">
              <path id="Path_8336" data-name="Path 8336" d="M1530.546,4284.736c-1.92,0-4.761-1.881-7.948-5.332a.459.459,0,0,1,.306-.77,8.558,8.558,0,0,0,7.038-4.67.468.468,0,0,1,.42-.253.461.461,0,0,1,.409.27c2.423,5.332,2.806,9.222,1.022,10.406A2.214,2.214,0,0,1,1530.546,4284.736Zm-6.648-5.295c3.236,3.333,6.157,4.994,7.387,4.181s.829-4.157-.985-8.43A9.5,9.5,0,0,1,1523.9,4279.441Z" fill="#585757"/>
            </g>
            <g id="Group_1894" data-name="Group 1894">
              <path id="Path_8337" data-name="Path 8337" d="M1514.3,4266.546h-.009a.459.459,0,0,1-.409-.269c-2.423-5.333-2.806-9.224-1.022-10.407s5.222.68,9.2,4.984a.455.455,0,0,1,.09.481.46.46,0,0,1-.4.289,8.559,8.559,0,0,0-7.038,4.67A.46.46,0,0,1,1514.3,4266.546Zm-.167-10.116a1.355,1.355,0,0,0-.765.206c-1.234.82-.829,4.156.985,8.429a9.5,9.5,0,0,1,6.4-4.248C1518.067,4258.05,1515.6,4256.43,1514.132,4256.43Z" fill="#585757"/>
            </g>
            <g id="Group_1895" data-name="Group 1895">
              <path id="Path_8338" data-name="Path 8338" d="M1515.664,4269.282a.5.5,0,0,1-.086-.008.456.456,0,0,1-.318-.233c-.506-.936-.97-1.866-1.379-2.764a.463.463,0,0,1,.008-.4,9.483,9.483,0,0,1,7.8-5.172l.119-.009a9.291,9.291,0,0,1,4.944,1.078.461.461,0,0,1-.043.833c-.914.368-1.852.8-2.79,1.281a43.6,43.6,0,0,0-7.958,5.284A.457.457,0,0,1,1515.664,4269.282Zm-.853-3.183c.3.657.636,1.331.994,2.011,1.1-.9,2.272-1.761,3.479-2.563a44,44,0,0,1,4.213-2.474c.634-.325,1.269-.63,1.9-.907a8.256,8.256,0,0,0-3.522-.551l-.123.009A8.562,8.562,0,0,0,1514.811,4266.1Z" fill="#585757"/>
            </g>
            <g id="Group_1896" data-name="Group 1896">
              <path id="Path_8339" data-name="Path 8339" d="M1512.3,4279.957a3.334,3.334,0,0,1-2.963-1.2c-1.121-1.688.231-4.662,3.71-8.157a.459.459,0,0,1,.783.284,8.5,8.5,0,0,0,4.5,6.789.46.46,0,0,1-.043.832A16.924,16.924,0,0,1,1512.3,4279.957Zm.747-8.036c-2.552,2.747-3.7,5.183-2.945,6.325s3.449,1.026,6.971-.26A9.4,9.4,0,0,1,1513.046,4271.921Z" fill="#585757"/>
            </g>
            <g id="Group_1897" data-name="Group 1897">
              <path id="Path_8340" data-name="Path 8340" d="M1531.281,4269.8a.447.447,0,0,1-.157-.028.458.458,0,0,1-.3-.391,8.5,8.5,0,0,0-4.5-6.789.46.46,0,0,1,.043-.832c4.569-1.849,7.833-1.941,8.954-.252s-.231,4.661-3.71,8.157A.459.459,0,0,1,1531.281,4269.8Zm-3.7-7.524a9.4,9.4,0,0,1,4.026,6.065c2.552-2.749,3.7-5.185,2.944-6.325S1531.1,4260.986,1527.58,4262.272Z" fill="#585757"/>
            </g>
            <g id="Group_1898" data-name="Group 1898">
              <path id="Path_8341" data-name="Path 8341" d="M1522.326,4279.583a9.455,9.455,0,0,1-9.412-8.622.456.456,0,0,1,.132-.364c.714-.717,1.5-1.433,2.322-2.126a.451.451,0,0,1,.382-.1.461.461,0,0,1,.318.232c.74,1.367,1.561,2.734,2.442,4.059s1.825,2.619,2.793,3.826h0c.653.813,1.315,1.584,1.969,2.293a.459.459,0,0,1-.306.77l-.106.007C1522.682,4279.571,1522.506,4279.583,1522.326,4279.583Zm-8.475-8.491a8.532,8.532,0,0,0,8.071,7.562c-.446-.508-.893-1.04-1.335-1.59h0c-.986-1.228-1.942-2.538-2.843-3.894-.789-1.187-1.531-2.407-2.212-3.632C1514.941,4270.049,1514.378,4270.57,1513.851,4271.092Z" fill="#585757"/>
            </g>
            <g id="Group_1899" data-name="Group 1899">
              <path id="Path_8342" data-name="Path 8342" d="M1522.935,4279.552a.457.457,0,0,1-.337-.148c-.669-.724-1.346-1.512-2.011-2.34-.986-1.228-1.942-2.538-2.843-3.894s-1.731-2.737-2.484-4.129a.459.459,0,0,1,.108-.57,44.244,44.244,0,0,1,8.129-5.4c.962-.494,1.926-.938,2.865-1.317a.463.463,0,0,1,.388.02,9.417,9.417,0,0,1,4.988,7.52h0c.024.275.042.55.042.831a9.345,9.345,0,0,1-1.017,4.25,9.482,9.482,0,0,1-7.8,5.173Zm-6.687-10.617c.693,1.255,1.452,2.508,2.262,3.727.885,1.332,1.825,2.619,2.793,3.826.6.75,1.214,1.465,1.819,2.129a8.564,8.564,0,0,0,6.82-4.653,8.432,8.432,0,0,0,.919-3.836c0-.254-.017-.5-.038-.752a8.5,8.5,0,0,0-4.317-6.686c-.85.351-1.72.754-2.589,1.2a43.56,43.56,0,0,0-7.669,5.045Z" fill="#585757"/>
            </g>
          </g>
          <g id="Group_1901" data-name="Group 1901">
            <path id="Path_8343" data-name="Path 8343" d="M1469.979,4279.756l-.561-5.638a.391.391,0,0,1,.427-.427l6.294.6a.39.39,0,0,0,.426-.427l-.315-3.229a.391.391,0,0,1,.456-.423l11.823,2.038-6.44,1.164a.391.391,0,0,0-.321.367l-.173,3.762a.39.39,0,0,1-.328.368l-9.6,1.535" fill="#a6b0a4"/>
          </g>
          <g id="Group_1902" data-name="Group 1902">
            <path id="Path_8344" data-name="Path 8344" d="M1507.892,4319.725l-3.948-2.37a.319.319,0,0,1-.058-.5l4.065-3.972a.319.319,0,0,0-.1-.521l-2.8-1.219a.319.319,0,0,1-.093-.524l7.06-6.714-2.379,4.79a.321.321,0,0,0,.084.39l2.382,1.948a.319.319,0,0,1,.081.4l-3.678,7.045" fill="#a6b0a4"/>
          </g>
          <g id="Group_1903" data-name="Group 1903">
            <path id="Path_8345" data-name="Path 8345" d="M1567.475,4283.4l-.649,2.977a.259.259,0,0,1-.372.176l-3.3-1.681a.26.26,0,0,0-.377.21l-.163,1.915a.261.261,0,0,1-.381.209l-5.754-3.027,3.539.48a.259.259,0,0,0,.278-.167l.7-1.875a.261.261,0,0,1,.284-.166l5.258.822" fill="#a6b0a4"/>
          </g>
          <g id="Group_1904" data-name="Group 1904">
            <path id="Path_8346" data-name="Path 8346" d="M1542.1,4227.336l3.683,3.072a.26.26,0,0,1-.015.412l-4.883,3.481a.26.26,0,0,0,.012.432l2.8,1.778a.26.26,0,0,1,.009.434l-7.06,4.892a.261.261,0,0,1-.361-.365l2.336-3.306a.261.261,0,0,0-.019-.324l-2.172-2.423a.262.262,0,0,1-.016-.329l4.857-6.584" fill="#a6b0a4"/>
          </g>
        </g>
        <g id="Group_1908" data-name="Group 1908">
          <g id="Group_1907" data-name="Group 1907">
            <g id="Group_1906" data-name="Group 1906">
              <path id="Path_8347" data-name="Path 8347" d="M1550.332,4270.637c-.646,36.9-56.921,36.894-57.562,0C1493.416,4233.738,1549.691,4233.743,1550.332,4270.637Z" fill="none" stroke="#5f7563" stroke-miterlimit="10" stroke-width="0.804" stroke-dasharray="14.873 14.873"/>
            </g>
          </g>
        </g>
        <g id="Group_1911" data-name="Group 1911">
          <g id="Group_1910" data-name="Group 1910">
            <g id="Group_1909" data-name="Group 1909">
              <path id="Path_8348" data-name="Path 8348" d="M1553.415,4270.637c-.716,40.852-63.019,40.846-63.728,0C1490.4,4229.785,1552.7,4229.792,1553.415,4270.637Z" fill="none" stroke="#5f7563" stroke-miterlimit="10" stroke-width="0.89" stroke-dasharray="16.466 16.466"/>
            </g>
          </g>
        </g>
        <g id="Group_1914" data-name="Group 1914">
          <g id="Group_1913" data-name="Group 1913">
            <g id="Group_1912" data-name="Group 1912">
              <path id="Path_8349" data-name="Path 8349" d="M1556.475,4270.637c-.784,44.777-69.071,44.769-69.849,0C1487.41,4225.861,1555.7,4225.868,1556.475,4270.637Z" fill="none" stroke="#5f7563" stroke-miterlimit="10" stroke-width="0.976" stroke-dasharray="18.047 18.047"/>
            </g>
          </g>
        </g>
        <g id="Group_1916" data-name="Group 1916">
          <circle id="Ellipse_266" data-name="Ellipse 266" cx="8.073" cy="8.073" r="8.073" transform="translate(1551.329 4228.985)" fill="#a6b0a4"/>
          <g id="Group_1915" data-name="Group 1915">
            <path id="Path_8350" data-name="Path 8350" d="M1558.228,4234.147c-.012.573-.012,1.157-.012,1.741v.247c0,.573,0,1.151.012,1.73l.494.05v.191h-1.944v-.191l.472-.05c.018-.556.018-1.14.018-1.786h-1.511c0,.634,0,1.218.016,1.791l.466.045v.191H1554.3v-.191l.5-.05c.005-.568.005-1.146.005-1.73v-.247c0-.584,0-1.162-.005-1.735l-.5-.051v-.19h1.942v.19l-.466.045c-.016.561-.016,1.14-.016,1.719h1.511c0-.574,0-1.152-.018-1.719l-.472-.045v-.19h1.944v.19Z" fill="#fff"/>
            <path id="Path_8351" data-name="Path 8351" d="M1560.815,4239.572v.4h-1.643v-.3c.181-.2.371-.384.531-.551.374-.384.523-.607.523-.948,0-.308-.155-.5-.408-.5a.632.632,0,0,0-.125.013l-.072.325c-.036.223-.143.275-.246.275a.229.229,0,0,1-.213-.137c.029-.381.4-.588.84-.588.519,0,.758.273.758.643,0,.342-.279.64-.906,1.05-.111.079-.255.194-.407.312Z" fill="#fff"/>
            <path id="Path_8352" data-name="Path 8352" d="M1565.208,4236.006a2,2,0,1,1-1.987-2.207A1.991,1.991,0,0,1,1565.208,4236.006Zm-1.987,2c.684,0,1-.842,1-2s-.315-1.994-1-1.994-1,.848-1,1.994S1562.529,4238,1563.221,4238Z" fill="#fff"/>
          </g>
        </g>
        <g id="Group_1918" data-name="Group 1918">
          <circle id="Ellipse_267" data-name="Ellipse 267" cx="6.361" cy="6.361" r="6.361" transform="translate(1473.973 4288.627)" fill="#a6b0a4"/>
          <g id="Group_1917" data-name="Group 1917">
            <path id="Path_8353" data-name="Path 8353" d="M1479.409,4292.695c-.009.451-.009.911-.009,1.371v.2c0,.451,0,.907.009,1.363l.389.04v.15h-1.53v-.15l.371-.04c.013-.438.013-.9.013-1.407h-1.19c0,.5,0,.96.013,1.411l.368.036v.15h-1.531v-.15l.393-.04c.005-.447.005-.9.005-1.363v-.2c0-.46,0-.916-.005-1.367l-.393-.04v-.15h1.531v.15l-.368.036c-.013.442-.013.9-.013,1.354h1.19c0-.451,0-.907-.013-1.354l-.371-.036v-.15h1.53v.15Z" fill="#fff"/>
            <path id="Path_8354" data-name="Path 8354" d="M1481.445,4296.97v.318h-1.292v-.232c.142-.155.291-.3.418-.434.294-.3.409-.477.409-.745,0-.242-.121-.4-.319-.4a.412.412,0,0,0-.1.011l-.056.255c-.028.175-.114.217-.194.217a.181.181,0,0,1-.167-.109c.023-.3.314-.461.66-.461.407,0,.595.214.595.5,0,.268-.219.5-.712.826-.087.061-.2.151-.319.244Z" fill="#fff"/>
            <path id="Path_8355" data-name="Path 8355" d="M1484.908,4294.16a1.577,1.577,0,1,1-1.566-1.74A1.568,1.568,0,0,1,1484.908,4294.16Zm-1.566,1.575c.54,0,.788-.664.788-1.575s-.248-1.572-.788-1.572-.787.669-.787,1.572S1482.8,4295.735,1483.342,4295.735Z" fill="#fff"/>
          </g>
        </g>
        <g id="Group_1920" data-name="Group 1920">
          <circle id="Ellipse_268" data-name="Ellipse 268" cx="5.631" cy="5.631" r="5.631" transform="translate(1478.426 4232.583)" fill="#a6b0a4"/>
          <g id="Group_1919" data-name="Group 1919">
            <path id="Path_8356" data-name="Path 8356" d="M1483.241,4236.18c-.008.4-.008.808-.008,1.216v.172c0,.4,0,.8.008,1.208l.345.036v.133h-1.357v-.133l.33-.036c.011-.388.011-.8.011-1.247h-1.054c0,.443,0,.851.011,1.251l.326.032v.133H1480.5v-.133l.349-.036c0-.4,0-.8,0-1.208v-.172c0-.408,0-.812,0-1.212l-.349-.035v-.133h1.357v.133l-.326.031c-.011.392-.011.8-.011,1.2h1.054c0-.4,0-.8-.011-1.2l-.33-.031v-.133h1.357v.133Z" fill="#fff"/>
            <path id="Path_8357" data-name="Path 8357" d="M1485.043,4239.967v.282H1483.9v-.206c.126-.137.259-.268.372-.384.26-.268.364-.424.364-.662,0-.215-.109-.35-.284-.35a.382.382,0,0,0-.087.009l-.051.227c-.024.155-.1.192-.171.192a.161.161,0,0,1-.149-.1c.02-.266.279-.41.586-.41.362,0,.529.19.529.449,0,.238-.195.446-.632.732-.078.055-.179.135-.284.217Z" fill="#fff"/>
            <path id="Path_8358" data-name="Path 8358" d="M1488.11,4237.478a1.4,1.4,0,1,1-1.388-1.541A1.39,1.39,0,0,1,1488.11,4237.478Zm-1.388,1.4c.478,0,.7-.588.7-1.4s-.22-1.392-.7-1.392-.7.592-.7,1.392S1486.239,4238.874,1486.722,4238.874Z" fill="#fff"/>
          </g>
        </g>
        <g id="Group_1922" data-name="Group 1922">
          <circle id="Ellipse_269" data-name="Ellipse 269" cx="7.907" cy="7.907" r="7.907" transform="translate(1547.784 4296.691)" fill="#a6b0a4"/>
          <g id="Group_1921" data-name="Group 1921">
            <path id="Path_8359" data-name="Path 8359" d="M1554.534,4301.752c-.011.561-.011,1.132-.011,1.7v.242c0,.56,0,1.126.011,1.692l.484.049v.187h-1.9v-.187l.461-.049c.017-.544.017-1.115.017-1.747h-1.478c0,.621,0,1.192.017,1.752l.456.044v.187h-1.9v-.187l.489-.049c.006-.555.006-1.121.006-1.692v-.242c0-.571,0-1.137-.006-1.7l-.489-.05v-.187h1.9v.187l-.456.044c-.017.55-.017,1.116-.017,1.681h1.478c0-.56,0-1.126-.017-1.681l-.461-.044v-.187h1.9v.187Z" fill="#fff"/>
            <path id="Path_8360" data-name="Path 8360" d="M1557.07,4307.062v.394h-1.6v-.289c.176-.191.361-.374.518-.538.366-.375.51-.592.51-.926,0-.3-.15-.49-.4-.49a.515.515,0,0,0-.122.013l-.071.317c-.035.218-.14.269-.24.269a.224.224,0,0,1-.208-.134c.028-.372.391-.574.82-.574.506,0,.741.266.741.628,0,.333-.273.625-.885,1.025-.109.077-.25.19-.4.305Z" fill="#fff"/>
            <path id="Path_8361" data-name="Path 8361" d="M1561.371,4303.571a1.957,1.957,0,1,1-1.944-2.159A1.948,1.948,0,0,1,1561.371,4303.571Zm-1.944,1.955c.67,0,.977-.824.977-1.955s-.307-1.95-.977-1.95-.978.829-.978,1.95S1558.751,4305.526,1559.427,4305.526Z" fill="#fff"/>
          </g>
        </g>
      </g>
    </g>
  </g>
</svg>
