<svg xmlns="http://www.w3.org/2000/svg" width="970.376" height="293.207" viewBox="0 0 970.376 293.207">
  <g id="Group_1708" data-name="Group 1708" transform="translate(-594.836 -3459.632)">
    <rect id="Rectangle_3270" data-name="Rectangle 3270" width="143.965" height="38.104" rx="19.052" transform="translate(594.836 3616.612)" fill="#5f7563"/>
    <g id="Group_1709" data-name="Group 1709">
      <path id="Path_8063" data-name="Path 8063" d="M634.206,3508.685l15.061-12.233,19.062-4.471,17.415,8.352,10.441,19.652-8.419,19.873-32.594,10.182-18.763-16.958Z" fill="none" stroke="#5f7563" stroke-linecap="round" stroke-linejoin="round" stroke-width="2.066"/>
      <path id="Path_8064" data-name="Path 8064" d="M634.206,3508.685l23.79,17.26,38.189-5.959" fill="none" stroke="#5f7563" stroke-linecap="round" stroke-linejoin="round" stroke-width="2.066"/>
      <line id="Line_318" data-name="Line 318" y1="24.095" x2="2.824" transform="translate(655.172 3525.944)" fill="none" stroke="#5f7563" stroke-linecap="round" stroke-linejoin="round" stroke-width="2.066"/>
      <line id="Line_319" data-name="Line 319" x2="30.774" y2="5.344" transform="translate(656.991 3534.514)" fill="none" stroke="#5f7563" stroke-linecap="round" stroke-linejoin="round" stroke-width="2.066"/>
      <path id="Path_8065" data-name="Path 8065" d="M663.8,3522.043l27.186-4.728-1.285-2.4a39.942,39.942,0,0,0-18.556-17.466h0S680.344,3512.765,663.8,3522.043Z" fill="#a6b0a4"/>
      <g id="Group_1708-2" data-name="Group 1708">
        <path id="Path_8066" data-name="Path 8066" d="M648.4,3502.266l-8,6.419,17.445,11.949C658.3,3517.056,658.033,3508.909,648.4,3502.266Z" fill="#a6b0a4"/>
        <path id="Path_8067" data-name="Path 8067" d="M668.117,3496.583l-17.476,3.884s12.537,10.141,9.253,21.576C678.857,3511.039,668.117,3496.583,668.117,3496.583Z" fill="#a6b0a4"/>
      </g>
    </g>
    <g id="Group_1711" data-name="Group 1711">
      <g id="Group_1710" data-name="Group 1710">
        <path id="Path_8068" data-name="Path 8068" d="M639.557,3701.167s1.138.841,1.847,1.468c-.05.182-.215.264-.462.264h-6.515v2.639c0,.1-.511.4-1.336.4h-.281V3702.9h-6.746l-.148-.478h6.894v-1.633h-2.936v.4c0,.149-.692.5-1.319.5h-.231v-6.434a2.191,2.191,0,0,1-.561.083h-.214v-4.4l1.55.643h2.227l.726-.792,1.583,1.172a1.289,1.289,0,0,1-.66.313v2.359a2.1,2.1,0,0,1-1.237.412h-.247v-.594h-2.458v.429c0,.083-.215.214-.528.33l1.5.611H637.2l.792-.825,1.616,1.237a1.366,1.366,0,0,1-.66.3v4.437a2.2,2.2,0,0,1-1.319.478h-.264v-.643h-2.936v1.633h4.124Zm-10.524-9.138v1.946h2.458v-1.946Zm.841,4.256v1.748h2.936v-1.748Zm2.936,4.024v-1.8h-2.936v1.8Zm3.084-5.591c0,.131-.675.462-1.3.462h-.215v-4.272l1.6.659h2.21l.71-.808,1.617,1.188a1.452,1.452,0,0,1-.677.33v2.375a2.154,2.154,0,0,1-1.253.428h-.248v-.643h-2.442Zm-1.467,1.567v1.748h2.936v-1.748Zm2.936,4.024v-1.8h-2.936v1.8Zm-1.469-8.28v1.946h2.442v-1.946Z" fill="#5f7563"/>
        <path id="Path_8069" data-name="Path 8069" d="M654.473,3697.5l1.22-1.666s1.386,1.155,2.227,1.947c-.049.2-.247.264-.511.264h-14.6l-.165-.545Z" fill="#5f7563"/>
        <path id="Path_8070" data-name="Path 8070" d="M664.111,3704a1.872,1.872,0,0,1-1.089.38h-.214v-1.039h-1.352v1.418a1.193,1.193,0,0,1-1.039.412h-.232v-6.02c-.3.495-.61.957-.939,1.419l-.231-.182a31.9,31.9,0,0,0,2.078-7.736h-1.847l-.116-.478h3.48l.842-1.073s.956.743,1.533,1.287c-.032.182-.2.264-.445.264h-1.963a19.764,19.764,0,0,1-1.27,4.206l.363.149h.99l.66-.71,1.418,1.089a1.227,1.227,0,0,1-.627.3Zm-1.3-1.138v-5.377h-1.352v5.377Zm3.58-5.459c0,2.869-.182,6.334-2.919,8.659l-.232-.165c1.633-2.391,1.781-5.476,1.781-8.494v-5.559l1.6.626h5.756l.792-.989s.874.693,1.435,1.2c-.049.181-.2.264-.428.264h-7.786Zm-1.254,8.23a10.084,10.084,0,0,0,3.464-2.523l1.715,1.022c-.115.165-.379.214-.824.132a12.816,12.816,0,0,1-4.256,1.6Zm8.181-9.237a12.914,12.914,0,0,1,1.188,1.023c-.032.181-.165.264-.4.264h-7.488l-.133-.462h6.2Zm-2.473.412v-.346h-1.634v.149c0,.1-.527.3-.94.3H668v-1.881H666.9l-.115-.478H668v-1.3l1.7.164c-.017.2-.148.347-.495.4v.743h1.634v-1.32l1.7.181c-.017.2-.149.347-.511.4v.743h.412l.66-.825a15.025,15.025,0,0,1,1.221,1.039.375.375,0,0,1-.413.264h-1.88v1.5c0,.1-.512.28-.94.28Zm1.3,6.4v-.363h-3.959v.3c0,.116-.527.4-1.039.4h-.181v-5.608l1.32.578H672l.644-.71,1.4,1.089a1.3,1.3,0,0,1-.61.3v3.645a1.749,1.749,0,0,1-1.072.379Zm-3.959-4.222v1.353h1.4v-1.353Zm0,3.381h1.4v-1.55h-1.4Zm.644-11.925c3.365.263,2.111,2.7.809,1.831a4.036,4.036,0,0,0-.974-1.716Zm2.013,5.542v-.957h-1.634v.957Zm-.133,7.34c5.79.66,3.431,3.3,2.326,2.128a5.537,5.537,0,0,0-2.425-1.9Zm.066-4.338v1.353h1.369v-1.353Zm1.369,3.381v-1.55h-1.369v1.55Z" fill="#5f7563"/>
        <path id="Path_8071" data-name="Path 8071" d="M691.233,3694.289a1.239,1.239,0,0,1-.725.3c-.214,5.905-.726,9.4-1.7,10.408a2.939,2.939,0,0,1-2.292.841,1.462,1.462,0,0,0-.346-1.121,4.14,4.14,0,0,0-1.781-.627l.016-.264c.824.082,2.095.181,2.507.181a.892.892,0,0,0,.726-.247c.71-.611,1.138-4.206,1.369-9.419h-.544c-.742,4.355-2.689,8.2-6.714,10.623l-.165-.181a15.908,15.908,0,0,0,5.246-10.442h-.759a13.291,13.291,0,0,1-5.163,7.423l-.165-.2a14.362,14.362,0,0,0,3.794-7.225h-.924a9.581,9.581,0,0,1-2.8,3.035l-.213-.165a12.185,12.185,0,0,0,1.419-2.292H680v3.5c.725-.214,1.468-.445,2.226-.676l.067.215c-.611.362-1.369.808-2.293,1.319v6.186c0,.165-.611.462-1.188.462h-.28v-5.839c-.528.3-1.105.593-1.716.907a.7.7,0,0,1-.38.428l-.742-1.83c.562-.116,1.6-.4,2.838-.743v-3.925h-1.2a11.09,11.09,0,0,1-1.386,2.721l-.263-.132a23.168,23.168,0,0,0,.922-5.806l1.931.347v-1.452l2.078.231c-.05.231-.165.4-.61.462v3.15h.247l.792-1.171s.676.644,1.187,1.171a17.918,17.918,0,0,0,1.155-3.843l2.144.643c-.065.215-.263.347-.643.347a13.177,13.177,0,0,1-1.006,2.292h4.948l.875-.923Zm-12.7.148v-2.243a.592.592,0,0,1-.528.264c-.149.676-.314,1.352-.512,1.979Z" fill="#5f7563"/>
        <path id="Path_8072" data-name="Path 8072" d="M695.248,3693.761a3.738,3.738,0,0,1-2.673,3.25l-.148-.231a4.212,4.212,0,0,0,1.435-3.563V3691.3l1.65.512a26.731,26.731,0,0,0,3.035-1.2l1.352,1.336c-.181.148-.495.132-.89-.034a33.68,33.68,0,0,1-3.729.4v.974h2.937l.775-.957s.891.676,1.418,1.171c-.032.182-.2.264-.429.264H698.2v2.128a1.614,1.614,0,0,1-1.187.346h-.248v-2.474Zm-2.508,11.909a17.236,17.236,0,0,0,5.443-2.556l1.733,1.27c-.149.165-.445.2-.891.066a21.578,21.578,0,0,1-6.2,1.468Zm13.246-13.41s.94.709,1.5,1.237c-.033.182-.2.264-.43.264H704.9v2.095a1.313,1.313,0,0,1-.742.313l1.336,1.007a1.119,1.119,0,0,1-.61.3V3703a2.316,2.316,0,0,1-1.3.413h-.264v-.677h-6.449v.5a1.807,1.807,0,0,1-1.319.5H695.3V3696.1l1.666.677h6.185l.545-.578h-.264v-2.441h-1.5c-.164.94-.775,2.062-2.771,2.738l-.148-.214a3.594,3.594,0,0,0,1.566-3.25v-1.765l1.534.462a28.547,28.547,0,0,0,3.184-1.121l1.352,1.368c-.181.149-.495.133-.89-.049-.957.132-2.408.28-3.761.347v1.006h3.167Zm-9.122,5v1.336h6.449v-1.336Zm0,1.8v1.353h6.449v-1.353Zm6.449,3.2v-1.369h-6.449v1.369Zm-2.441,1.254c8.545.247,5.757,3.265,4.19,2.16a12.278,12.278,0,0,0-4.255-1.929Z" fill="#5f7563"/>
      </g>
    </g>
    <g id="Group_1713" data-name="Group 1713">
      <g id="Group_1712" data-name="Group 1712">
        <path id="Path_8073" data-name="Path 8073" d="M639.07,3737.549s1.023.791,1.666,1.369c-.05.181-.215.264-.462.264h-11.76v3.694c0,3.019-.149,7.159-2.954,9.963l-.213-.148c1.549-2.9,1.666-6.549,1.666-9.8v-4.965l1.764.776h9.4Zm-6.1,11.117c-.1.165-.247.264-.627.2a11.017,11.017,0,0,1-4.553,3.332l-.132-.2a11.422,11.422,0,0,0,3.365-4.289Zm2.259-1.9v4.107c0,1.106-.28,1.815-2.176,1.963a1.771,1.771,0,0,0-.347-1.072,2.647,2.647,0,0,0-1.484-.528v-.214s1.714.116,2.094.116c.281,0,.363-.083.363-.3v-4.075H631.6v.413c0,.148-.66.5-1.287.5h-.248v-6.829l1.618.676h1.335c.132-.611.264-1.5.346-2.293l2.1.512a.6.6,0,0,1-.61.379,10.655,10.655,0,0,1-1.3,1.4h3.547l.775-.841,1.616,1.253a1.272,1.272,0,0,1-.693.347v4.651a2.2,2.2,0,0,1-1.286.446h-.247v-.611ZM631.6,3742v1.847h5.658V3742Zm5.658,4.289v-1.963H631.6v1.963Zm-1.039,1.781c5.294,1.337,4.321,4.751,2.622,3.728a10.206,10.206,0,0,0-2.787-3.579Z" fill="#1a1a1a"/>
        <path id="Path_8074" data-name="Path 8074" d="M655.355,3743.52s1.188.907,1.913,1.55c-.033.182-.214.264-.461.264h-6.268v5.394c0,1.187-.314,1.9-2.573,2.095a1.52,1.52,0,0,0-.562-1.138,4.061,4.061,0,0,0-1.963-.61v-.248s2.525.165,3,.165c.347,0,.446-.1.446-.379v-5.279h-6.647l-.148-.478h6.795v-2.821l1.369.132a22.086,22.086,0,0,0,2.821-2.689h-9.155l-.149-.478h9.5l1.007-.94,1.649,1.468a1.01,1.01,0,0,1-.709.2,28.745,28.745,0,0,1-4.4,2.491l.28.033c-.033.247-.2.379-.56.445v2.161H654.3Z" fill="#1a1a1a"/>
        <path id="Path_8075" data-name="Path 8075" d="M672.944,3741.64a16.714,16.714,0,0,1-2,6.8,9.662,9.662,0,0,0,3.2,3.068l-.049.149a1.611,1.611,0,0,0-1.353,1.171,9.724,9.724,0,0,1-2.557-3.3,11.367,11.367,0,0,1-4.239,3.3l-.148-.182a12.077,12.077,0,0,0,3.877-4.4,22.38,22.38,0,0,1-1.122-4.981,11.75,11.75,0,0,1-1.4,2.045l-.247-.132a22.627,22.627,0,0,0,1.3-4.14.416.416,0,0,1-.362.149h-1.5v1.6a1.821,1.821,0,0,1-1.106.4h-.215v-.363H663.69v1.089h1.419l.627-.643,1.336.989a.914.914,0,0,1-.512.248v1.864a1.922,1.922,0,0,1-1.088.379h-.231v-.462h-4.519v.182c0,.1-.413.4-1.073.4h-.215v-3.563l1.486.61h1.418v-1.089h-1.369v.034a1.269,1.269,0,0,1-1.073.4h-.23v-2.062H658.66l-.133-.479h1.139v-2.243l1.5.61h1.171v-1.583l1.963.2c-.049.231-.2.4-.611.461v.924h1.188l.643-.676,1.369,1.039a1.042,1.042,0,0,1-.543.264v1.006h.115l.66-.841a14.953,14.953,0,0,1,1.121,1.039,28.552,28.552,0,0,0,.528-3.365l2.177.479c-.05.231-.23.379-.61.4a25.777,25.777,0,0,1-.808,2.754h2.012l.874-1.171s1.023.808,1.634,1.385c-.05.182-.215.265-.446.265Zm-5.427,6.366c-.577.083-1.22.165-1.913.264a5.043,5.043,0,0,1-1.055,1.9c2.507.841,1.715,2.309.659,2.013a12.04,12.04,0,0,0-1.88-.99,12.257,12.257,0,0,1-4.487,1.551l-.1-.248a10.061,10.061,0,0,0,3.761-1.649,17.959,17.959,0,0,0-2.755-.875c.165-.264.347-.66.561-1.088l-.676.082a.682.682,0,0,1-.479.33l-.429-1.518c.5.017,1.221.017,2.079.017.248-.594.461-1.138.561-1.468l1.946.33c-.066.2-.2.379-.693.4-.1.214-.2.462-.3.725l2.128-.016a7.54,7.54,0,0,0,.132-1.039l1.831.429c-.065.231-.28.363-.627.346l-.049.248,1.781-.034Zm-6.8-2.21h1.616v-1.419h-1.616Zm.247-5.1h1.369v-1.155h-1.369Zm1.369,1.633v-1.154h-1.369v1.154Zm-.479,6.384c-.148.329-.329.643-.462.956a13.548,13.548,0,0,1,2.079.231,4.506,4.506,0,0,0,.776-1.468C663.542,3748.518,662.734,3748.617,661.859,3748.716Zm1.831-9.172v1.155h1.336v-1.155Zm1.336,1.634H663.69v1.154h1.336Zm-1.336,3.2v1.419h1.551v-1.419Zm5.642-2.737c-.149.379-.314.725-.479,1.071a17.156,17.156,0,0,0,1.336,4.339,18.215,18.215,0,0,0,1.106-5.41Z" fill="#1a1a1a"/>
        <path id="Path_8076" data-name="Path 8076" d="M688.7,3750.794s1.072.825,1.716,1.418c-.05.182-.215.264-.462.264H675.473l-.149-.478h6.681v-1.4H676.71l-.132-.462h5.427v-1.27h-2.623v.33c0,.149-.709.495-1.336.495h-.231v-5.476l1.682.692h6.549l.792-.874,1.682,1.287a1.36,1.36,0,0,1-.726.363v3.249c0,.017-.049.049-.115.1.115.083,1.022.792,1.6,1.3-.05.182-.215.264-.445.264h-5.312v1.4h4.24Zm-13.145-6.961-.133-.478h12.339l.89-1.1s1.006.759,1.6,1.319c-.033.182-.214.264-.429.264Zm3.991-1.27c0,.132-.693.478-1.336.478H678v-5.229l1.649.677h6.219l.759-.841,1.649,1.237a1.162,1.162,0,0,1-.675.346v3.2a2.41,2.41,0,0,1-1.321.4h-.247v-.544h-6.482Zm-.165,2.821v1.253h2.623v-1.253Zm2.623,3v-1.27h-2.623v1.27Zm-2.458-9.435v1.171h6.482v-1.171Zm6.482,2.854v-1.221h-6.482v1.221Zm-2.507,3.579v1.253h2.689v-1.253Zm2.689,1.732h-2.689v1.27h2.689Zm-2.689,3.018h3.266l.857-1.089a3.468,3.468,0,0,1-1.171.281h-.263v-.462h-2.689Z" fill="#1a1a1a"/>
        <path id="Path_8077" data-name="Path 8077" d="M695.27,3740.5a1.279,1.279,0,1,1-1.269,1.287A1.278,1.278,0,0,1,695.27,3740.5Zm0,7.786a1.277,1.277,0,0,1,1.287,1.287,1.278,1.278,0,1,1-1.287-1.287Z" fill="#1a1a1a"/>
        <path id="Path_8078" data-name="Path 8078" d="M707.7,3750.893v.528h-6.829v-.528l2.54-.33c.017-.989.033-2,.033-2.969v-6.713l-2.309.247v-.627l3.892-.957.232.182-.05,2.606v5.262c0,.973.017,1.963.033,2.969Z" fill="#1a1a1a"/>
      </g>
    </g>
    <g id="Group_1714" data-name="Group 1714">
      <path id="Path_8079" data-name="Path 8079" d="M659.445,3629.916a21.537,21.537,0,0,1-1.909,8.178,10.127,10.127,0,0,0,3.346,3.288l-.078.2a2.773,2.773,0,0,0-2.146,2.273,9.952,9.952,0,0,1-2.283-3.9,12.973,12.973,0,0,1-5.02,3.937l-.158-.223a13.512,13.512,0,0,0,4.568-6.027,42.062,42.062,0,0,1-.591-4.526,11.27,11.27,0,0,1-1.063,1.6l-.3-.162c.1-.345.2-.71.3-1.075a.646.646,0,0,1-.374.1h-6.279l-.06-.223c-.058.182-.236.3-.61.385v9.153a2.613,2.613,0,0,1-2.125.933h-.492v-9.416a22,22,0,0,1-1.91,1.725l-.2-.183a38.941,38.941,0,0,0,3.208-7.468l2.264,1.258v-3.267a1.156,1.156,0,0,1-.374,0,20.9,20.9,0,0,1-4.96,3.856l-.177-.2a23.737,23.737,0,0,0,3.051-5.622l2.834,1.7a.456.456,0,0,1-.353.264l2.479.385v-2.09l2.441.244c-.04.223-.158.386-.571.467v5.3h.551v-4.241l2.382.223c-.02.2-.138.365-.512.426v4.12c0,.162-.846.487-1.516.487.276.284.946.913,1.378,1.4a43.176,43.176,0,0,0,1.1-8.565l3.051.548c-.059.264-.276.467-.729.508a36.471,36.471,0,0,1-.866,3.653h.552l1.18-1.522s1.32.994,2.165,1.765c-.058.223-.255.325-.531.325Zm-7.677,3.1.788-1.218h-.1v-.446h-2.952l-.473.629-1.83-.873a1.916,1.916,0,0,1,.334-.386v-.3h-.059c-.492.69-1.083,1.482-1.771,2.293l1.692.63-.1-.325Zm-.984,1.989c-.039.243-.2.446-.649.507v1.4c-.039,2.091-.551,5.114-3.248,6.718l-.2-.183c1.181-1.908,1.3-4.607,1.3-6.576v-2.151Zm-.748-4.222v-3.673a1.031,1.031,0,0,1-.63.244v3.429Zm4.862,7.834c-.453.548-1.417,1.7-2.539,2.841a1.469,1.469,0,0,1-.591.69l-1.279-2.192c.551-.365.63-.548.63-.933v-4.283l2.933.3c-.059.325-.256.548-.807.629v3.349c.512-.2,1.043-.406,1.574-.629Zm1.654-8.706a17.266,17.266,0,0,1-1.024,2.537,17.248,17.248,0,0,0,.866,3.287,27.161,27.161,0,0,0,.728-5.824Z" fill="#fff"/>
      <path id="Path_8080" data-name="Path 8080" d="M683.974,3640.793a1,1,0,0,1,.571,1.056c0,.913-.709,1.481-2.442,1.481h-.767c-1.555,0-1.712-.507-1.712-2.029v-4.932h-.414c-.118,3.613-1.142,5.967-4.743,7.347l-.079-.244a6.767,6.767,0,0,0,1.279-1.339h-6.318v.548c0,.162-.709.71-1.91.71h-.413v-5.906a9.8,9.8,0,0,1-1.162.934l-.256-.162a21.439,21.439,0,0,0,1.93-5.176,2.655,2.655,0,0,1-.866.143h-.316V3628.5l2.008.812h.335l.787-.832,1.614,1.238v-1.238l2.028.832h.295l.788-.832,1.673,1.278a.884.884,0,0,1-.532.264v2.4a2.605,2.605,0,0,1-1.476.487h-.316v-.589h-.688v.2c0,.1-.335.385-.945.507,1.614.548,1.024,1.766.059,1.928h1.043l1.024-1.3s1.141.893,1.87,1.542c-.059.223-.256.325-.532.325h-2.519v1.583h.079l.964-1.238s1.1.852,1.791,1.481c-.059.224-.256.325-.531.325h-2.3v1.644h.079l.964-1.238s1.1.852,1.791,1.482c-.059.223-.256.324-.531.324h-2.3v1.684h.354l1.043-1.359s.985.771,1.713,1.42a8.633,8.633,0,0,0,.846-4.423,2.1,2.1,0,0,1-.354.02h-.453v-10.168h-2.244v.934a3.688,3.688,0,0,1-2.008.507h-.432v-4.059l2.991.264c-.02.223-.138.386-.551.446v1.34h.276l.925-1.36s.532.467,1.043.974v-1.339l2.7,1.035h1.831l1.24-1.461,2.244,1.827a1.137,1.137,0,0,1-.808.425v9.66a2.1,2.1,0,0,1-1.2.548v3.816c0,.223.039.3.2.3h.374c.137,0,.2-.041.294-.223a19.4,19.4,0,0,0,.808-2.435h.217Zm-18.346-14.307h2.323v-2.05l2.972.264c-.039.223-.158.386-.571.446v2.943a3.626,3.626,0,0,1-1.968.487h-.433v-1.522h-2.145Zm2.48,6.21c0,.041-.079.122-.2.2l2.4.872a.707.707,0,0,1-.767.407c-.118.2-.237.405-.355.609l.413.162h1.949a1.529,1.529,0,0,1-.768-.386,3.855,3.855,0,0,0-.394-1.725l.158-.081c.2.02.374.04.551.061v-3.065a.83.83,0,0,1-.511.264v2.476c0,.142-.886.487-1.457.487h-.3v-.67h-.729Zm0-2.821v1.867h.729v-1.867Zm2.5,5.642h-1.259v1.583h1.259Zm0,2.151h-1.259v1.644h1.259Zm-1.259,3.9h1.259v-1.684h-1.259Zm3.523-11.689v1.867h.688v-1.867Zm5.609-3.511v3.024h2.166v-3.024Zm2.166,3.592h-2.166v2.618h2.166Zm-2.166,3.186v2.659h2.166v-2.659Z" fill="#fff"/>
    </g>
    <g id="Group_1727" data-name="Group 1727">
      <rect id="Rectangle_3271" data-name="Rectangle 3271" width="143.965" height="38.104" rx="19.052" transform="translate(1001.963 3616.612)" fill="#5f7563"/>
      <g id="Group_1721" data-name="Group 1721">
        <path id="Path_8081" data-name="Path 8081" d="M1109.451,3504.365l8.943,16.71,11.847-1.8,14.068-8.161-16.289-9.963Z" fill="none" stroke="#5f7563" stroke-linecap="round" stroke-linejoin="round" stroke-width="2.066"/>
        <path id="Path_8082" data-name="Path 8082" d="M1128.02,3501.149l2.221,18.124,5.677,14.229" fill="none" stroke="#5f7563" stroke-linecap="round" stroke-linejoin="round" stroke-width="2.066"/>
        <path id="Path_8083" data-name="Path 8083" d="M1144.309,3511.112l-.74,22.39h-42.944l-2.715-6.213,12.361-21.393" fill="none" stroke="#5f7563" stroke-linecap="round" stroke-linejoin="round" stroke-width="2.066"/>
        <line id="Line_320" data-name="Line 320" x1="17.77" y2="12.427" transform="translate(1100.624 3521.075)" fill="none" stroke="#5f7563" stroke-linecap="round" stroke-linejoin="round" stroke-width="2.066"/>
        <path id="Path_8084" data-name="Path 8084" d="M1043.911,3489.726l-20.721,8.527,17.48,16.086,16-12.979" fill="none" stroke="#5f7563" stroke-linecap="round" stroke-linejoin="round" stroke-width="2.066"/>
        <path id="Path_8085" data-name="Path 8085" d="M1023.19,3498.253l4.822,18.254,12.331,7.544.328-9.712" fill="none" stroke="#5f7563" stroke-linecap="round" stroke-linejoin="round" stroke-width="2.066"/>
        <g id="Group_1716" data-name="Group 1716">
          <path id="Path_8086" data-name="Path 8086" d="M1042.21,3472.476c13.182-10,9.729-8.359,26.352-11.811l13.448,5.905,8.062,13.9-6.5,14.051-25.17,7.2-14.49-11.99Z" fill="none" stroke="#5f7563" stroke-linecap="round" stroke-linejoin="round" stroke-width="2.066"/>
          <path id="Path_8087" data-name="Path 8087" d="M1042.21,3472.476l18.371,12.2,29.491-4.214" fill="none" stroke="#5f7563" stroke-linecap="round" stroke-linejoin="round" stroke-width="2.066"/>
          <path id="Path_8088" data-name="Path 8088" d="M1063.9,3530.121l-29.387,5.99,5.828-12.059,10.622-.943,5.9-5.222,1.536-16.17,2.181-17.037" fill="none" stroke="#5f7563" stroke-linecap="round" stroke-linejoin="round" stroke-width="2.066"/>
          <path id="Path_8089" data-name="Path 8089" d="M1059.806,3490.739l23.765,3.778,25.88,9.848" fill="none" stroke="#5f7563" stroke-linecap="round" stroke-linejoin="round" stroke-width="2.066"/>
          <path id="Path_8090" data-name="Path 8090" d="M1065.065,3481.921l20.994-3.343a30.414,30.414,0,0,0-15.322-14.049S1077.84,3475.361,1065.065,3481.921Z" fill="#a6b0a4"/>
          <g id="Group_1715" data-name="Group 1715">
            <path id="Path_8091" data-name="Path 8091" d="M1053.169,3467.938l-6.182,4.538,13.472,8.449C1060.816,3478.4,1060.61,3472.634,1053.169,3467.938Z" fill="#a6b0a4"/>
            <path id="Path_8092" data-name="Path 8092" d="M1068.4,3463.919l-13.5,2.746s9.682,7.17,7.146,15.256C1076.692,3474.14,1068.4,3463.919,1068.4,3463.919Z" fill="#a6b0a4"/>
          </g>
        </g>
        <path id="Path_8093" data-name="Path 8093" d="M1018.279,3545.869c13.182-10,9.729-8.359,26.352-11.811l13.448,5.906,8.062,13.895-6.5,14.051-25.17,7.2-14.49-11.99Z" fill="none" stroke="#5f7563" stroke-linecap="round" stroke-linejoin="round" stroke-width="2.066"/>
        <path id="Path_8094" data-name="Path 8094" d="M1018.279,3545.869l18.371,12.2,29.491-4.213" fill="none" stroke="#5f7563" stroke-linecap="round" stroke-linejoin="round" stroke-width="2.066"/>
        <line id="Line_321" data-name="Line 321" y1="17.037" x2="2.181" transform="translate(1034.47 3558.073)" fill="none" stroke="#5f7563" stroke-linecap="round" stroke-linejoin="round" stroke-width="2.066"/>
        <line id="Line_322" data-name="Line 322" x2="23.765" y2="3.778" transform="translate(1035.875 3564.132)" fill="none" stroke="#5f7563" stroke-linecap="round" stroke-linejoin="round" stroke-width="2.066"/>
        <path id="Path_8095" data-name="Path 8095" d="M1041.134,3555.314l20.994-3.343a30.414,30.414,0,0,0-15.322-14.048S1053.908,3548.754,1041.134,3555.314Z" fill="#a6b0a4"/>
        <g id="Group_1717" data-name="Group 1717">
          <path id="Path_8096" data-name="Path 8096" d="M1029.238,3541.331l-6.182,4.538,13.472,8.449C1036.885,3551.788,1036.679,3546.027,1029.238,3541.331Z" fill="#a6b0a4"/>
          <path id="Path_8097" data-name="Path 8097" d="M1044.467,3537.312l-13.5,2.746s9.682,7.171,7.146,15.256C1052.761,3547.534,1044.467,3537.312,1044.467,3537.312Z" fill="#a6b0a4"/>
        </g>
        <g id="Group_1718" data-name="Group 1718">
          <path id="Path_8098" data-name="Path 8098" d="M1051.445,3505.788" fill="none" stroke="#5f7563" stroke-linecap="round" stroke-linejoin="round" stroke-width="2.066"/>
          <path id="Path_8099" data-name="Path 8099" d="M1030.971,3495.052c-1.831-.372-3.093-.5-5.878-1.075l-13.448,5.905-8.062,13.9,6.5,14.051,25.17,7.2,15.116-11.867" fill="none" stroke="#5f7563" stroke-linecap="round" stroke-linejoin="round" stroke-width="2.066"/>
          <line id="Line_323" data-name="Line 323" x1="24.429" y1="2.73" transform="translate(1003.583 3513.778)" fill="none" stroke="#5f7563" stroke-linecap="round" stroke-linejoin="round" stroke-width="2.066"/>
          <path id="Path_8100" data-name="Path 8100" d="M1051.445,3505.788" fill="none" stroke="#5f7563" stroke-linecap="round" stroke-linejoin="round" stroke-width="2.066"/>
          <path id="Path_8101" data-name="Path 8101" d="M1035.254,3535.028" fill="none" stroke="#5f7563" stroke-linecap="round" stroke-linejoin="round" stroke-width="2.066"/>
        </g>
        <g id="Group_1720" data-name="Group 1720">
          <path id="Path_8102" data-name="Path 8102" d="M1073.7,3545.819c13.182-10,9.729-8.359,26.351-11.811l13.449,5.905,8.062,13.9-6.5,14.051-25.17,7.2-14.49-11.99Z" fill="none" stroke="#5f7563" stroke-linecap="round" stroke-linejoin="round" stroke-width="2.066"/>
          <path id="Path_8103" data-name="Path 8103" d="M1064.885,3550.035l8.815-4.217,18.371,12.2,29.491-4.214" fill="none" stroke="#5f7563" stroke-linecap="round" stroke-linejoin="round" stroke-width="2.066"/>
          <line id="Line_324" data-name="Line 324" y1="17.037" x2="2.181" transform="translate(1089.891 3558.022)" fill="none" stroke="#5f7563" stroke-linecap="round" stroke-linejoin="round" stroke-width="2.066"/>
          <line id="Line_325" data-name="Line 325" x2="23.765" y2="3.778" transform="translate(1091.296 3564.082)" fill="none" stroke="#5f7563" stroke-linecap="round" stroke-linejoin="round" stroke-width="2.066"/>
          <path id="Path_8104" data-name="Path 8104" d="M1096.555,3555.264l20.994-3.344a30.424,30.424,0,0,0-15.322-14.048S1109.329,3548.7,1096.555,3555.264Z" fill="#a6b0a4"/>
          <g id="Group_1719" data-name="Group 1719">
            <path id="Path_8105" data-name="Path 8105" d="M1084.658,3541.28l-6.181,4.539,13.472,8.449C1092.306,3551.737,1092.1,3545.977,1084.658,3541.28Z" fill="#a6b0a4"/>
            <path id="Path_8106" data-name="Path 8106" d="M1099.888,3537.262l-13.5,2.746s9.682,7.17,7.146,15.256C1108.181,3547.483,1099.888,3537.262,1099.888,3537.262Z" fill="#a6b0a4"/>
          </g>
        </g>
        <path id="Path_8107" data-name="Path 8107" d="M1056.864,3517.886l7.037,5.222,32.032-5.184,13.937-12.028" fill="none" stroke="#5f7563" stroke-linecap="round" stroke-linejoin="round" stroke-width="2.066"/>
        <line id="Line_326" data-name="Line 326" x2="7.916" y2="21.514" transform="translate(1062.82 3500.452)" fill="none" stroke="#5f7563" stroke-linecap="round" stroke-linejoin="round" stroke-width="2.066"/>
        <path id="Path_8108" data-name="Path 8108" d="M1063.9,3523.108v7.013l22.728,6.252c1.566.164-6.5-15.762-6.5-15.762" fill="none" stroke="#5f7563" stroke-linecap="round" stroke-linejoin="round" stroke-width="2.066"/>
        <line id="Line_327" data-name="Line 327" x2="1.976" y2="9.364" transform="translate(1095.933 3517.924)" fill="none" stroke="#5f7563" stroke-linecap="round" stroke-linejoin="round" stroke-width="2.066"/>
        <path id="Path_8109" data-name="Path 8109" d="M1007.349,3515.955l19.314,3.321s-9.657,0-14.913,6.77Z" fill="#a6b0a4"/>
        <path id="Path_8110" data-name="Path 8110" d="M1014.112,3526.046s6.663-6.468,15.731-5.435l7.779,4.254-4.186,7.085Z" fill="#a6b0a4"/>
        <path id="Path_8111" data-name="Path 8111" d="M1043.1,3514.5v7.464l7.272-1.131s5.069-7.881,5.5-16.469C1055.873,3504.366,1052.652,3507.259,1043.1,3514.5Z" fill="#a6b0a4"/>
        <path id="Path_8112" data-name="Path 8112" d="M1126.4,3503.287l-13.312,2.609,5.8,12.028C1119.748,3510.4,1121.562,3508.118,1126.4,3503.287Z" fill="#a6b0a4"/>
        <path id="Path_8113" data-name="Path 8113" d="M1087.436,3515.222a19.481,19.481,0,0,0,4.021-4.247c2.195-3.173,2.237-6.859,2.329-10.62-3.913-1.385-7.813-3.015-9.662-3.265-5.1-.689-17.983,4.943-17.983,4.943l6.854,17.666,10.883-1.775A25.688,25.688,0,0,0,1087.436,3515.222Z" fill="#a6b0a4"/>
        <path id="Path_8114" data-name="Path 8114" d="M1095.616,3501.637a22.367,22.367,0,0,1-7.628,15.533h0a24.438,24.438,0,0,0,12.831-6.364l5.188-4.91S1101.024,3503.756,1095.616,3501.637Z" fill="#a6b0a4"/>
      </g>
      <g id="Group_1723" data-name="Group 1723">
        <g id="Group_1722" data-name="Group 1722">
          <path id="Path_8115" data-name="Path 8115" d="M975.037,3698.726l-.115-.214c3.035-1.732,6.087-5.279,6.812-7.918l2.59.627c-.066.214-.28.313-.759.363,1.418,2.342,4.256,3.86,7.093,4.783l-.033.248a1.954,1.954,0,0,0-1.353,1.484,11.542,11.542,0,0,1-6-6.317A16.585,16.585,0,0,1,975.037,3698.726Zm6.565-2.078c-.033.214-.148.4-.545.445v1.682c-.048,2.639-.774,5.691-5.542,7.159l-.148-.214c3.629-1.749,4.124-4.5,4.124-6.961v-2.309Zm4.867-.017c-.05.231-.182.4-.611.462v8.363c0,.148-.71.478-1.3.478h-.3v-9.517Z" fill="#5f7563"/>
          <path id="Path_8116" data-name="Path 8116" d="M999.108,3697.274a1.124,1.124,0,0,1-.676.281c-.149,4.948-.479,6.9-1.238,7.6a2.443,2.443,0,0,1-1.781.643,1.56,1.56,0,0,0-.231-1.022,2.167,2.167,0,0,0-1.088-.512v-.247c.462.033,1.2.1,1.517.1a.666.666,0,0,0,.528-.182c.461-.428.726-2.424.841-6.6h-1.814c-.28,3.332-1.089,6.367-3.5,8.627l-.182-.165c2-3.249,2.228-7.307,2.128-11.4H991.8l-.132-.462h5.658l.857-1.171s1.023.808,1.6,1.37c-.049.181-.2.263-.429.263h-4.041c-.016.841-.049,1.65-.115,2.458h1.633l.792-.841Zm-5.048-6.647c4.058,1.006,2.64,4.041,1.188,2.887a5.788,5.788,0,0,0-1.336-2.788Zm13.164,6.07-.034.215a1.783,1.783,0,0,0-1.154,1.253,13.439,13.439,0,0,1-2.887-6.07,14.675,14.675,0,0,1-4.338,6.317l-.181-.131a19,19,0,0,0,3.117-7.72l2.276.512c-.049.2-.214.313-.643.379A10.237,10.237,0,0,0,1007.224,3696.7Zm-7.6,4.652c7.209,1.237,6.779,5.212,4.751,4.371a16.2,16.2,0,0,0-4.866-4.206Zm1.469-4.289c4.552.478,3.793,3.514,2.177,2.771a8.835,8.835,0,0,0-2.326-2.639Z" fill="#5f7563"/>
          <path id="Path_8117" data-name="Path 8117" d="M1012.755,3691.6c-.1.182-.264.264-.644.182a16.843,16.843,0,0,1-3.793,3.4l-.181-.182a20,20,0,0,0,2.82-4.387Zm-.759,5.807c-.049.148-.2.247-.494.3v7.7a1.505,1.505,0,0,1-1.205.528h-.264V3698.2a19.105,19.105,0,0,1-1.633,1.633l-.2-.165a26.954,26.954,0,0,0,2.87-5.74l1.6.825v-2.722l1.814.264c-.05.2-.181.33-.643.4v2.853h.957v-4.865l1.666.181c-.034.2-.149.33-.495.4v4.288h.923v-3.414l1.683.165c-.033.214-.165.347-.528.412v3.415c0,.115-.512.346-.941.346h-.214v-.445h-2.969l-.363.445-1.22-.643a1.964,1.964,0,0,1,.33-.313v-.4a1.246,1.246,0,0,1-.347,0,21.863,21.863,0,0,1-1.352,1.913Zm1.072,1.55,1.815.182c-.034.2-.165.362-.544.412v.923c-.033,1.584-.38,3.976-2.376,5.328l-.2-.181a8.774,8.774,0,0,0,1.3-5.2Zm3.861-2.458s.725.643,1.154,1.1c-.05.182-.2.264-.429.264h-5.229l-.132-.478h3.992Zm1.781,5.559c-.413.4-1.3,1.237-2.243,2.078a.944.944,0,0,1-.38.445l-.809-1.418c.43-.264.495-.379.495-.643v-3.563l1.93.214c-.049.248-.23.429-.676.5v2.9c.495-.214,1.039-.462,1.567-.725Zm3.876-7.258a16.762,16.762,0,0,1-1.683,6.961,7.589,7.589,0,0,0,2.772,2.87l-.067.149a1.607,1.607,0,0,0-1.286,1.2,8.172,8.172,0,0,1-2.144-3.135,10.589,10.589,0,0,1-4.124,3.135l-.149-.215a10.6,10.6,0,0,0,3.86-4.124,23.511,23.511,0,0,1-.742-4.437,11.3,11.3,0,0,1-.94,1.716l-.28-.149a33.357,33.357,0,0,0,1.583-8.132l1.946.347c-.049.2-.214.38-.594.4-.181,1.006-.412,1.979-.676,2.936h1.188l.808-1.023s.907.693,1.517,1.238c-.049.181-.214.263-.445.263Zm-2.672,0a17.606,17.606,0,0,1-.627,1.781,17.159,17.159,0,0,0,.989,3.91,17.714,17.714,0,0,0,.941-5.691Z" fill="#5f7563"/>
          <path id="Path_8118" data-name="Path 8118" d="M1027.341,3704.647v.595a1.279,1.279,0,0,1-1.1.428h-.231v-5.014a9.232,9.232,0,0,1-1.023.973l-.23-.149a14.99,14.99,0,0,0,1.83-4.387l1.766.611a.6.6,0,0,1-.627.312c-.116.231-.247.479-.38.71l.215.082h3.628l.709-.857s.776.61,1.288,1.072c-.05.181-.2.264-.429.264h-2.408v1.287h.692l.66-.826s.726.578,1.2,1.04c-.05.181-.2.264-.429.264h-2.127v1.3h.692l.66-.792s.742.561,1.2,1.006c-.033.182-.2.264-.413.264h-2.143v1.336h.922l.743-.907s.825.627,1.353,1.122c-.05.181-.2.263-.43.263Zm-2.474-12.535h2.227v-1.584l1.88.181c-.033.2-.165.33-.528.38v2.325c0,.1-.61.331-1.089.331h-.263v-1.155H1025Zm3.167,1.633,1.188.907a1.053,1.053,0,0,1-.529.264v2.045c0,.1-.56.33-.923.33h-.165v-.528h-1.072v.379c0,.083-.347.347-.907.347h-.182v-3.711l1.3.544h.727Zm-.429,2.54V3694.8h-1.072v1.485Zm-.264,3v1.287h1.682v-1.287Zm1.682,1.765h-1.682v1.3h1.682Zm0,1.781h-1.682v1.336h1.682Zm-.132-5.839a5.374,5.374,0,0,1,.561.165v-3.381l1.32.544h.726l.56-.577,1.221.923a.93.93,0,0,1-.544.248v1.962c0,.116-.577.347-.924.347h-.181v-.462h-1.073v.2a.964.964,0,0,1-.742.347c1.4.742.281,1.962-.593,1.22a3.708,3.708,0,0,0-.512-1.451Zm11.069,7.142c.362.165.412.33.412.594,0,.528-.462.825-1.9.825h-.758c-1.024,0-1.156-.33-1.156-1.188v-4.157h-.642c-.116,2.854-.907,4.553-3.646,5.625l-.083-.231c1.848-1.254,2.243-2.705,2.31-4.75a2.089,2.089,0,0,1-.792.132l-.214-.017v-8.429a.538.538,0,0,1-.248.05h-2.21v.775c0,.116-.61.33-1.1.33h-.264v-3.183l1.881.181c-.033.2-.165.346-.512.4v1.023h.824l.644-.842s.56.446.99.874v-1.3l1.583.643h2.573l.742-.858,1.453,1.155a1,1,0,0,1-.677.313v8.2a1.658,1.658,0,0,1-1.221.4h-.016V3704c0,.182.033.248.248.248h.807c.115-.017.149-.033.215-.165a16.11,16.11,0,0,0,.511-1.864h.2Zm-9.4-9.336v1.485h1.073V3694.8Zm4.322-2.837v2.458h2.838v-2.458Zm2.838,5.1V3694.9h-2.838v2.161Zm-2.838.478v2.194h2.838v-2.194Z" fill="#5f7563"/>
          <path id="Path_8119" data-name="Path 8119" d="M1055.8,3700.095s.807.742,1.253,1.27c-.033.182-.2.264-.413.264H1041.45l-.132-.478h1.781l-.247-9.633,1.55.528a18.837,18.837,0,0,0,1.452-1.5l1.37,1.3c-.117.115-.282.131-.529.016a17.277,17.277,0,0,1-2.358.808l.065,2.343h.627l.611-.858a14.967,14.967,0,0,1,1.072,1.072.375.375,0,0,1-.412.264h-1.881l.066,2.656h.659l.627-.907s.694.659,1.106,1.121c-.033.181-.2.264-.412.264H1044.5l.065,2.524h8.957l.066-2.524h-1.765l-.148-.478h1.913l.066-2.656h-1.6l-.149-.478h1.765l.049-2.606h-2l-.148-.479h1.995l.693-.841,1.518,1.27c-.115.148-.264.2-.594.247l-.2,8.545h.1Zm-14.252,5.625a13.759,13.759,0,0,0,4.684-3.876l2.145.956c-.1.2-.347.28-.842.231a16.4,16.4,0,0,1-5.872,2.9Zm7.554-8.99a.552.552,0,0,1-.577.379,9.988,9.988,0,0,1-1.716,3.6l-.263-.131a17.867,17.867,0,0,0,.759-4.223Zm-2.391-1.468a3.243,3.243,0,0,1,.594-.346c.181-1.221.379-3.233.4-4.19l1.864.28c-.033.182-.181.38-.577.413-.033.346-.066.759-.115,1.171h1.138l.66-.891s.725.66,1.154,1.106c-.033.181-.2.263-.412.263h-2.59c-.066.693-.148,1.4-.231,2h1.369l.677-.693,1.319,1.089a1.022,1.022,0,0,1-.644.247c-.1,3-.345,4.223-.923,4.7a2.214,2.214,0,0,1-1.452.445,1.145,1.145,0,0,0-.214-.841,1.806,1.806,0,0,0-.875-.38v-.264c.4.033,1.007.066,1.271.066a.578.578,0,0,0,.445-.115c.281-.264.462-1.369.544-3.778h-1.434l-.561.66Zm4.008,6.911c8.083,1.287,5.493,4.833,4.025,3.365a9.49,9.49,0,0,0-4.107-3.117Z" fill="#5f7563"/>
          <path id="Path_8120" data-name="Path 8120" d="M1060.522,3693.794a2.44,2.44,0,0,1-.907,2.26.939.939,0,1,1-.874-1.6,2.459,2.459,0,0,0,1.221-2.128h.247a4.879,4.879,0,0,1,.265.99h10.358l.907-.924,1.6,1.534c-.132.132-.314.165-.659.181a14.175,14.175,0,0,1-2.392,1.8l-.182-.115a15.9,15.9,0,0,0,.776-2Zm10.657,2.111s1.039.743,1.682,1.3c-.033.182-.215.265-.446.265h-7.835a15.236,15.236,0,0,1-6.284,7.818l-.182-.182a19.1,19.1,0,0,0,4.768-7.636h-4.075l-.148-.479h4.371a19.847,19.847,0,0,0,.742-2.887l2.277.545c-.067.214-.248.363-.644.379-.2.693-.412,1.336-.643,1.963h5.493Zm-2.739,5.1c5.46,2.078,4.223,5.938,2.491,4.6a6.609,6.609,0,0,0-.578-1.583c-1.781.445-4.255.973-7.174,1.435a.908.908,0,0,1-.364.264l-.758-1.749a3.444,3.444,0,0,0,.907-.247,18.517,18.517,0,0,0,3.233-5.493l2.095.94a.579.579,0,0,1-.644.248,24.266,24.266,0,0,1-4.173,4.585c1.65-.033,4.14-.181,6.665-.363a12.478,12.478,0,0,0-1.881-2.507Zm-4.074-10.408c4.156.363,2.639,3.563,1.039,2.375a3.622,3.622,0,0,0-1.187-2.26Z" fill="#5f7563"/>
          <path id="Path_8121" data-name="Path 8121" d="M1077.089,3704.647v.595a1.279,1.279,0,0,1-1.1.428h-.231v-5.014a9.233,9.233,0,0,1-1.023.973l-.23-.149a14.993,14.993,0,0,0,1.83-4.387l1.766.611a.6.6,0,0,1-.627.312c-.116.231-.247.479-.38.71l.215.082h3.628l.709-.857s.776.61,1.288,1.072c-.05.181-.2.264-.429.264h-2.408v1.287h.692l.66-.826s.726.578,1.2,1.04c-.049.181-.2.264-.429.264h-2.127v1.3h.692l.66-.792s.742.561,1.2,1.006c-.033.182-.2.264-.413.264h-2.143v1.336h.923l.742-.907s.825.627,1.353,1.122c-.05.181-.2.263-.429.263Zm-2.474-12.535h2.227v-1.584l1.881.181c-.034.2-.166.33-.529.38v2.325c0,.1-.61.331-1.089.331h-.263v-1.155h-2.1Zm3.167,1.633,1.188.907a1.053,1.053,0,0,1-.529.264v2.045c0,.1-.56.33-.923.33h-.165v-.528h-1.072v.379c0,.083-.347.347-.907.347h-.182v-3.711l1.3.544h.727Zm-.429,2.54V3694.8h-1.072v1.485Zm-.264,3v1.287h1.682v-1.287Zm1.682,1.765h-1.682v1.3h1.682Zm0,1.781h-1.682v1.336h1.682Zm-.131-5.839a5.414,5.414,0,0,1,.56.165v-3.381l1.32.544h.726l.561-.577,1.22.923a.93.93,0,0,1-.544.248v1.962c0,.116-.577.347-.924.347h-.181v-.462h-1.072v.2a.967.967,0,0,1-.743.347c1.4.742.281,1.962-.593,1.22a3.708,3.708,0,0,0-.512-1.451Zm11.068,7.142c.362.165.412.33.412.594,0,.528-.462.825-1.9.825h-.759c-1.024,0-1.156-.33-1.156-1.188v-4.157h-.642c-.116,2.854-.907,4.553-3.646,5.625l-.083-.231c1.848-1.254,2.244-2.705,2.31-4.75a2.089,2.089,0,0,1-.792.132l-.214-.017v-8.429a.537.537,0,0,1-.248.05h-2.21v.775c0,.116-.61.33-1.105.33h-.264v-3.183l1.881.181c-.033.2-.165.346-.512.4v1.023h.824l.644-.842s.56.446.99.874v-1.3l1.583.643h2.573l.742-.858,1.453,1.155a1,1,0,0,1-.677.313v8.2a1.658,1.658,0,0,1-1.221.4h-.016V3704c0,.182.033.248.248.248h.807c.115-.017.149-.033.215-.165a16.11,16.11,0,0,0,.511-1.864h.2Zm-9.4-9.336v1.485h1.072V3694.8Zm4.321-2.837v2.458h2.838v-2.458Zm2.838,5.1V3694.9h-2.838v2.161Zm-2.838.478v2.194h2.838v-2.194Z" fill="#5f7563"/>
          <path id="Path_8122" data-name="Path 8122" d="M1098.438,3694.075a1.426,1.426,0,0,1-.693.346v9.946a1.964,1.964,0,0,1-1.253.462h-.231v-1.27h-2.919v1.27c0,.165-.562.528-1.188.528h-.248v-12.371l1.518.693h.3c.148-.874.346-2.145.461-3.052l2.277.544c-.082.264-.3.38-.66.38-.4.627-.973,1.468-1.435,2.128h1.732l.758-.858Zm-5.1.082v4.107h2.919v-4.107Zm2.919,8.923v-4.337h-2.919v4.337Zm10.226-9.005a1.055,1.055,0,0,1-.709.3c-.115,6.4-.379,9.716-1.221,10.672a2.677,2.677,0,0,1-2.193.858,1.456,1.456,0,0,0-.347-1.138,3.727,3.727,0,0,0-1.7-.627l.017-.264c.775.083,1.93.165,2.326.165a.787.787,0,0,0,.644-.214c.61-.594.807-4.058.922-9.7h-3.463a13.44,13.44,0,0,1-2.639,3.464l-.232-.149a23.588,23.588,0,0,0,2.425-6.812l2.195.643c-.067.2-.264.347-.627.347a15.889,15.889,0,0,1-.874,2.028h3.035l.89-.94Zm-7.059,2.952c4.454,1.567,3,4.767,1.5,3.513a7.578,7.578,0,0,0-1.65-3.414Z" fill="#5f7563"/>
          <path id="Path_8123" data-name="Path 8123" d="M1123.235,3694.289a1.239,1.239,0,0,1-.725.3c-.214,5.905-.726,9.4-1.7,10.408a2.94,2.94,0,0,1-2.292.841,1.462,1.462,0,0,0-.346-1.121,4.14,4.14,0,0,0-1.782-.627l.017-.264c.824.082,2.095.181,2.507.181a.892.892,0,0,0,.726-.247c.709-.611,1.138-4.206,1.369-9.419h-.544c-.742,4.355-2.689,8.2-6.714,10.623l-.165-.181a15.908,15.908,0,0,0,5.246-10.442h-.759a13.291,13.291,0,0,1-5.163,7.423l-.165-.2a14.361,14.361,0,0,0,3.794-7.225h-.924a9.582,9.582,0,0,1-2.8,3.035l-.213-.165a12.133,12.133,0,0,0,1.418-2.292H1112v3.5c.725-.214,1.468-.445,2.226-.676l.067.215c-.611.362-1.369.808-2.293,1.319v6.186c0,.165-.611.462-1.188.462h-.28v-5.839c-.528.3-1.1.593-1.716.907a.7.7,0,0,1-.38.428l-.742-1.83c.562-.116,1.6-.4,2.838-.743v-3.925h-1.2a11.088,11.088,0,0,1-1.386,2.721l-.263-.132a23.17,23.17,0,0,0,.922-5.806l1.931.347v-1.452l2.078.231c-.05.231-.165.4-.61.462v3.15h.247l.792-1.171s.676.644,1.187,1.171a17.98,17.98,0,0,0,1.155-3.843l2.144.643c-.065.215-.263.347-.643.347a13.177,13.177,0,0,1-1.006,2.292h4.948l.875-.923Zm-12.7.148v-2.243a.592.592,0,0,1-.528.264c-.149.676-.314,1.352-.512,1.979Z" fill="#5f7563"/>
          <path id="Path_8124" data-name="Path 8124" d="M1127.249,3693.761a3.738,3.738,0,0,1-2.673,3.25l-.148-.231a4.212,4.212,0,0,0,1.435-3.563V3691.3l1.65.512a26.724,26.724,0,0,0,3.035-1.2l1.352,1.336c-.181.148-.495.132-.89-.034a33.683,33.683,0,0,1-3.729.4v.974h2.937l.775-.957s.891.676,1.418,1.171c-.032.182-.2.264-.429.264H1130.2v2.128a1.614,1.614,0,0,1-1.187.346h-.248v-2.474Zm-2.508,11.909a17.236,17.236,0,0,0,5.443-2.556l1.733,1.27c-.149.165-.445.2-.891.066a21.586,21.586,0,0,1-6.2,1.468Zm13.245-13.41s.941.709,1.5,1.237c-.033.182-.2.264-.43.264h-2.16v2.095a1.312,1.312,0,0,1-.742.313l1.336,1.007a1.119,1.119,0,0,1-.61.3V3703a2.316,2.316,0,0,1-1.3.413h-.264v-.677h-6.449v.5a1.807,1.807,0,0,1-1.319.5h-.248V3696.1l1.666.677h6.185l.545-.578h-.264v-2.441h-1.5c-.165.94-.775,2.062-2.771,2.738l-.148-.214a3.594,3.594,0,0,0,1.566-3.25v-1.765l1.534.462a28.541,28.541,0,0,0,3.184-1.121l1.352,1.368c-.181.149-.495.133-.89-.049-.957.132-2.408.28-3.761.347v1.006h3.167Zm-9.121,5v1.336h6.449v-1.336Zm0,1.8v1.353h6.449v-1.353Zm6.449,3.2v-1.369h-6.449v1.369Zm-2.441,1.254c8.545.247,5.757,3.265,4.19,2.16a12.276,12.276,0,0,0-4.256-1.929Z" fill="#5f7563"/>
          <path id="Path_8125" data-name="Path 8125" d="M1149.225,3696.021c.578,3.084,2.425,6.251,7.175,8.264l-.032.181a1.716,1.716,0,0,0-1.518,1.485c-4.157-2.409-5.443-6.417-5.905-9.7-.478,3.909-2.062,7.29-7.9,9.7l-.182-.264c4.7-2.689,6.054-5.939,6.434-9.666h-6.12l-.149-.479h6.3c.132-1.55.115-3.183.115-4.882l2.342.231c-.049.248-.2.412-.594.479-.033,1.435-.05,2.836-.165,4.172h4.174l1.071-1.352s1.221.924,1.948,1.567c-.05.181-.232.264-.462.264Z" fill="#5f7563"/>
          <path id="Path_8126" data-name="Path 8126" d="M1163.053,3695.328c-.066.2-.214.313-.66.3a17.851,17.851,0,0,1-4.717,7.406l-.182-.165a23.212,23.212,0,0,0,3.2-8.329Zm3.7-4.3c-.033.247-.2.4-.61.462v12.288c0,1.2-.281,1.93-2.475,2.145a1.792,1.792,0,0,0-.479-1.2,3.817,3.817,0,0,0-1.814-.627v-.231s2.228.148,2.673.148c.346,0,.445-.115.445-.363v-12.849Zm4.255,11.052a17.159,17.159,0,0,0-3.1-7.126l.215-.116C1174.351,3698.908,1173,3703.823,1171,3702.075Z" fill="#5f7563"/>
        </g>
      </g>
      <g id="Group_1725" data-name="Group 1725">
        <g id="Group_1724" data-name="Group 1724">
          <path id="Path_8127" data-name="Path 8127" d="M1023.679,3737.549s1.022.791,1.666,1.369c-.05.181-.215.264-.462.264h-11.761v3.694c0,3.019-.148,7.159-2.953,9.963l-.214-.148c1.55-2.9,1.666-6.549,1.666-9.8v-4.965l1.765.776h9.4Zm-6.1,11.117c-.1.165-.247.264-.627.2a11.016,11.016,0,0,1-4.553,3.332l-.131-.2a11.432,11.432,0,0,0,3.365-4.289Zm2.26-1.9v4.107c0,1.106-.28,1.815-2.177,1.963a1.764,1.764,0,0,0-.347-1.072,2.647,2.647,0,0,0-1.484-.528v-.214s1.715.116,2.095.116c.28,0,.362-.083.362-.3v-4.075h-2.078v.413c0,.148-.659.5-1.286.5h-.248v-6.829l1.617.676h1.336c.132-.611.264-1.5.346-2.293l2.095.512a.6.6,0,0,1-.61.379,10.647,10.647,0,0,1-1.3,1.4h3.547l.775-.841,1.617,1.253a1.279,1.279,0,0,1-.694.347v4.651a2.2,2.2,0,0,1-1.286.446h-.247v-.611Zm-3.629-4.767v1.847h5.658V3742Zm5.658,4.289v-1.963h-5.658v1.963Zm-1.039,1.781c5.294,1.337,4.321,4.751,2.622,3.728a10.206,10.206,0,0,0-2.787-3.579Z" fill="#1a1a1a"/>
          <path id="Path_8128" data-name="Path 8128" d="M1039.964,3743.52s1.187.907,1.913,1.55c-.033.182-.215.264-.462.264h-6.268v5.394c0,1.187-.313,1.9-2.573,2.095a1.519,1.519,0,0,0-.561-1.138,4.061,4.061,0,0,0-1.963-.61v-.248s2.524.165,3,.165c.346,0,.445-.1.445-.379v-5.279h-6.647l-.148-.478h6.795v-2.821l1.369.132a22.014,22.014,0,0,0,2.821-2.689h-9.155l-.148-.478h9.5l1.006-.94,1.65,1.468a1.013,1.013,0,0,1-.71.2,28.686,28.686,0,0,1-4.4,2.491l.28.033c-.033.247-.2.379-.561.445v2.161h3.761Z" fill="#1a1a1a"/>
          <path id="Path_8129" data-name="Path 8129" d="M1057.553,3741.64a16.729,16.729,0,0,1-2,6.8,9.662,9.662,0,0,0,3.2,3.068l-.05.149a1.613,1.613,0,0,0-1.353,1.171,9.71,9.71,0,0,1-2.556-3.3,11.37,11.37,0,0,1-4.24,3.3l-.148-.182a12.059,12.059,0,0,0,3.877-4.4,22.38,22.38,0,0,1-1.122-4.981,11.74,11.74,0,0,1-1.4,2.045l-.248-.132a22.552,22.552,0,0,0,1.3-4.14.415.415,0,0,1-.362.149h-1.5v1.6a1.821,1.821,0,0,1-1.106.4h-.214v-.363H1048.3v1.089h1.419l.627-.643,1.336.989a.914.914,0,0,1-.512.248v1.864a1.928,1.928,0,0,1-1.089.379h-.231v-.462h-4.519v.182c0,.1-.412.4-1.072.4h-.215v-3.563l1.485.61h1.418v-1.089h-1.369v.034a1.268,1.268,0,0,1-1.072.4h-.231v-2.062h-1.006l-.131-.479h1.137v-2.243l1.5.61h1.171v-1.583l1.963.2c-.049.231-.2.4-.61.461v.924h1.187l.644-.676,1.369,1.039a1.046,1.046,0,0,1-.544.264v1.006h.115l.66-.841a14.749,14.749,0,0,1,1.121,1.039,28.541,28.541,0,0,0,.529-3.365l2.177.479c-.05.231-.231.379-.611.4a25.792,25.792,0,0,1-.807,2.754h2.011l.874-1.171s1.024.808,1.634,1.385c-.05.182-.215.265-.445.265Zm-5.427,6.366c-.577.083-1.221.165-1.913.264a5.045,5.045,0,0,1-1.056,1.9c2.507.841,1.715,2.309.659,2.013a12.043,12.043,0,0,0-1.88-.99,12.258,12.258,0,0,1-4.487,1.551l-.1-.248a10.053,10.053,0,0,0,3.761-1.649,17.957,17.957,0,0,0-2.755-.875c.165-.264.347-.66.562-1.088l-.677.082a.68.68,0,0,1-.478.33l-.429-1.518c.495.017,1.221.017,2.078.017.248-.594.462-1.138.562-1.468l1.946.33c-.067.2-.2.379-.694.4-.1.214-.2.462-.3.725l2.127-.016a7.251,7.251,0,0,0,.132-1.039l1.831.429c-.065.231-.28.363-.627.346l-.048.248,1.781-.034Zm-6.8-2.21h1.616v-1.419h-1.616Zm.247-5.1h1.369v-1.155h-1.369Zm1.369,1.633v-1.154h-1.369v1.154Zm-.478,6.384c-.149.329-.329.643-.462.956a13.56,13.56,0,0,1,2.079.231,4.521,4.521,0,0,0,.775-1.468C1048.15,3748.518,1047.343,3748.617,1046.468,3748.716Zm1.831-9.172v1.155h1.336v-1.155Zm1.336,1.634H1048.3v1.154h1.336Zm-1.336,3.2v1.419h1.55v-1.419Zm5.641-2.737c-.148.379-.313.725-.478,1.071a17.077,17.077,0,0,0,1.336,4.339,18.243,18.243,0,0,0,1.1-5.41Z" fill="#1a1a1a"/>
          <path id="Path_8130" data-name="Path 8130" d="M1073.309,3750.794s1.073.825,1.716,1.418c-.05.182-.215.264-.462.264h-14.482l-.149-.478h6.681v-1.4h-5.3l-.132-.462h5.427v-1.27h-2.623v.33c0,.149-.709.495-1.336.495h-.23v-5.476l1.681.692h6.549l.792-.874,1.683,1.287a1.36,1.36,0,0,1-.727.363v3.249c0,.017-.049.049-.115.1.115.083,1.022.792,1.6,1.3-.05.182-.215.264-.447.264h-5.31v1.4h4.239Zm-13.145-6.961-.133-.478h12.339l.891-1.1s1.005.759,1.6,1.319c-.033.182-.214.264-.428.264Zm3.991-1.27c0,.132-.692.478-1.336.478h-.215v-5.229l1.65.677h6.219l.758-.841,1.65,1.237a1.168,1.168,0,0,1-.676.346v3.2a2.409,2.409,0,0,1-1.32.4h-.247v-.544h-6.483Zm-.165,2.821v1.253h2.623v-1.253Zm2.623,3v-1.27h-2.623v1.27Zm-2.458-9.435v1.171h6.483v-1.171Zm6.483,2.854v-1.221h-6.483v1.221Zm-2.507,3.579v1.253h2.688v-1.253Zm2.688,1.732h-2.688v1.27h2.688Zm-2.688,3.018h3.265l.858-1.089a3.474,3.474,0,0,1-1.171.281h-.264v-.462h-2.688Z" fill="#1a1a1a"/>
          <path id="Path_8131" data-name="Path 8131" d="M1079.879,3740.5a1.279,1.279,0,1,1-1.27,1.287A1.279,1.279,0,0,1,1079.879,3740.5Zm0,7.786a1.278,1.278,0,0,1,1.287,1.287,1.279,1.279,0,1,1-1.287-1.287Z" fill="#1a1a1a"/>
          <path id="Path_8132" data-name="Path 8132" d="M1092.3,3750.893v.528h-6.83v-.528l2.541-.33c.016-.989.033-2,.033-2.969v-6.713l-2.31.247v-.627l3.893-.957.231.182-.05,2.606v5.262c0,.973.017,1.963.034,2.969Z" fill="#1a1a1a"/>
          <path id="Path_8133" data-name="Path 8133" d="M1102.055,3745.581c0,4.405-1.9,6.087-3.893,6.087-2.029,0-3.909-1.682-3.909-6.087s1.88-6.135,3.909-6.135C1100.158,3739.446,1102.055,3741.178,1102.055,3745.581Zm-3.893,5.427c1.072,0,2.078-1.154,2.078-5.427,0-4.288-1.006-5.459-2.078-5.459-1.122,0-2.095,1.155-2.095,5.459C1096.067,3749.854,1097.04,3751.008,1098.162,3751.008Z" fill="#1a1a1a"/>
          <path id="Path_8134" data-name="Path 8134" d="M1104.67,3740.091c-.1.442-.28.615-.606.615a.494.494,0,0,1-.5-.336,1.816,1.816,0,0,1,2.029-1.423c1.3,0,2.047.692,2.047,1.673a1.784,1.784,0,0,1-1.557,1.711c1.24.2,1.768.855,1.768,1.749,0,1.154-.951,1.99-2.413,1.99-1.153,0-1.931-.49-2.086-1.528a.526.526,0,0,1,.52-.346c.327,0,.471.192.6.711l.172.712a2.317,2.317,0,0,0,.558.067,1.563,1.563,0,1,0-.028-3.125h-.472v-.422h.4a1.377,1.377,0,0,0,1.518-1.49,1.177,1.177,0,0,0-1.278-1.308,2.239,2.239,0,0,0-.481.048Z" fill="#1a1a1a"/>
          <path id="Path_8135" data-name="Path 8135" d="M1109.081,3746.291h4.354v1.089h-4.354Z" fill="#1a1a1a"/>
          <path id="Path_8136" data-name="Path 8136" d="M1122.443,3750.893v.528h-6.829v-.528l2.54-.33c.017-.989.033-2,.033-2.969v-6.713l-2.309.247v-.627l3.892-.957.232.182-.05,2.606v5.262c0,.973.017,1.963.033,2.969Z" fill="#1a1a1a"/>
          <path id="Path_8137" data-name="Path 8137" d="M1132.194,3745.581c0,4.405-1.9,6.087-3.892,6.087-2.029,0-3.91-1.682-3.91-6.087s1.881-6.135,3.91-6.135C1130.3,3739.446,1132.194,3741.178,1132.194,3745.581Zm-3.892,5.427c1.072,0,2.078-1.154,2.078-5.427,0-4.288-1.006-5.459-2.078-5.459-1.122,0-2.095,1.155-2.095,5.459C1126.207,3749.854,1127.18,3751.008,1128.3,3751.008Z" fill="#1a1a1a"/>
          <path id="Path_8138" data-name="Path 8138" d="M1134.5,3741.86a3.65,3.65,0,0,1,1.135-.163,2.082,2.082,0,0,1,2.374,2.114,2.271,2.271,0,0,1-2.548,2.259,1.825,1.825,0,0,1-2.029-1.518.526.526,0,0,1,.52-.356c.317,0,.48.173.6.682l.163.721a2.176,2.176,0,0,0,.625.087,1.545,1.545,0,0,0,1.595-1.75,1.492,1.492,0,0,0-1.585-1.691,3.444,3.444,0,0,0-1.048.144l-.279-.106.221-3.192h3.557v.9h-3.172Z" fill="#1a1a1a"/>
        </g>
      </g>
      <g id="Group_1726" data-name="Group 1726">
        <path id="Path_8139" data-name="Path 8139" d="M1062.468,3625.573c-.078.3-.354.426-1.024.507,1.733,2.9,5.335,4.2,8.366,4.932l-.019.3a3.6,3.6,0,0,0-2.225,2.862,13.721,13.721,0,0,1-2.579-1.685c-.1.163-.275.284-.669.365v10.208c0,.223-1.279.771-2.4.771h-.512v-11.892l3.287.284a11.363,11.363,0,0,1-3.562-5.905,17.756,17.756,0,0,1-4.981,5.743l3.347.3c-.039.264-.178.487-.649.548v1.644c-.08,3.45-1.024,7.61-7.737,9.315l-.1-.162c4.547-2.415,4.98-6.068,4.98-9.173v-2.354a20.957,20.957,0,0,1-5.236,2.841l-.117-.223c3.621-2.395,6.987-7,7.656-10.29Z" fill="#fff"/>
        <path id="Path_8140" data-name="Path 8140" d="M1092.724,3640.793a.994.994,0,0,1,.572,1.056c0,.913-.709,1.481-2.442,1.481h-.767c-1.555,0-1.712-.507-1.712-2.029v-4.932h-.414c-.118,3.613-1.142,5.967-4.743,7.347l-.079-.244a6.764,6.764,0,0,0,1.279-1.339H1078.1v.548c0,.162-.709.71-1.909.71h-.413v-5.906a9.794,9.794,0,0,1-1.162.934l-.256-.162a21.434,21.434,0,0,0,1.93-5.176,2.655,2.655,0,0,1-.866.143h-.316V3628.5l2.008.812h.335l.787-.832,1.614,1.238v-1.238l2.028.832h.295l.788-.832,1.673,1.278a.884.884,0,0,1-.532.264v2.4a2.606,2.606,0,0,1-1.476.487h-.316v-.589h-.688v.2c0,.1-.335.385-.945.507,1.614.548,1.024,1.766.059,1.928h1.043l1.024-1.3s1.141.893,1.87,1.542c-.059.223-.256.325-.532.325h-2.519v1.583h.079l.964-1.238s1.1.852,1.791,1.481c-.059.224-.256.325-.531.325h-2.3v1.644h.079l.964-1.238s1.1.852,1.791,1.482c-.059.223-.256.324-.531.324h-2.3v1.684h.354l1.043-1.359s.985.771,1.713,1.42a8.633,8.633,0,0,0,.846-4.423,2.1,2.1,0,0,1-.354.02h-.453v-10.168h-2.244v.934a3.688,3.688,0,0,1-2.008.507h-.432v-4.059l2.992.264c-.021.223-.139.386-.552.446v1.34h.276l.925-1.36s.532.467,1.043.974v-1.339l2.7,1.035h1.831l1.24-1.461,2.244,1.827a1.137,1.137,0,0,1-.808.425v9.66a2.1,2.1,0,0,1-1.2.548v3.816c0,.223.039.3.2.3h.374c.137,0,.2-.041.294-.223a19.39,19.39,0,0,0,.808-2.435h.217Zm-18.345-14.307h2.323v-2.05l2.972.264c-.039.223-.158.386-.571.446v2.943a3.626,3.626,0,0,1-1.968.487h-.433v-1.522h-2.145Zm2.48,6.21c0,.041-.078.122-.2.2l2.4.872a.707.707,0,0,1-.767.407c-.118.2-.237.405-.355.609l.413.162h1.949a1.528,1.528,0,0,1-.768-.386,3.856,3.856,0,0,0-.394-1.725l.159-.081c.2.02.373.04.55.061v-3.065a.83.83,0,0,1-.511.264v2.476c0,.142-.886.487-1.457.487h-.3v-.67h-.729Zm0-2.821v1.867h.729v-1.867Zm2.5,5.642h-1.26v1.583h1.26Zm0,2.151h-1.26v1.644h1.26Zm-1.26,3.9h1.26v-1.684h-1.26Zm3.524-11.689v1.867h.688v-1.867Zm5.609-3.511v3.024h2.166v-3.024Zm2.166,3.592h-2.166v2.618h2.166Zm-2.166,3.186v2.659h2.166v-2.659Z" fill="#fff"/>
      </g>
    </g>
    <g id="Group_1732" data-name="Group 1732">
      <rect id="Rectangle_3272" data-name="Rectangle 3272" width="143.965" height="38.104" rx="19.052" transform="translate(1419.375 3616.612)" fill="#5f7563"/>
      <g id="Group_1728" data-name="Group 1728">
        <path id="Path_8141" data-name="Path 8141" d="M1485.908,3477.028l-28.682,12.219a2.021,2.021,0,0,0,.149,3.824l32.209,11.166a6.024,6.024,0,0,1,4.185,5.618v53.371l34.577-14.539a7.708,7.708,0,0,0,4.876-7.129l-.543-45.117a6.9,6.9,0,0,0-4.615-6.382l-35.012-13.18A9.645,9.645,0,0,0,1485.908,3477.028Z" fill="#a6b0a4" fill-rule="evenodd"/>
        <path id="Path_8142" data-name="Path 8142" d="M1446.246,3493.044l42.852,16.306,44.124-16.306" fill="none" stroke="#5f7563" stroke-linecap="round" stroke-linejoin="round" stroke-width="2.079"/>
        <path id="Path_8143" data-name="Path 8143" d="M1489.1,3509.35l0,53.482a5.4,5.4,0,0,1-7.414,5.012l-32.664-13.124a11.807,11.807,0,0,1-7.221-11.079V3497.19a11.839,11.839,0,0,1,6.872-10.933l35.093-15.321a10.432,10.432,0,0,1,8.068-.118l38.681,15.56a11.811,11.811,0,0,1,7.159,11.053v46.233a11.809,11.809,0,0,1-7.194,11.068l-37.1,16.09" fill="none" stroke="#5f7563" stroke-linecap="round" stroke-linejoin="round" stroke-width="2.079"/>
        <path id="Path_8144" data-name="Path 8144" d="M1449.936,3501.283l29.717,10.765a7.477,7.477,0,0,1,4.931,7.031v39.838a2.927,2.927,0,0,1-4.007,2.721l-29.808-11.979c-2.215-.88-4.19-3.022-4.19-5.406v-40.615A2.5,2.5,0,0,1,1449.936,3501.283Z" fill="#a6b0a4" fill-rule="evenodd"/>
      </g>
      <g id="Group_1730" data-name="Group 1730">
        <g id="Group_1729" data-name="Group 1729">
          <path id="Path_8145" data-name="Path 8145" d="M1429.265,3697.5l1.22-1.666s1.386,1.155,2.227,1.947c-.049.2-.247.264-.511.264h-14.6l-.165-.545Z" fill="#5f7563"/>
          <path id="Path_8146" data-name="Path 8146" d="M1440.552,3703.872c0,.974-.214,1.518-1.8,1.65a1.453,1.453,0,0,0-.3-.875,1.966,1.966,0,0,0-1.1-.412v-.247s1.237.082,1.517.082c.265,0,.33-.1.33-.313v-5.542c-.791.231-1.683.478-2.688.725-.05,2.425-.363,5.081-2.442,6.978l-.214-.149a13.466,13.466,0,0,0,1.286-6.482l-.378.1a.609.609,0,0,1-.429.379l-.528-1.633c.33-.016.775-.066,1.335-.116v-5.657l1.6.61h.132a19.846,19.846,0,0,0,.346-2.358l2.045.4a.584.584,0,0,1-.593.364,9.576,9.576,0,0,1-1.32,1.6h1.7l.61-.709,1.436,1.072a1,1,0,0,1-.545.281v3.81l.693-.083-.116-.164a4.2,4.2,0,0,0,1.237-3.514v-2.491l1.617.644h1.616l.726-.759,1.386,1.154a1,1,0,0,1-.611.231v2.92c0,.181.034.247.248.247h.841c.082,0,.2-.016.247-.016a.96.96,0,0,0,.314-.066h.165l.065.016c.364.149.495.265.495.578,0,.528-.478.841-1.864.841h-.725c-1.006,0-1.121-.33-1.121-1.171v-3.5h-2.013v1.352a3.542,3.542,0,0,1-2.342,3.663h.065l.017.263-.94.281Zm-4.041-5.987c.825-.083,1.715-.2,2.688-.3v-4.14h-2.688Zm.495-3.778c2.755,1.831,1.6,3.877.627,2.92a9.121,9.121,0,0,0-.842-2.837Zm.049,4.965c2.754,1.947,1.617,4.008.66,3.052a9.387,9.387,0,0,0-.874-2.969Zm11.448-.56c-.116.165-.281.214-.66.247a10.862,10.862,0,0,1-2.145,3.959,11.6,11.6,0,0,0,3.777,1.682l-.033.165a1.718,1.718,0,0,0-1.319,1.287,10.177,10.177,0,0,1-3.349-2.227,11.7,11.7,0,0,1-4.6,2.326l-.116-.231a10.368,10.368,0,0,0,4.058-2.9,10.875,10.875,0,0,1-1.831-4.289h-.792l-.148-.478h4.8l.859-.858Zm-5.905.016a8.39,8.39,0,0,0,2.144,3.431,11.38,11.38,0,0,0,1.468-3.431Z" fill="#5f7563"/>
          <path id="Path_8147" data-name="Path 8147" d="M1465.563,3693.645a1.169,1.169,0,0,1-.692.33v9.93c0,1.138-.264,1.815-2.293,2a1.749,1.749,0,0,0-.462-1.121,3.15,3.15,0,0,0-1.633-.578v-.231s1.963.132,2.392.132c.33,0,.413-.115.413-.379v-10.013h-4.553a6.469,6.469,0,0,1-.33.891c4.817.974,4.288,4.009,2.722,3.266a10.264,10.264,0,0,0-2.887-2.9,7.683,7.683,0,0,1-4.239,3.348l-.182-.247a6.589,6.589,0,0,0,3.349-4.355h-3.976v11.629c0,.2-.61.561-1.3.561h-.264v-13.394l1.7.726h3.941a18.35,18.35,0,0,0,.166-2.507l2.194.182c-.033.214-.182.379-.545.412a15.385,15.385,0,0,1-.231,1.913h4.273l.759-.89Zm-5.954,3.877c-.066.182-.2.3-.594.3a11.7,11.7,0,0,1-.593,1.4c5.014,1.353,4.338,4.453,2.738,3.645a11.311,11.311,0,0,0-2.936-3.282,7.92,7.92,0,0,1-4.487,3.744l-.132-.214a8.624,8.624,0,0,0,3.86-6.169Z" fill="#5f7563"/>
          <path id="Path_8148" data-name="Path 8148" d="M1471.722,3691.237l1.484,1.2a1.288,1.288,0,0,1-.677.314v11.052a1.919,1.919,0,0,1-1.154.445h-.215v-1.27h-2.128v1.5c0,.181-.511.544-1.138.544h-.247V3691.37l1.468.676h1.88Zm-2.69,1.287v2.92h2.128v-2.92Zm2.128,3.381h-2.128v3.019h2.128Zm0,6.6v-3.1h-2.128v3.1Zm11.2-2.688c-.1.132-.263.148-.528.066a16.081,16.081,0,0,1-2.837,1.517,8.34,8.34,0,0,0,3.679,2.887l-.034.181a1.72,1.72,0,0,0-1.187,1.3c-2.458-1.468-3.777-4.024-4.453-7.719h-1.551v5.822c.775-.2,1.683-.445,2.59-.709l.065.214c-.692.446-2.111,1.386-3.612,2.277a1.033,1.033,0,0,1-.395.33l-.743-1.584c.561-.28.643-.429.643-.808v-12.6l1.666.742h3.894l.742-.808,1.55,1.2a1.291,1.291,0,0,1-.693.33v5.724a1.878,1.878,0,0,1-1.2.478h-.231v-.61h-2.392a11.492,11.492,0,0,0,1.436,3.051,26.359,26.359,0,0,0,2.078-2.441Zm-2.639-5.229v-2.376h-4.272v2.376Zm-4.272,2.985h4.272v-2.507h-4.272Z" fill="#5f7563"/>
          <path id="Path_8149" data-name="Path 8149" d="M1497.179,3690.693s1.17.874,1.879,1.485c-.048.181-.23.263-.461.263h-2.1v11.366c0,1.138-.314,1.962-2.524,2.127a1.5,1.5,0,0,0-.528-1.154,4.713,4.713,0,0,0-2.012-.594v-.231s2.524.165,3.019.165c.346,0,.462-.116.462-.4v-11.283h-11.1l-.148-.478h12.471Zm-5.213,10.821a2.169,2.169,0,0,1-1.27.428h-.248v-1.319h-3.364v1.484c0,.149-.61.5-1.254.5h-.231v-8.016l1.567.676h3.117l.759-.841,1.617,1.237a1.232,1.232,0,0,1-.693.346Zm-1.518-1.37v-4.4h-3.364v4.4Z" fill="#5f7563"/>
          <path id="Path_8150" data-name="Path 8150" d="M1515.014,3703.988c.461.165.561.346.561.643,0,.66-.61.957-3.3.957h-1.782c-1.5,0-1.83-.3-1.83-1.386v-4.041h-1.5c-.429,3.349-2.342,5.014-6.763,5.74l-.065-.231c3.513-1.1,4.8-2.688,5.1-5.509h-.826v.479c0,.181-.659.527-1.319.527h-.23v-10.21l1.649.693h6.449l.792-.875,1.633,1.271a1.136,1.136,0,0,1-.692.346v8.165a2.195,2.195,0,0,1-1.321.445h-.247v-.841h-1.1v3.7c0,.231.05.3.61.3h1.567c.611,0,1.138,0,1.37-.017a.386.386,0,0,0,.379-.231,15.9,15.9,0,0,0,.643-2.226h.2Zm-10.409-11.876v2.16h6.714v-2.16Zm6.714,2.639H1504.6v2.21h6.714Zm-6.714,4.932h6.714v-2.244H1504.6Z" fill="#5f7563"/>
          <path id="Path_8151" data-name="Path 8151" d="M1524.141,3694.075a1.426,1.426,0,0,1-.693.346v9.946a1.964,1.964,0,0,1-1.253.462h-.231v-1.27h-2.919v1.27c0,.165-.562.528-1.188.528h-.248v-12.371l1.518.693h.3c.148-.874.346-2.145.462-3.052l2.276.544c-.082.264-.3.38-.66.38-.4.627-.973,1.468-1.435,2.128h1.732l.758-.858Zm-5.1.082v4.107h2.919v-4.107Zm2.919,8.923v-4.337h-2.919v4.337Zm10.226-9.005a1.054,1.054,0,0,1-.709.3c-.115,6.4-.379,9.716-1.22,10.672a2.68,2.68,0,0,1-2.194.858,1.459,1.459,0,0,0-.346-1.138,3.737,3.737,0,0,0-1.7-.627l.017-.264c.775.083,1.93.165,2.326.165a.787.787,0,0,0,.644-.214c.61-.594.807-4.058.923-9.7h-3.464a13.44,13.44,0,0,1-2.639,3.464l-.231-.149a23.621,23.621,0,0,0,2.424-6.812l2.195.643c-.067.2-.264.347-.627.347a15.889,15.889,0,0,1-.874,2.028h3.035l.89-.94Zm-7.059,2.952c4.454,1.567,3,4.767,1.5,3.513a7.578,7.578,0,0,0-1.65-3.414Z" fill="#5f7563"/>
          <path id="Path_8152" data-name="Path 8152" d="M1541.763,3696.021c.577,3.084,2.424,6.251,7.174,8.264l-.032.181a1.714,1.714,0,0,0-1.517,1.485c-4.158-2.409-5.444-6.417-5.906-9.7-.478,3.909-2.062,7.29-7.9,9.7l-.182-.264c4.7-2.689,6.054-5.939,6.434-9.666h-6.12l-.149-.479h6.3c.132-1.55.115-3.183.115-4.882l2.342.231c-.049.248-.2.412-.594.479-.033,1.435-.049,2.836-.165,4.172h4.174l1.071-1.352s1.221.924,1.948,1.567c-.05.181-.232.264-.462.264Z" fill="#5f7563"/>
          <path id="Path_8153" data-name="Path 8153" d="M1555.591,3695.328c-.066.2-.214.313-.659.3a17.866,17.866,0,0,1-4.718,7.406l-.182-.165a23.194,23.194,0,0,0,3.2-8.329Zm3.7-4.3c-.033.247-.2.4-.61.462v12.288c0,1.2-.281,1.93-2.475,2.145a1.8,1.8,0,0,0-.478-1.2,3.828,3.828,0,0,0-1.815-.627v-.231s2.228.148,2.673.148c.346,0,.445-.115.445-.363v-12.849Zm4.255,11.052a17.157,17.157,0,0,0-3.1-7.126l.215-.116C1566.89,3698.908,1565.537,3703.823,1563.541,3702.075Z" fill="#5f7563"/>
        </g>
      </g>
      <g id="Group_1731" data-name="Group 1731">
        <path id="Path_8154" data-name="Path 8154" d="M1485.322,3629.023c-.157.182-.353.243-.787.264a17.5,17.5,0,0,1-3.523,2.11l-.138-.122a23.661,23.661,0,0,0,.709-2.6h-11.535a3.117,3.117,0,0,1-1.024,3.145,1.641,1.641,0,0,1-2.382-.933,1.822,1.822,0,0,1,1.123-2.151,2.661,2.661,0,0,0,1.5-2.03h.216a7.245,7.245,0,0,1,.453,1.4h5.9a2.449,2.449,0,0,1-.787-.406,3.99,3.99,0,0,0-1.221-2.983l.1-.1c5.176-.3,4.724,2.942,2.952,3.491h4.567l1.437-1.462Zm-2.972,1.785s1.536,1.1,2.5,1.888c-.04.223-.275.325-.551.325h-9.133a18.076,18.076,0,0,1-8.346,10.045l-.178-.162a25.391,25.391,0,0,0,5.493-9.883h-4.39l-.157-.568h4.723a28.6,28.6,0,0,0,.748-3.552l3.8.893c-.078.284-.314.467-.787.487-.217.751-.453,1.482-.688,2.172h5.59Zm-3.188,6.495c7.774,2.009,5.393,8.259,2.5,5.926a10.363,10.363,0,0,0-.59-2.233,72.806,72.806,0,0,1-7.6,2.334,1.159,1.159,0,0,1-.59.426l-1.182-3.084a6.164,6.164,0,0,0,1.595-.427c1.062-.994,2.717-4.566,3.208-6.575l3.484,1.5c-.078.2-.314.345-.728.345a26.6,26.6,0,0,1-5.177,5.175c1.811-.041,4.252-.162,6.713-.345a14.074,14.074,0,0,0-1.792-2.922Z" fill="#fff"/>
        <path id="Path_8155" data-name="Path 8155" d="M1508.513,3640.793a1,1,0,0,1,.571,1.056c0,.913-.709,1.481-2.442,1.481h-.767c-1.555,0-1.712-.507-1.712-2.029v-4.932h-.414c-.118,3.613-1.142,5.967-4.743,7.347l-.079-.244a6.769,6.769,0,0,0,1.279-1.339h-6.318v.548c0,.162-.709.71-1.91.71h-.413v-5.906a9.784,9.784,0,0,1-1.162.934l-.256-.162a21.439,21.439,0,0,0,1.93-5.176,2.655,2.655,0,0,1-.866.143h-.316V3628.5l2.008.812h.335l.787-.832,1.615,1.238v-1.238l2.027.832h.3l.788-.832,1.673,1.278a.884.884,0,0,1-.532.264v2.4a2.605,2.605,0,0,1-1.476.487h-.316v-.589h-.688v.2c0,.1-.335.385-.945.507,1.614.548,1.024,1.766.059,1.928h1.043l1.024-1.3s1.141.893,1.87,1.542c-.059.223-.256.325-.531.325h-2.52v1.583h.079l.964-1.238s1.1.852,1.791,1.481c-.059.224-.256.325-.531.325h-2.3v1.644h.079l.964-1.238s1.1.852,1.791,1.482c-.059.223-.256.324-.531.324h-2.3v1.684h.354l1.043-1.359s.985.771,1.713,1.42a8.633,8.633,0,0,0,.846-4.423,2.093,2.093,0,0,1-.353.02h-.454v-10.168h-2.244v.934a3.688,3.688,0,0,1-2.008.507h-.432v-4.059l2.991.264c-.019.223-.138.386-.551.446v1.34h.276l.925-1.36s.532.467,1.043.974v-1.339l2.7,1.035h1.831l1.24-1.461,2.244,1.827a1.136,1.136,0,0,1-.807.425v9.66a2.1,2.1,0,0,1-1.2.548v3.816c0,.223.039.3.2.3h.374c.137,0,.2-.041.3-.223a19.63,19.63,0,0,0,.807-2.435h.217Zm-18.346-14.307h2.323v-2.05l2.972.264c-.039.223-.157.386-.571.446v2.943a3.626,3.626,0,0,1-1.968.487h-.433v-1.522h-2.145Zm2.48,6.21c0,.041-.079.122-.2.2l2.4.872a.707.707,0,0,1-.767.407l-.355.609.413.162h1.949a1.529,1.529,0,0,1-.768-.386,3.87,3.87,0,0,0-.393-1.725l.157-.081c.2.02.374.04.552.061v-3.065a.836.836,0,0,1-.512.264v2.476c0,.142-.886.487-1.457.487h-.3v-.67h-.729Zm0-2.821v1.867h.729v-1.867Zm2.5,5.642h-1.259v1.583h1.259Zm0,2.151h-1.259v1.644h1.259Zm-1.259,3.9h1.259v-1.684h-1.259Zm3.523-11.689v1.867h.688v-1.867Zm5.609-3.511v3.024h2.166v-3.024Zm2.166,3.592h-2.166v2.618h2.166Zm-2.166,3.186v2.659h2.166v-2.659Z" fill="#fff"/>
      </g>
    </g>
    <path id="Path_8156" data-name="Path 8156" d="M927.56,3639.982H822.251l7.977-8.637" fill="none" stroke="#5f7563" stroke-miterlimit="10" stroke-width="1"/>
    <path id="Path_8157" data-name="Path 8157" d="M1351.374,3639.982H1246.065l7.977-8.637" fill="none" stroke="#5f7563" stroke-miterlimit="10" stroke-width="1"/>
  </g>
</svg>
