<svg xmlns="http://www.w3.org/2000/svg" width="254.312" height="44.502" viewBox="0 0 254.312 44.502">
  <g id="Group_1656" data-name="Group 1656" transform="translate(-63 -48.955)">
    <g id="Group_1654" data-name="Group 1654">
      <path id="Path_12493" data-name="Path 12493" d="M82.1,71.488a.232.232,0,0,0,0-.046s-.147-.341-.329-.912c-.091-.286-.188-.64-.279-1.027l0,.009s-2.532-7.474,5.733-13.353c0,0,4.525-3.99,13.043-1.354a22.371,22.371,0,0,0-4.8-3.358,22.142,22.142,0,0,0-10.886-2.48,16.253,16.253,0,0,0-5.787,8.69A13.536,13.536,0,0,0,82.1,71.488Z" fill="#5f7563"/>
      <path id="Path_12494" data-name="Path 12494" d="M81.429,73.437c-.15-.166-5.158-5.4-11.415-5.506a24.644,24.644,0,0,0-5.922.612c-.316.072-.623.14-.942.2a21.024,21.024,0,0,0,.046,5.367,12.114,12.114,0,0,1,7.436-2.634A26.258,26.258,0,0,1,81.429,73.437Z" fill="#5f7563"/>
      <path id="Path_12495" data-name="Path 12495" d="M67.679,60.661c.081-.017.163-.033.242-.058l0,.009a7.49,7.49,0,0,1,.85-.34c.079-.025.161-.041.24-.066s.138-.054.208-.077c3.128-1,6.342.339,7.182,2.976.03.1.05.187.078.274l.063.048a16.293,16.293,0,0,1,.66-6.251,18.843,18.843,0,0,1,4.553-7.948A21.113,21.113,0,0,0,78.5,50,22.168,22.168,0,0,0,65.555,60.922a5.5,5.5,0,0,0,2.126-.252Z" fill="#5f7563"/>
      <path id="Path_12496" data-name="Path 12496" d="M108.069,70.915a17.2,17.2,0,0,0-2.816-9.06,10.563,10.563,0,0,0-1.312-1.741c-.167-.192-.263-.287-.263-.287a11.745,11.745,0,0,0-3.157-2.255,12.458,12.458,0,0,0-3.58-1.078,11.4,11.4,0,0,0-2.073-.084,15.487,15.487,0,0,0-6.1,1.455,9.613,9.613,0,0,0-2.68,1.936,10.138,10.138,0,0,0-2.837,5.758,9.985,9.985,0,0,0,.108,3.33c.073.362.17.718.279,1.072.08.254.167.485.263.724.031.079.063.151.095.23a10.082,10.082,0,0,0,4.438,4.852l.064.024a.31.31,0,0,0,.088.048.624.624,0,0,0,.167.079.441.441,0,0,0,.079.056,6.227,6.227,0,0,0,4.59.493.618.618,0,0,0,.119-.016.435.435,0,0,0,.175-.1,4.7,4.7,0,0,1-1.209.047,4.394,4.394,0,0,1-3.921-4.819,4.269,4.269,0,0,1,.127-.661,4.422,4.422,0,0,1,4.78-3.134,4.632,4.632,0,0,1,2.243.915,4.168,4.168,0,0,1,.478.421c.007-.015.007-.023.015-.039A5.8,5.8,0,0,1,97.4,70.915a5.642,5.642,0,0,1-1.5,6.324,6.093,6.093,0,0,1-2.768,1.344,7.68,7.68,0,0,1-2.736.2,11.616,11.616,0,0,1-4.486-1.591c-.613-.35-1.225-.724-1.853-1.09-.883-.525-1.75-1.073-2.673-1.551a15.064,15.064,0,0,0-4.637-1.5,19.572,19.572,0,0,0-3.611-.183A16.925,16.925,0,0,0,65.674,74.9a18.033,18.033,0,0,0-2.053,1.273.165.165,0,0,1-.047.039c.135.589.286,1.178.477,1.758a21.892,21.892,0,0,0,5.25,8.718c.135.143.27.278.4.414s.287.278.438.421c.286.263.573.509.859.756a.192.192,0,0,1,.064.048,22.358,22.358,0,0,0,14.357,5.13h.111c.191,0,.382,0,.573-.016a22.521,22.521,0,0,0,21.778-19.623q.048-.3.072-.6a15.705,15.705,0,0,0,.119-2.164A.857.857,0,0,0,108.069,70.915Z" fill="#5f7563"/>
      <path id="Path_12497" data-name="Path 12497" d="M77.965,68.308a13.147,13.147,0,0,0-13.287-5.489,20.536,20.536,0,0,0-1.116,3.512c.426-.06.845-.129,1.268-.195C67.331,65.832,73.093,65.536,77.965,68.308Z" fill="#5f7563"/>
    </g>
    <g id="Group_1655" data-name="Group 1655">
      <path id="Path_12498" data-name="Path 12498" d="M154.413,56.723h-3.8c-.124,0-.167.042-.167.126L139.566,81.12a.194.194,0,0,1-.334,0L128.6,56.849a.227.227,0,0,0-.167-.126h-3.754c-.125,0-.166.042-.166.167,0,4.9-.043,16.057-.043,22.135v6.832a.2.2,0,0,0,.209.21H125.8c.126,0,.167-.083.167-.21V61.711c0-.168.251-.252.375-.041l10.593,24.271c.043.084.084.126.167.126H138.9a.221.221,0,0,0,.166-.126L150.2,61.082c.125-.167.375-.125.375.084V85.857c0,.127.041.21.167.21h3.67a.2.2,0,0,0,.208-.21V56.933A.2.2,0,0,0,154.413,56.723Z" fill="#5f7563"/>
      <path id="Path_12499" data-name="Path 12499" d="M164.928,56.723H161.3c-.125,0-.209.042-.209.167V86.067h3.88c.124,0,.166-.083.166-.21V56.89C165.137,56.765,165.054,56.723,164.928,56.723Z" fill="#5f7563"/>
      <path id="Path_12500" data-name="Path 12500" d="M196.212,56.723h-.417c-.376,0-.542.167-.542.545V78.229c0,.376-.167.545-.543.545a.657.657,0,0,1-.416-.21L175.9,56.933a.668.668,0,0,0-.459-.21h-3.294c-.376,0-.543.167-.543.545V85.522c0,.378.167.545.543.545h.416c.376,0,.543-.167.543-.545V61.711c0-.376.168-.545.542-.545a.659.659,0,0,1,.418.21L194.5,85.857a.537.537,0,0,0,.459.21h1.252c.375,0,.542-.167.542-.545V57.268C196.754,56.89,196.587,56.723,196.212,56.723Z" fill="#5f7563"/>
      <path id="Path_12501" data-name="Path 12501" d="M219.612,56.723H203.431a.2.2,0,0,0-.209.21V85.857a.2.2,0,0,0,.209.21h16.181a.2.2,0,0,0,.209-.21V84.726c0-.126-.083-.167-.209-.167H207.475a.2.2,0,0,1-.207-.21V71.814c0-.125.083-.168.207-.168h9.551a.2.2,0,0,0,.209-.208V70.305c0-.125-.083-.168-.209-.168h-9.592c-.125,0-.166-.083-.166-.21V58.442c0-.127.041-.21.166-.21h12.178c.126,0,.209-.042.209-.168V56.933A.2.2,0,0,0,219.612,56.723Z" fill="#5f7563"/>
      <path id="Path_12502" data-name="Path 12502" d="M280.885,56.723H279.76c-.126,0-.167.084-.167.21V74.707c0,6.875-3.5,10.313-8.215,10.313-4.464,0-7.884-2.893-7.884-10.27V56.933c0-.126-.041-.21-.167-.21h-3.669a.2.2,0,0,0-.208.21V74.2c0,8.594,5.254,12.282,11.092,12.282,6.13,0,10.551-3.9,10.551-12.114V56.933A.2.2,0,0,0,280.885,56.723Z" fill="#5f7563"/>
      <path id="Path_12503" data-name="Path 12503" d="M302.451,55.926c-9.3-.335-15.679,5.952-16.015,14.673-.333,8.845,5.716,15.552,14.889,15.887,9.218.337,15.641-5.784,15.974-14.672C317.632,62.885,311.586,56.261,302.451,55.926Zm10.176,18.4c-.459,7.63-5.8,11.655-11.427,10.983-7.672-.88-11.384-8.97-10.384-16.894.877-7.628,5.8-11.653,11.468-11.107C309.917,58.106,313.3,65.107,312.627,74.329Z" fill="#5f7563"/>
      <path id="Path_12504" data-name="Path 12504" d="M257.424,83.953a.739.739,0,0,0-.317.111c-.1.057-.212.1-.321.145a5.665,5.665,0,0,1-.608.223q-.5.146-.918.23a4.8,4.8,0,0,1-.874.084,6.63,6.63,0,0,1-3.894-1.376c-.341-.255-.684-.509-1.025-.765a15.028,15.028,0,0,0,4.774-10.791c.334-8.929-5.712-15.553-14.848-15.888-9.3-.335-15.678,5.952-16.014,14.673-.241,6.4,2.89,11.639,8.1,14.2a.352.352,0,0,0,.133.1l.16.066a16.8,16.8,0,0,0,6.5,1.525,16.246,16.246,0,0,0,8.795-2.047c-.649-.361-1.3-.7-1.949-1.016a9.621,9.621,0,0,1-6.972,1.889,10.567,10.567,0,0,1-4.732-1.73,6.773,6.773,0,0,1,1.861-1.629,9.072,9.072,0,0,1,6.79-.631c3.127.811,5.791,2.685,8.628,4.143a5.942,5.942,0,0,0,4.342.5,9.364,9.364,0,0,0,.968-.305,6.073,6.073,0,0,0,.923-.407c.092-.055.18-.118.287-.182a1.9,1.9,0,0,0,.4-.33.791.791,0,0,0,.238-.441C257.852,84.085,257.613,83.946,257.424,83.953ZM246.872,80.87a14.414,14.414,0,0,0-4.679-1.511,13.176,13.176,0,0,0-4.849-.021,12.7,12.7,0,0,0-1.535.464,7.051,7.051,0,0,0-3.507,2.935c-3.637-3.185-5.242-8.788-4.544-14.319.877-7.628,5.8-11.653,11.469-11.107,7.633.795,11.012,7.8,10.343,17.018a13.094,13.094,0,0,1-2.237,6.834C247.176,81.07,247.033,80.956,246.872,80.87Z" fill="#5f7563"/>
    </g>
  </g>
</svg>
