<?xml version="1.0" encoding="utf-8"?>
<!-- Generator: Adobe Illustrator 25.0.0, SVG Export Plug-In . SVG Version: 6.00 Build 0)  -->
<svg version="1.1" id="圖層_1" xmlns="http://www.w3.org/2000/svg" xmlns:xlink="http://www.w3.org/1999/xlink" x="0px" y="0px"
	 viewBox="0 0 423 44.5" style="enable-background:new 0 0 423 44.5;" xml:space="preserve">
<style type="text/css">
	.st0{fill:#FFFFFF;}
</style>
<g id="Group_2243" transform="translate(-63 -48.955)">
	<g id="Group_2241">
		<path id="Path_17383" class="st0" d="M82.1,71.5C82.1,71.5,82.1,71.5,82.1,71.5c0,0-0.1-0.4-0.3-1c-0.1-0.3-0.2-0.6-0.3-1v0
			c0,0-2.5-7.5,5.7-13.4c0,0,4.5-4,13-1.4c-1.4-1.3-3.1-2.5-4.8-3.4c-3.4-1.7-7.1-2.6-10.9-2.5c-2.8,2.2-4.9,5.2-5.8,8.7
			C77.2,62.5,78.5,67.9,82.1,71.5z"/>
		<path id="Path_17384" class="st0" d="M81.4,73.4c-0.2-0.2-5.2-5.4-11.4-5.5c-2,0-4,0.2-5.9,0.6c-0.3,0.1-0.6,0.1-0.9,0.2
			c-0.2,1.8-0.2,3.6,0,5.4c2.1-1.7,4.7-2.6,7.4-2.6C74.3,71.4,78,72,81.4,73.4z"/>
		<path id="Path_17385" class="st0" d="M67.7,60.7c0.1,0,0.2,0,0.2-0.1v0c0.3-0.1,0.6-0.2,0.8-0.3c0.1,0,0.2,0,0.2-0.1
			s0.1-0.1,0.2-0.1c3.1-1,6.3,0.3,7.2,3c0,0.1,0.1,0.2,0.1,0.3l0.1,0c-0.2-2.1,0-4.2,0.7-6.3c0.8-3,2.4-5.7,4.6-7.9
			c-1.1,0.2-2.2,0.4-3.3,0.8c-5.6,1.8-10.2,5.7-12.9,10.9C66.3,61,67,60.9,67.7,60.7L67.7,60.7z"/>
		<path id="Path_17386" class="st0" d="M108.1,70.9c-0.1-3.2-1-6.4-2.8-9.1c-0.4-0.6-0.8-1.2-1.3-1.7c-0.2-0.2-0.3-0.3-0.3-0.3
			c-0.9-0.9-2-1.7-3.2-2.3c-1.1-0.5-2.3-0.9-3.6-1.1c-0.7-0.1-1.4-0.1-2.1-0.1c-2.1,0.1-4.2,0.6-6.1,1.5c-1,0.5-1.9,1.1-2.7,1.9
			c-1.5,1.6-2.5,3.6-2.8,5.8c-0.2,1.1-0.1,2.2,0.1,3.3c0.1,0.4,0.2,0.7,0.3,1.1c0.1,0.3,0.2,0.5,0.3,0.7c0,0.1,0.1,0.2,0.1,0.2
			c0.9,2.1,2.5,3.8,4.4,4.9l0.1,0c0,0,0.1,0,0.1,0c0.1,0,0.1,0.1,0.2,0.1c0,0,0.1,0,0.1,0.1c1.4,0.7,3.1,0.9,4.6,0.5
			c0,0,0.1,0,0.1,0c0.1,0,0.1-0.1,0.2-0.1c-0.4,0.1-0.8,0.1-1.2,0c-2.4-0.2-4.2-2.4-3.9-4.8c0-0.2,0.1-0.4,0.1-0.7
			c0.6-2.1,2.6-3.4,4.8-3.1c0.8,0.1,1.6,0.4,2.2,0.9c0.2,0.1,0.3,0.3,0.5,0.4c0,0,0,0,0,0c0.5,0.5,0.9,1.2,1.2,1.8
			c0.9,2.2,0.3,4.7-1.5,6.3c-0.8,0.7-1.7,1.1-2.8,1.3c-0.9,0.2-1.8,0.3-2.7,0.2c-1.6-0.2-3.1-0.8-4.5-1.6c-0.6-0.3-1.2-0.7-1.9-1.1
			c-0.9-0.5-1.8-1.1-2.7-1.6c-1.5-0.7-3-1.3-4.6-1.5c-1.2-0.2-2.4-0.2-3.6-0.2c-2.6,0.1-5.2,0.8-7.5,2c-0.7,0.4-1.4,0.8-2.1,1.3
			c0,0,0,0,0,0c0.1,0.6,0.3,1.2,0.5,1.8c1,3.3,2.8,6.3,5.2,8.7c0.1,0.1,0.3,0.3,0.4,0.4s0.3,0.3,0.4,0.4c0.3,0.3,0.6,0.5,0.9,0.8
			c0,0,0,0,0.1,0c4,3.3,9.1,5.2,14.4,5.1h0.1c0.2,0,0.4,0,0.6,0c11.1-0.3,20.4-8.6,21.8-19.6c0-0.2,0.1-0.4,0.1-0.6
			c0.1-0.7,0.1-1.4,0.1-2.2C108.1,71,108.1,71,108.1,70.9z"/>
		<path id="Path_17387" class="st0" d="M78,68.3c-2.9-4.3-8.2-6.5-13.3-5.5c-0.5,1.1-0.8,2.3-1.1,3.5c0.4-0.1,0.8-0.1,1.3-0.2
			C67.3,65.8,73.1,65.5,78,68.3z"/>
	</g>
	<g id="Group_2242">
		<path id="Path_17388" class="st0" d="M154.4,56.7h-3.8c-0.1,0-0.2,0-0.2,0.1l-10.9,24.3c-0.1,0.1-0.2,0.1-0.3,0.1
			c0,0-0.1,0-0.1-0.1l-10.6-24.3c0-0.1-0.1-0.1-0.2-0.1h-3.8c-0.1,0-0.2,0-0.2,0.2c0,4.9,0,16.1,0,22.1v6.8c0,0.1,0.1,0.2,0.2,0.2
			c0,0,0,0,0,0h1.1c0.1,0,0.2-0.1,0.2-0.2V61.7c0-0.2,0.3-0.3,0.4,0l10.6,24.3c0,0.1,0.1,0.1,0.2,0.1h1.8c0.1,0,0.1-0.1,0.2-0.1
			l11.1-24.9c0.1-0.2,0.4-0.1,0.4,0.1v24.7c0,0.1,0,0.2,0.2,0.2h3.7c0.1,0,0.2-0.1,0.2-0.2c0,0,0,0,0,0V56.9
			C154.6,56.8,154.5,56.7,154.4,56.7C154.4,56.7,154.4,56.7,154.4,56.7z"/>
		<path id="Path_17389" class="st0" d="M164.9,56.7h-3.6c-0.1,0-0.2,0-0.2,0.2v29.2h3.9c0.1,0,0.2-0.1,0.2-0.2v-29
			C165.1,56.8,165.1,56.7,164.9,56.7z"/>
		<path id="Path_17390" class="st0" d="M196.2,56.7h-0.4c-0.4,0-0.5,0.2-0.5,0.5v21c0,0.4-0.2,0.5-0.5,0.5c-0.2,0-0.3-0.1-0.4-0.2
			l-18.4-21.6c-0.1-0.1-0.3-0.2-0.5-0.2h-3.3c-0.4,0-0.5,0.2-0.5,0.5v28.3c0,0.4,0.2,0.5,0.5,0.5h0.4c0.4,0,0.5-0.2,0.5-0.5V61.7
			c0-0.4,0.2-0.5,0.5-0.5c0.2,0,0.3,0.1,0.4,0.2l20.4,24.5c0.1,0.1,0.3,0.2,0.5,0.2h1.3c0.4,0,0.5-0.2,0.5-0.5V57.3
			C196.8,56.9,196.6,56.7,196.2,56.7z"/>
		<path id="Path_17391" class="st0" d="M219.6,56.7h-16.2c-0.1,0-0.2,0.1-0.2,0.2c0,0,0,0,0,0v28.9c0,0.1,0.1,0.2,0.2,0.2
			c0,0,0,0,0,0h16.2c0.1,0,0.2-0.1,0.2-0.2c0,0,0,0,0,0v-1.1c0-0.1-0.1-0.2-0.2-0.2h-12.1c-0.1,0-0.2-0.1-0.2-0.2c0,0,0,0,0,0V71.8
			c0-0.1,0.1-0.2,0.2-0.2h9.6c0.1,0,0.2-0.1,0.2-0.2c0,0,0,0,0,0v-1.1c0-0.1-0.1-0.2-0.2-0.2h-9.6c-0.1,0-0.2-0.1-0.2-0.2V58.4
			c0-0.1,0-0.2,0.2-0.2h12.2c0.1,0,0.2,0,0.2-0.2v-1.1C219.8,56.8,219.7,56.7,219.6,56.7C219.6,56.7,219.6,56.7,219.6,56.7z"/>
		<path id="Path_17392" class="st0" d="M280.9,56.7h-1.1c-0.1,0-0.2,0.1-0.2,0.2v17.8c0,6.9-3.5,10.3-8.2,10.3
			c-4.5,0-7.9-2.9-7.9-10.3V56.9c0-0.1,0-0.2-0.2-0.2h-3.7c-0.1,0-0.2,0.1-0.2,0.2c0,0,0,0,0,0v17.3c0,8.6,5.3,12.3,11.1,12.3
			c6.1,0,10.6-3.9,10.6-12.1V56.9C281.1,56.8,281,56.7,280.9,56.7C280.9,56.7,280.9,56.7,280.9,56.7z"/>
		<path id="Path_17393" class="st0" d="M302.5,55.9c-9.3-0.3-15.7,6-16,14.7c-0.3,8.8,5.7,15.6,14.9,15.9c9.2,0.3,15.6-5.8,16-14.7
			C317.6,62.9,311.6,56.3,302.5,55.9z M312.6,74.3c-0.5,7.6-5.8,11.7-11.4,11c-7.7-0.9-11.4-9-10.4-16.9c0.9-7.6,5.8-11.7,11.5-11.1
			C309.9,58.1,313.3,65.1,312.6,74.3L312.6,74.3z"/>
		<path id="Path_17394" class="st0" d="M257.4,84c-0.1,0-0.2,0.1-0.3,0.1c-0.1,0.1-0.2,0.1-0.3,0.1c-0.2,0.1-0.4,0.2-0.6,0.2
			c-0.3,0.1-0.6,0.2-0.9,0.2c-0.3,0.1-0.6,0.1-0.9,0.1c-1.4,0-2.8-0.5-3.9-1.4c-0.3-0.3-0.7-0.5-1-0.8c3-2.8,4.7-6.7,4.8-10.8
			c0.3-8.9-5.7-15.6-14.8-15.9c-9.3-0.3-15.7,6-16,14.7c-0.2,6.4,2.9,11.6,8.1,14.2c0,0,0.1,0.1,0.1,0.1l0.2,0.1
			c2,0.9,4.3,1.5,6.5,1.5c3.1,0.2,6.1-0.5,8.8-2c-0.6-0.4-1.3-0.7-1.9-1c-2,1.5-4.5,2.2-7,1.9c-1.7-0.2-3.3-0.8-4.7-1.7
			c0.5-0.7,1.1-1.2,1.9-1.6c2.1-1.1,4.5-1.3,6.8-0.6c3.1,0.8,5.8,2.7,8.6,4.1c1.3,0.7,2.9,0.9,4.3,0.5c0.3-0.1,0.7-0.2,1-0.3
			c0.3-0.1,0.6-0.2,0.9-0.4c0.1-0.1,0.2-0.1,0.3-0.2c0.1-0.1,0.3-0.2,0.4-0.3c0.1-0.1,0.2-0.3,0.2-0.4
			C257.9,84.1,257.6,83.9,257.4,84z M246.9,80.9c-1.5-0.8-3-1.3-4.7-1.5c-1.6-0.3-3.2-0.3-4.8,0c-0.5,0.1-1,0.3-1.5,0.5
			c-1.5,0.6-2.7,1.6-3.5,2.9c-3.6-3.2-5.2-8.8-4.5-14.3c0.9-7.6,5.8-11.7,11.5-11.1c7.6,0.8,11,7.8,10.3,17
			c-0.1,2.4-0.9,4.8-2.2,6.8C247.2,81.1,247,81,246.9,80.9z"/>
	</g>
</g>
<g>
	<g>
		<path class="st0" d="M295.2,9.1c0.4,0.6,0.9,1.3,1.3,1.9c0.4,0.7,0.8,1.3,1.2,2c0.4,0.7,0.7,1.3,1,1.9c0.3,0.5,0.6,0.7,1,0.8
			c0,0,0,0,0.1,0c0.4,0,0.7-0.2,1-0.5c0.2-0.3,0.4-0.7,0.5-1.1c0.1-0.4,0.2-0.8,0.1-1.2c0-0.4-0.2-0.8-0.5-1.2
			c-0.2-0.3-0.5-0.7-1-1.2c-0.4-0.5-0.9-1-1.5-1.5c-0.5-0.5-1.1-1-1.7-1.5c-0.6-0.5-1.2-0.9-1.7-1.2c-0.2-0.1-0.4-0.1-0.5,0
			c-0.2,0.1-0.3,0.2-0.4,0.3c-0.1,0.1-0.2,0.3-0.2,0.4c0,0.2,0,0.4,0.1,0.5C294.3,7.9,294.8,8.4,295.2,9.1z"/>
		<path class="st0" d="M313,16.4c0.1,0.1,0.3,0.2,0.4,0.3c0.1,0,0.1,0,0.2,0c0.1,0,0.2,0,0.3-0.1c0.7-0.5,1.5-1.2,2.2-1.9
			c0.8-0.7,1.5-1.5,2.1-2.3c0.7-0.8,1.2-1.5,1.7-2.1c0.5-0.7,0.8-1.1,1-1.4c0.2-0.2,0.3-0.4,0.3-0.7c0.1-0.3,0-0.6-0.3-0.9
			c-0.1-0.1-0.2-0.2-0.4-0.3c-0.2-0.2-0.5-0.3-0.7-0.5c-0.4-0.2-0.7-0.3-1-0.2c-0.3,0.1-0.6,0.4-0.8,0.8c-0.8,1.6-1.6,3-2.4,4.3
			c-0.8,1.3-1.8,2.6-2.9,4c-0.1,0.1-0.2,0.3-0.1,0.5C312.8,16.2,312.9,16.3,313,16.4z"/>
		<path class="st0" d="M325.9,33.3c-3.2-1.5-6.1-3.5-8.7-5.9c-2.5-2.4-4.7-5-6.5-7.8h14.9c0.6,0,0.7-0.4,0.7-0.6v-0.6
			c0-0.2-0.1-0.6-0.7-0.6h-16.4V3.6c0-0.4-0.1-0.7-0.3-0.9c-0.2-0.2-0.4-0.3-0.7-0.3h-1c-0.3,0-0.5,0.1-0.7,0.3
			c-0.2,0.2-0.3,0.5-0.3,0.9v14.2h-16.7c-0.4,0-0.7,0.2-0.7,0.6V19c0,0.4,0.2,0.6,0.7,0.6h13.8c-0.6,1.1-1.4,2.4-2.3,3.6
			c-1,1.4-2.1,2.8-3.4,4.2c-1.3,1.4-2.7,2.9-4.3,4.4c-1.6,1.5-3.3,3-5.1,4.4c-0.2,0.1-0.2,0.3-0.2,0.5c0,0.2,0.1,0.3,0.1,0.5
			c0.1,0.1,0.2,0.3,0.3,0.4c0.2,0.2,0.4,0.1,0.5,0.1c2-1.1,3.9-2.3,5.6-3.7c1.8-1.4,3.5-2.9,5-4.5c1.5-1.6,2.9-3.1,4.1-4.7
			c1-1.4,1.9-2.7,2.6-3.9v18c0,0.4,0.1,0.7,0.3,0.8c0.2,0.1,0.4,0.2,0.6,0.2h1c0.3,0,0.5-0.1,0.7-0.2c0.2-0.2,0.3-0.4,0.3-0.8V20.1
			c0.7,1.6,1.6,3.2,2.6,4.7c1.1,1.7,2.3,3.3,3.6,4.7c1.3,1.4,2.6,2.7,4,3.9c1.4,1.1,2.7,2.1,4,2.7c0.7,0.3,1.2,0.1,1.5-0.2
			c0.6-0.5,1-1,1.3-1.5c0.1-0.2,0.2-0.4,0.1-0.6C326.3,33.6,326.2,33.4,325.9,33.3z"/>
	</g>
	<g>
		<path class="st0" d="M370.1,17c-3-0.7-5.7-1.8-8.1-3.1c-2.3-1.2-4.5-2.8-6.6-4.7H368c0.6,0,0.7-0.4,0.7-0.6V8.2
			c0-0.2-0.1-0.6-0.7-0.6h-17.5c0.6-1,1.1-2.2,1.6-3.4c0.1-0.2,0.1-0.4,0.1-0.6c-0.1-0.2-0.3-0.4-0.6-0.6c-0.1-0.1-0.3-0.1-0.5-0.2
			c-0.2-0.1-0.5-0.1-0.8-0.2c-0.3-0.1-0.8,0-1.1,0.6c-0.5,1.5-1.2,3-2.1,4.4H334c-0.4,0-0.7,0.2-0.7,0.6v0.5c0,0.4,0.2,0.6,0.7,0.6
			h11.8c-1.5,2-3.4,3.8-5.7,5.4c-2.4,1.7-5.2,3.3-8.3,4.9l0,0c-0.1,0.1-0.2,0.2-0.2,0.4c0,0.2,0,0.3,0.1,0.5
			c0.1,0.1,0.1,0.3,0.3,0.4c0.1,0.1,0.2,0.1,0.3,0.1c0.1,0,0.1,0,0.2,0c4-1.4,7.4-3.1,10.2-5c2.7-1.8,5-4.1,6.8-6.7h4.1
			c2.5,2.9,5,5.2,7.3,6.8c2.4,1.6,4.7,2.8,6.8,3.5c0.6,0.2,1,0.2,1.4-0.1c0.4-0.2,0.6-0.5,0.8-0.7c0.2-0.2,0.4-0.4,0.6-0.6
			c0.2-0.2,0.3-0.4,0.2-0.6C370.6,17.4,370.5,17.1,370.1,17z"/>
		<path class="st0" d="M366.9,35.1c-0.9-0.8-1.7-1.5-2.3-2.3c-0.7-0.7-1.3-1.5-1.9-2.2c-0.5-0.7-1.1-1.5-1.5-2.2
			c-0.4-0.6-0.9-0.8-1.5-0.4c-0.1,0.1-0.3,0.2-0.5,0.3c-0.4,0.2-0.5,0.3-0.5,0.4c-0.3,0.2-0.5,0.7-0.1,1.3c0.8,1.2,2.1,2.6,3.8,4.3
			c1.7,1.6,4,3.2,6.7,4.6c0.1,0,0.2,0.1,0.2,0.1c0.1,0,0.2,0,0.3-0.1c0.1-0.1,0.2-0.2,0.3-0.4c0.1-0.1,0.1-0.3,0.2-0.5
			c0.1-0.3-0.1-0.4-0.2-0.5C368.7,36.7,367.7,35.8,366.9,35.1z"/>
		<path class="st0" d="M343.6,28.2c-0.3-0.2-0.4-0.3-0.5-0.3c-0.6-0.4-1.1-0.2-1.5,0.4c-0.5,0.8-1,1.5-1.5,2.2
			c-0.6,0.7-1.2,1.5-1.9,2.2c-0.7,0.8-1.5,1.5-2.3,2.3c-0.9,0.8-1.9,1.6-2.9,2.4c-0.1,0.1-0.2,0.2-0.2,0.5c0,0.2,0.1,0.3,0.2,0.5
			c0.1,0.2,0.2,0.3,0.3,0.4c0.1,0.1,0.2,0.1,0.3,0.1c0.1,0,0.2,0,0.2-0.1l0,0c2.7-1.5,5-3,6.7-4.6c1.7-1.6,3-3.1,3.8-4.3
			c0.4-0.6,0.1-1.1-0.1-1.3C344,28.6,343.9,28.5,343.6,28.2z"/>
		<path class="st0" d="M359.7,19.6c0.6,0,0.7-0.4,0.7-0.6v-0.5c0-0.2-0.1-0.6-0.7-0.6h-17.3c-0.4,0-0.7,0.2-0.7,0.6V19
			c0,0.4,0.2,0.6,0.7,0.6H359.7z"/>
		<path class="st0" d="M368,25.8v-0.6c0-0.2-0.1-0.6-0.7-0.6h-32.4c-0.4,0-0.7,0.2-0.7,0.6v0.6c0,0.4,0.2,0.6,0.7,0.6h15.1v7.4
			c0,0.7,0,1.2-0.1,1.6c0,0.4-0.1,0.7-0.3,0.9c-0.1,0.2-0.3,0.4-0.6,0.4c-0.3,0.1-0.7,0.2-1.2,0.3c-0.3,0.1-0.7,0.1-1.2,0.1
			c-0.5,0-1,0.1-1.4,0.1c-0.2,0-0.6,0.1-0.7,0.3c-0.1,0.2,0,0.4,0.1,0.7l0.6,1.1c0.2,0.2,0.3,0.3,0.4,0.4c0.1,0.1,0.4,0.1,0.7,0.1
			c0,0,0,0,0,0c0.6,0,1.2-0.1,1.8-0.1c0.6,0,1.1-0.1,1.5-0.2c1.1-0.3,1.9-0.7,2.4-1.4c0.5-0.7,0.7-1.7,0.7-3.1v-8.7h14.6
			C367.9,26.4,368,26,368,25.8z"/>
	</g>
	<g>
		<path class="st0" d="M413,5.4h-36.1c-0.4,0-0.7,0.2-0.7,0.6v0.5c0,0.4,0.2,0.6,0.7,0.6h27.6V35c0,1.1-0.2,1.5-0.3,1.6
			c-0.2,0.2-0.6,0.4-1.2,0.5c-0.2,0.1-0.5,0.1-0.9,0.1c-0.4,0-0.7,0-1.1,0.1c-0.4,0-0.8,0.1-1.3,0.1c-0.3,0-0.4,0.1-0.5,0.3
			c-0.1,0.2-0.1,0.4,0,0.7c0.1,0.2,0.2,0.4,0.3,0.6c0.1,0.2,0.2,0.4,0.3,0.5c0.2,0.2,0.3,0.4,0.5,0.4c0.2,0.1,0.4,0.1,0.6,0.1
			c0,0,0,0,0,0c0.2,0,0.4,0,0.5,0c0.4,0,0.8,0,1.3-0.1c0.7-0.1,1.2-0.1,1.7-0.3c1.2-0.2,1.9-0.8,2.3-1.6c0.3-0.8,0.5-1.7,0.5-2.8
			V7.1h5.7c0.6,0,0.7-0.4,0.7-0.6V6C413.7,5.8,413.7,5.4,413,5.4z"/>
		<path class="st0" d="M395.9,12.6h-0.8c-0.3,0-0.5,0.1-0.7,0.2c-0.2,0.2-0.3,0.4-0.3,0.8h0v1.6v4.6v8h-10.2V15.3h9.1v-1.6h-9.1
			c0-0.3-0.1-0.5-0.3-0.7c-0.2-0.2-0.4-0.2-0.7-0.2h-0.8c-0.3,0-0.5,0.1-0.7,0.2c-0.2,0.2-0.3,0.4-0.3,0.8v16.1
			c0,0.4,0.1,0.7,0.3,0.8c0.2,0.1,0.4,0.2,0.7,0.2h0.8c0.6,0,0.9-0.4,0.9-1v-0.3h10.2v0.3c0,0.4,0.1,0.7,0.3,0.8
			c0.2,0.1,0.4,0.2,0.7,0.2h0.8c0.6,0,0.9-0.4,0.9-1V13.7c0-0.4-0.1-0.7-0.3-0.8C396.4,12.7,396.2,12.6,395.9,12.6z"/>
	</g>
</g>
</svg>
