<?xml version="1.0" encoding="utf-8"?>
<!-- Generator: Adobe Illustrator 22.0.1, SVG Export Plug-In . SVG Version: 6.00 Build 0)  -->
<svg version="1.1" id="圖層_1" xmlns="http://www.w3.org/2000/svg" xmlns:xlink="http://www.w3.org/1999/xlink" x="0px" y="0px"
	 viewBox="0 0 24.8 29.3" style="enable-background:new 0 0 24.8 29.3;" xml:space="preserve">
<style type="text/css">
	.st0{fill:#EB6EA5;}
</style>
<g>
	<path class="st0" d="M18.8,8.4c-1.1,0.6-1.9,1-2.6,0.9c0.7-0.3,1.9-0.9,2.5-2.4c0-0.1-0.3-0.3-0.4-0.3c-0.1,0-0.2,0-0.3,0.1
		c-0.5,1.1-1.1,1.7-1.7,2.1c0.6-1.2,1-2.8,1-4.1h-4.9H7.3c0,1.6,0.6,3.9,1.7,5h6.8c0,0,0,0,0,0c0.3,0.1,0.6,0.1,1,0.1
		c0.7,0,1.5-0.2,2.4-0.7c0.1-0.1,0-0.5,0-0.6C19.1,8.4,18.9,8.4,18.8,8.4z"/>
	<path class="st0" d="M15.8,10.2L15.8,10.2H9h0C5.4,11.6,3,15,3,18.9c0,5.2,4.2,5.6,9.4,5.6c5.2,0,9.4-0.4,9.4-5.6
		C21.8,15,19.3,11.6,15.8,10.2z M15,18.7c-0.1,1.1-1.1,1.8-1.9,1.9l0,1.2h-1.2v-1.1c0,0-1.3-0.1-2.1-0.5l0.4-1.4
		c0,0,0.5,0.3,1.1,0.4c0.6,0.1,1.7,0.1,1.8-0.5c0.1-0.6-0.2-0.8-1-1c-0.7-0.2-2.1-0.8-2.2-1.8c-0.1-1.1,0.4-2,1.9-2.3v-1.2H13v1
		c0,0,1.2,0.1,1.6,0.4l-0.3,1.2c0,0-1.1-0.4-1.9-0.3c-0.8,0.1-0.8,0.8-0.3,1.2c0.6,0.4,1.6,0.7,1.9,0.9C14.4,17,15.1,17.6,15,18.7z"
		/>
</g>
</svg>
