<?xml version="1.0" encoding="utf-8"?>
<!-- Generator: Adobe Illustrator 22.0.1, SVG Export Plug-In . SVG Version: 6.00 Build 0)  -->
<svg version="1.1" id="圖層_1" xmlns="http://www.w3.org/2000/svg" xmlns:xlink="http://www.w3.org/1999/xlink" x="0px" y="0px"
	 viewBox="0 0 24.8 29.3" style="enable-background:new 0 0 24.8 29.3;" xml:space="preserve">
<style type="text/css">
	.st0{fill:#EB6EA5;}
</style>
<g>
	<path class="st0" d="M16.6,11.2h-2.1c1.3-0.6,2.7-1.8,3.2-2.4c0.4-0.6,0.6-1.2,0.5-1.9c-0.1-0.7-0.5-1.3-1-1.7
		c-1.1-0.8-2.8-0.6-3.7,0.5c-0.4,0.5-0.9,1.7-1.2,2.8c0-0.1,0-0.1,0-0.1c-0.3-1-0.8-2.1-1.2-2.7c-0.8-1.1-2.5-1.4-3.7-0.5
		c-0.6,0.4-0.9,1-1,1.7C6.2,7.6,6.4,8.3,6.8,8.8c0.5,0.6,1.9,1.8,3.2,2.4H8c-1.5,0-2.7,1.2-2.7,2.7v3.7h6.4v-6.3c0,0,0.1,0,0.1-0.1
		c0.1-0.1,0.2-0.2,0.3-0.4c0.1,0.2,0.2,0.3,0.3,0.4c0.1,0.1,0.2,0.1,0.3,0.1v6.2h6.4v-3.7C19.2,12.4,18,11.2,16.6,11.2z M7.6,8.2
		C7.4,7.8,7.3,7.4,7.3,7c0.1-0.4,0.3-0.8,0.6-1c0.3-0.2,0.6-0.3,0.9-0.3c0.5,0,0.9,0.2,1.2,0.6c0.3,0.4,0.8,1.4,1,2.3
		c0.4,1.2,0.2,1.7,0.1,1.8c0,0-0.1,0-0.2,0C10.2,10.4,8.2,8.9,7.6,8.2z M14.3,6.3c0.3-0.4,0.8-0.6,1.2-0.6c0.3,0,0.7,0.1,0.9,0.3
		c0.3,0.2,0.5,0.6,0.6,1c0.1,0.4,0,0.8-0.3,1.2c-0.5,0.7-2.5,2.3-3.5,2.3c-0.1,0-0.1,0-0.2,0c0,0-0.1-0.1-0.1-0.3
		C12.9,9.1,13.8,7,14.3,6.3z"/>
	<path class="st0" d="M12.8,25h3.8c1.5,0,2.7-1.2,2.7-2.7v-3.7h-6.4V25z"/>
	<path class="st0" d="M5.4,22.3C5.4,23.8,6.6,25,8,25h3.8v-6.4H5.4V22.3z"/>
</g>
</svg>
