<?xml version="1.0" encoding="utf-8"?>
<!-- Generator: Adobe Illustrator 22.0.1, SVG Export Plug-In . SVG Version: 6.00 Build 0)  -->
<svg version="1.1" id="圖層_1" xmlns="http://www.w3.org/2000/svg" xmlns:xlink="http://www.w3.org/1999/xlink" x="0px" y="0px"
	 viewBox="0 0 24.8 29.3" style="enable-background:new 0 0 24.8 29.3;" xml:space="preserve">
<style type="text/css">
	.st0{fill:#EB6EA5;}
</style>
<g>
	<path class="st0" d="M22.1,10.1c-0.6-0.1-1.3,0.3-1.4,0.9l-1.4,6L8.9,16.9l-2.5-10C6.3,6.6,6.1,6.3,5.8,6.1L3.5,4.9
		C2.9,4.6,2.2,4.8,1.9,5.3C1.6,5.9,1.8,6.6,2.4,7l1.8,1l2.6,10.2l-1.4,1.1c-0.2,0.1-0.3,0.3-0.3,0.5v1.7c0,0.4,0.3,0.7,0.7,0.7
		l1.9,0c-0.3,0.2-0.4,0.6-0.4,1c0,0.8,0.6,1.4,1.4,1.4S10,24,10,23.2c0-0.4-0.2-0.7-0.4-1l9,0.1c-0.2,0.2-0.3,0.5-0.3,0.8
		c0,0.8,0.6,1.4,1.4,1.4c0.8,0,1.4-0.6,1.4-1.4c0-0.3-0.1-0.6-0.3-0.8l1.2,0c0,0,0,0,0,0c0.4,0,0.7-0.3,0.7-0.7
		c0-0.4-0.3-0.7-0.7-0.7L6.5,20.8v-0.7l1.1-0.9c0.1,0,0.2,0.1,0.3,0.1l12.3,0.1c0,0,0,0,0,0c0.6,0,1-0.4,1.2-0.9l1.6-6.9
		C23.1,10.9,22.7,10.2,22.1,10.1z"/>
	<path class="st0" d="M16.9,10.6h-1.1V7.4c0-0.4-0.3-0.7-0.7-0.7H13c-0.4,0-0.7,0.3-0.7,0.7v3.2h-1.1c-0.5,0-0.7,0.3-0.4,0.7
		l0.8,1.1c0.3,0.4,0.8,1,1.1,1.4l0.8,1.1c0.3,0.4,0.8,0.4,1.1,0l0.8-1.1c0.3-0.4,0.8-1,1.1-1.4l0.8-1.1
		C17.6,10.9,17.4,10.6,16.9,10.6z"/>
</g>
</svg>
