<?xml version="1.0" encoding="utf-8"?>
<!-- Generator: Adobe Illustrator 22.0.1, SVG Export Plug-In . SVG Version: 6.00 Build 0)  -->
<svg version="1.1" id="圖層_1" xmlns="http://www.w3.org/2000/svg" xmlns:xlink="http://www.w3.org/1999/xlink" x="0px" y="0px"
	 viewBox="0 0 24.8 29.3" style="enable-background:new 0 0 24.8 29.3;" xml:space="preserve">
<style type="text/css">
	.st0{fill:#EB6EA5;}
</style>
<g>
	<g>
		<path class="st0" d="M6.3,8.9c-1.9,0-3.5,1.6-3.5,3.5c0,1.9,1.6,3.5,3.5,3.5c1.3,0,2.4-0.7,3-1.7c-0.5-0.8-1.1-2.2-0.4-4.2
			C8.3,9.4,7.4,8.9,6.3,8.9z"/>
		<path class="st0" d="M8.7,15.5c0,0-0.1,0.1-0.2,0.1c-0.3,0.9-1.2,1.6-2.3,1.6c-1,0-1.9-0.7-2.3-1.6c-0.1-0.1-0.2-0.1-0.2-0.2
			c0,0,0,0-0.1,0l0,0c-2.2,1.9-2.2,5.2-2.2,5.3l0,0.1h5.6c0.1-1.3,0.5-3.6,2-5.2c-0.1-0.1-0.2-0.2-0.3-0.2
			C8.8,15.4,8.8,15.4,8.7,15.5C8.8,15.4,8.7,15.4,8.7,15.5z"/>
	</g>
	<g>
		<path class="st0" d="M15.9,15.2c0,0-0.1,0.1-0.1,0.1c0,0,0,0-0.1,0c-0.3,0.3-1.1,0.8-2.2,1c-0.1,0-0.2,0-0.3,0c-0.1,0-0.2,0-0.3,0
			c-0.3,0-0.6,0-1-0.1c-1-0.2-1.7-0.8-1.9-1c0,0,0,0-0.1-0.1l0,0c-2.5,2.2-2.5,5.9-2.5,6.1l0,0.1h10.7l0-0.1
			C18.1,16.9,16.3,15.5,15.9,15.2z M14.4,18.2l-1.5-0.8l-1.5,0.8v-1.9l1.5,0.8l1.5-0.8V18.2z"/>
	</g>
	<g>
		<g>
			<path class="st0" d="M9,11.9c0,2.2,1.8,4,4,4h0c1.1,0,2.1-0.4,2.8-1.2c0.8-0.8,1.2-1.8,1.2-2.8c0-2.2-1.8-4-4-4
				C10.8,7.8,9,9.6,9,11.9z"/>
		</g>
	</g>
	<path class="st0" d="M18.7,20.6l4.5,0l0-0.1c0-0.1,0-2.9-2-4.6l0,0C21.1,15.9,21,16,21,16l-1.4,2.7l-0.2-1.6l0.4-0.6
		c-0.3,0.1-0.5,0.1-0.8,0.1c-0.1,0-0.1,0-0.2,0c-0.1,0-0.3,0-0.4,0c0,0-0.1,0-0.1,0l0.4,0.6l-0.3,1.5C18.5,19.4,18.6,20.1,18.7,20.6
		z"/>
	<path class="st0" d="M19.1,16.1c1.7,0,3.1-1.4,3.1-3.1c0-1.7-1.4-3.1-3.1-3.2c-0.7,0-1.4,0.2-1.9,0.6c0.2,0.5,0.3,0.9,0.3,1.4
		c0,1.1-0.4,2-1,2.8C17,15.6,17.9,16.1,19.1,16.1z"/>
</g>
</svg>
