<svg xmlns="http://www.w3.org/2000/svg" width="58.575" height="70.729" viewBox="0 0 58.575 70.729">
  <g id="Group_1188" data-name="Group 1188" transform="translate(-3607.284 -4282.262)">
    <circle id="Ellipse_147" data-name="Ellipse 147" cx="25.333" cy="25.333" r="25.333" transform="translate(3611.27 4286.264)" fill="#ded7d3"/>
    <circle id="Ellipse_148" data-name="Ellipse 148" cx="1.958" cy="1.958" r="1.958" transform="translate(3627.725 4296.74)" fill="#fff"/>
    <circle id="Ellipse_149" data-name="Ellipse 149" cx="1.958" cy="1.958" r="1.958" transform="translate(3641.992 4296.74)" fill="#fff"/>
    <path id="Path_6155" data-name="Path 6155" d="M3636.816,4311.231a7.563,7.563,0,0,1-7.555-7.555.422.422,0,0,1,.844,0,6.712,6.712,0,0,0,13.424,0,.422.422,0,0,1,.844,0A7.564,7.564,0,0,1,3636.816,4311.231Z" fill="#fff"/>
    <path id="Path_6156" data-name="Path 6156" d="M3619.911,4334.844A28.639,28.639,0,1,1,3662,4324.715" fill="none" stroke="#595757" stroke-linecap="round" stroke-linejoin="round" stroke-width="1.28"/>
    <rect id="Rectangle_3196" data-name="Rectangle 3196" width="19.636" height="28.163" rx="4.747" transform="translate(3642.023 4315.032)" fill="#fff" stroke="#595757" stroke-linecap="round" stroke-linejoin="round" stroke-width="1.28"/>
    <line id="Line_208" data-name="Line 208" y2="24.524" transform="translate(3651.841 4327.827)" fill="none" stroke="#595757" stroke-linecap="round" stroke-linejoin="round" stroke-width="1.28"/>
    <rect id="Rectangle_3197" data-name="Rectangle 3197" width="15.068" height="21.612" rx="3.643" transform="translate(3624.229 4323.712)" fill="#fff" stroke="#595757" stroke-linecap="round" stroke-linejoin="round" stroke-width="1.28"/>
    <line id="Line_209" data-name="Line 209" y2="18.82" transform="translate(3631.764 4333.531)" fill="none" stroke="#595757" stroke-linecap="round" stroke-linejoin="round" stroke-width="1.28"/>
  </g>
</svg>
