<svg xmlns="http://www.w3.org/2000/svg" width="62.437" height="68.22" viewBox="0 0 62.437 68.22">
  <g id="Group_1198" data-name="Group 1198" transform="translate(-3775.445 -4283.516)">
    <path id="Path_6169" data-name="Path 6169" d="M3788.613,4318.878c2.819.759,4.25,1.615,9.557,1.615,8.493,0,8.493-2.593,16.986-2.593,5.309,0,7.3,1.013,10.119,1.773" fill="none" stroke="#595757" stroke-linecap="round" stroke-linejoin="round" stroke-width="1.28"/>
    <path id="Path_6170" data-name="Path 6170" d="M3817.218,4306.265l18.312,29.023a10.307,10.307,0,0,1-8.717,15.808h-40.3a10.308,10.308,0,0,1-8.718-15.807l20.83-33.02v-18.113h16.1v15.291" fill="none" stroke="#595757" stroke-linecap="round" stroke-linejoin="round" stroke-width="1.28"/>
    <circle id="Ellipse_157" data-name="Ellipse 157" cx="5.66" cy="5.66" r="5.66" transform="translate(3788.858 4328.903)" fill="#fff"/>
    <circle id="Ellipse_158" data-name="Ellipse 158" cx="3.387" cy="3.387" r="3.387" transform="translate(3814.74 4326.075)" fill="#fff"/>
    <circle id="Ellipse_159" data-name="Ellipse 159" cx="3.387" cy="3.387" r="3.387" transform="translate(3806.945 4337.922)" fill="#fff"/>
    <path id="Path_6171" data-name="Path 6171" d="M3824.144,4303.162l-5.941-5.941,5.937-5.937-3.45-3.45-5.937,5.937-5.732-5.732-3.206,3.206,5.732,5.732-5.937,5.937,3.45,3.45,5.937-5.937,5.941,5.941Z" fill="#ded7d3"/>
  </g>
</svg>
