<!-- Generator: Adobe Illustrator 25.0.0, SVG Export Plug-In  -->
<svg version="1.1" xmlns="http://www.w3.org/2000/svg" xmlns:xlink="http://www.w3.org/1999/xlink" x="0px" y="0px"
	 width="962.03px" height="422.68px" viewBox="0 0 962.03 422.68"
	 style="overflow:visible;enable-background:new 0 0 962.03 422.68;" xml:space="preserve">
<style type="text/css">
	.st0{fill:none;stroke:#5F7563;stroke-width:2.0701;stroke-linecap:round;stroke-linejoin:round;stroke-miterlimit:10;}
	.st1{fill:#A6B0A4;}
	.st2{fill:none;stroke:#5F7563;stroke-width:1.9496;stroke-linecap:round;stroke-linejoin:round;stroke-miterlimit:10;}
	.st3{fill:none;stroke:#5F7563;stroke-width:1.7978;stroke-linecap:round;stroke-linejoin:round;stroke-miterlimit:10;}
	.st4{fill:none;stroke:#5F7563;stroke-width:1.5357;stroke-linecap:round;stroke-linejoin:round;stroke-miterlimit:10;}
	.st5{fill:#E9E5E2;}
	.st6{fill:none;stroke:#5F7563;stroke-width:1.6864;stroke-linecap:round;stroke-linejoin:round;stroke-miterlimit:10;}
	.st7{fill:none;stroke:#5F7563;stroke-width:1.9868;stroke-linecap:round;stroke-linejoin:round;stroke-miterlimit:10;}
	.st8{fill:none;stroke:#5F7563;stroke-width:2.8217;stroke-linecap:round;stroke-linejoin:round;stroke-miterlimit:10;}
	.st9{fill:#5F7563;}
	.st10{fill:none;stroke:#5F7563;stroke-width:1.7444;stroke-linecap:round;stroke-linejoin:round;stroke-miterlimit:10;}
	.st11{fill:#FFFFFF;}
	.st12{fill:#585757;}
	.st13{fill:none;stroke:#5F7563;stroke-width:2.108;stroke-miterlimit:10;stroke-dasharray:38.9987,38.9987;}
	.st14{fill:none;stroke:#5F7563;stroke-width:2.3338;stroke-miterlimit:10;stroke-dasharray:43.1775,43.1775;}
	.st15{fill:none;stroke:#5F7563;stroke-width:2.5579;stroke-miterlimit:10;stroke-dasharray:47.3256,47.3256;}
	.st16{fill:none;}
</style>
<defs>
</defs>
<g>
	<g>
		<g>
			<polygon class="st0" points="113.7,63.6 128.8,51.34 147.9,46.86 165.35,55.23 175.81,74.92 167.37,94.84 134.71,105.04 
				115.91,88.05 			"/>
			<polyline class="st0" points="113.7,63.6 137.54,80.9 175.81,74.92 			"/>
			<line class="st0" x1="134.71" y1="105.04" x2="137.54" y2="80.9"/>
			<line class="st0" x1="136.54" y1="89.48" x2="167.37" y2="94.84"/>
			<path class="st1" d="M143.36,76.99l27.24-4.74l-1.29-2.41c-4.12-7.71-10.65-13.85-18.59-17.5l0,0
				C150.72,52.34,159.94,67.69,143.36,76.99z"/>
			<g>
				<path class="st1" d="M127.92,57.17l-8.02,6.43l17.48,11.97C137.85,71.99,137.58,63.82,127.92,57.17z"/>
				<path class="st1" d="M147.68,51.47l-17.51,3.89c0,0,12.56,10.16,9.27,21.62C158.45,65.96,147.68,51.47,147.68,51.47z"/>
			</g>
		</g>
		<g>
			<polygon class="st0" points="62.19,137.96 77.28,125.7 96.38,121.22 113.83,129.59 124.29,149.28 115.86,169.2 83.19,179.4 
				64.39,162.41 			"/>
			<polyline class="st0" points="62.19,137.96 86.02,155.26 124.29,149.28 			"/>
			<line class="st0" x1="83.19" y1="179.4" x2="86.02" y2="155.26"/>
			<line class="st0" x1="85.02" y1="163.84" x2="115.86" y2="169.2"/>
			<path class="st1" d="M91.84,151.35l27.24-4.74l-1.29-2.41c-4.12-7.71-10.65-13.85-18.59-17.5l0,0
				C99.2,126.7,108.42,142.05,91.84,151.35z"/>
			<g>
				<path class="st1" d="M76.41,131.53l-8.02,6.43l17.48,11.97C86.33,146.35,86.06,138.18,76.41,131.53z"/>
				<path class="st1" d="M96.17,125.83l-17.51,3.89c0,0,12.56,10.16,9.27,21.62C106.93,140.32,96.17,125.83,96.17,125.83z"/>
			</g>
		</g>
		<g>
			<polygon class="st2" points="191.05,158.61 199.68,142.46 214.63,131.6 232.83,132.5 249.1,145.78 249.04,166.15 224.41,186.93 
				201.88,179.03 			"/>
			<polyline class="st2" points="191.05,158.61 218.06,164.93 249.1,145.78 			"/>
			<line class="st2" x1="224.41" y1="186.93" x2="218.06" y2="164.93"/>
			<line class="st2" x1="220.32" y1="172.75" x2="249.04" y2="166.15"/>
			<path class="st1" d="M221.68,159.41l21.92-14.05l-2-1.62c-6.39-5.19-14.3-8.14-22.53-8.41h0
				C219.08,135.32,232.68,145.29,221.68,159.41z"/>
			<g>
				<path class="st1" d="M201.05,147.84l-4.62,8.51l19.55,4.02C215.07,157.08,211.86,150.09,201.05,147.84z"/>
				<path class="st1" d="M216.13,135.68l-13.79,9.77c0,0,14.62,4.24,15.94,15.39C230.76,144.33,216.13,135.68,216.13,135.68z"/>
			</g>
		</g>
		<g>
			<polygon class="st3" points="102.13,209.33 110.09,194.44 123.87,184.42 140.66,185.25 155.67,197.5 155.61,216.28 
				132.89,235.44 112.12,228.16 			"/>
			<polyline class="st3" points="102.13,209.33 127.04,215.16 155.67,197.5 			"/>
			<line class="st3" x1="132.89" y1="235.44" x2="127.04" y2="215.16"/>
			<line class="st3" x1="129.12" y1="222.37" x2="155.61" y2="216.28"/>
			<path class="st1" d="M130.38,210.07l20.22-12.96l-1.84-1.49c-5.89-4.78-13.19-7.51-20.78-7.76l0,0
				C127.98,187.86,140.52,197.05,130.38,210.07z"/>
			<g>
				<path class="st1" d="M111.35,199.39l-4.26,7.85l18.03,3.7C124.28,207.92,121.32,201.47,111.35,199.39z"/>
				<path class="st1" d="M125.26,188.19l-12.71,9.01c0,0,13.48,3.91,14.7,14.19C138.75,196.16,125.26,188.19,125.26,188.19z"/>
			</g>
		</g>
		<g>
			<polygon class="st4" points="189.76,224.35 203.72,227.97 214.8,237.4 217.48,251.51 210.33,266.42 194.72,270.15 174.26,255.13 
				176.13,236.42 			"/>
			<polyline class="st4" points="189.76,224.35 189.92,246.19 210.33,266.42 			"/>
			<line class="st4" x1="174.26" y1="255.13" x2="189.92" y2="246.19"/>
			<line class="st4" x1="184.35" y1="249.37" x2="194.72" y2="270.15"/>
			<path class="st1" d="M194.82,247.95l14.82,14.18l0.87-1.83c2.79-5.85,3.59-12.46,2.27-18.81v0
				C212.77,241.5,207.66,253.76,194.82,247.95z"/>
			<g>
				<path class="st1" d="M199.86,230.01l-7.37-1.96l0.54,15.71C195.37,242.46,200.13,238.7,199.86,230.01z"/>
				<path class="st1" d="M211.95,239.3l-10.03-8.75c0,0-0.54,11.98-8.83,15.05C208.04,252.11,211.95,239.3,211.95,239.3z"/>
			</g>
		</g>
		<circle class="st1" cx="32.56" cy="165.82" r="8.21"/>
		<circle class="st1" cx="49.35" cy="233.16" r="4.08"/>
		<circle class="st1" cx="64.88" cy="219.66" r="3.05"/>
		<circle class="st1" cx="167.14" cy="312.74" r="3.88"/>
		<circle class="st1" cx="137.02" cy="279.43" r="3.05"/>
		<circle class="st1" cx="206.13" cy="98.36" r="8.76"/>
		<circle class="st1" cx="123.6" cy="234.56" r="6.28"/>
		<circle class="st1" cx="151.66" cy="238.64" r="2.21"/>
		<circle class="st5" cx="212.39" cy="352.04" r="2.1"/>
		<circle class="st1" cx="153.86" cy="161.25" r="8.16"/>
		<circle class="st1" cx="246.08" cy="233.16" r="7.3"/>
		<circle class="st5" cx="83.38" cy="268.8" r="1.11"/>
		<circle class="st1" cx="96.36" cy="243.26" r="2.41"/>
		<circle class="st1" cx="248.11" cy="262.13" r="2.41"/>
		<g>
			<circle class="st6" cx="127.99" cy="308.06" r="3.27"/>
			<path class="st6" d="M130.81,306.05"/>
			<path class="st6" d="M124.89,306.45c0,0-3.75-2.23-3.75-9.64c0-7.4,2.7-8.88,4.01-8.88s2.83,1.48,2.83,1.48s0.74-1.83,3.27-1.48
				c1.81,0.25,2.69,2.77,3.16,4.24c0.54,1.69,1.13,4.4,1.12,6.67"/>
			<path class="st6" d="M130.03,305.12c0,0,0.63-4.1,7.12-6.69c6.49-2.59,8.79-0.58,9.28,0.64c0.49,1.22-0.24,3.16-0.24,3.16
				s1.88,0.05,2.51,2.53c0.46,1.78-1.43,3.48-2.54,4.43c-1.28,1.09-3.44,2.59-5.43,3.38"/>
			<path class="st6" d="M126.92,304.59"/>
			<path class="st6" d="M131.23,307.55c0,0,4.57-0.76,8.97,4.67c4.39,5.43,3.16,8.23,2.14,9.05c-1.02,0.82-3.09,0.7-3.09,0.7
				s0.51,1.81-1.68,3.15c-1.57,0.96-3.75-0.33-4.99-1.11c-1.42-0.9-3.49-2.51-4.83-4.18"/>
			<path class="st6" d="M127.99,311.53c0,0,2.37,3.65-0.89,9.21s-6.26,5.29-7.39,4.63c-1.13-0.66-1.8-2.55-1.8-2.55
				s-1.45,1-3.49-0.55c-1.46-1.11-1.12-3.45-0.87-4.79c0.28-1.54,0.78-3.56,1.79-5.26"/>
			<path class="st6" d="M125.41,310.7c0,0-2.76,3.24-9.56,1.65c-6.8-1.59-7.54-4.56-7.24-5.83c0.3-1.28,2.01-2.45,2.01-2.45
				s-1.51-1.12-0.61-3.52c0.64-1.72,3.16-2.04,4.62-2.18c1.68-0.16,4.3-0.16,6.38,0.34"/>
		</g>
		<g>
			<circle class="st7" cx="64.08" cy="307.01" r="3.85"/>
			<path class="st7" d="M67.41,304.64"/>
			<path class="st7" d="M60.44,305.12c0,0-4.41-2.63-4.41-11.35c0-8.72,3.19-10.47,4.72-10.47c1.54,0,3.33,1.74,3.33,1.74
				s0.87-2.16,3.85-1.74c2.13,0.29,3.17,3.27,3.72,5c0.63,1.99,1.33,5.18,1.32,7.86"/>
			<path class="st7" d="M66.49,303.55c0,0,0.74-4.84,8.39-7.89c7.64-3.05,10.36-0.68,10.93,0.75c0.57,1.44-0.29,3.72-0.29,3.72
				s2.21,0.06,2.96,2.99c0.54,2.1-1.68,4.11-2.99,5.22c-1.51,1.29-4.05,3.05-6.4,3.98"/>
			<path class="st7" d="M62.83,302.92"/>
			<path class="st7" d="M67.9,306.42c0,0,5.39-0.89,10.56,5.5c5.18,6.4,3.72,9.69,2.52,10.67c-1.2,0.97-3.64,0.83-3.64,0.83
				s0.6,2.13-1.97,3.71c-1.84,1.13-4.42-0.39-5.87-1.31c-1.68-1.06-4.12-2.96-5.69-4.93"/>
			<path class="st7" d="M64.08,311.11c0,0,2.79,4.3-1.05,10.85s-7.37,6.24-8.7,5.45c-1.33-0.78-2.12-3-2.12-3s-1.71,1.17-4.11-0.65
				c-1.72-1.31-1.31-4.07-1.03-5.64c0.33-1.82,0.92-4.2,2.11-6.2"/>
			<path class="st7" d="M61.05,310.13c0,0-3.25,3.81-11.26,1.94c-8.01-1.87-8.89-5.37-8.54-6.87c0.35-1.5,2.37-2.89,2.37-2.89
				s-1.78-1.32-0.72-4.14c0.76-2.03,3.73-2.4,5.44-2.57c1.97-0.19,5.07-0.19,7.52,0.4"/>
		</g>
		<g>
			<circle class="st6" cx="163.32" cy="350.78" r="2.67"/>
			<path class="st6" d="M166.05,350.03"/>
			<path class="st6" d="M161.4,348.68c0,0-2.25-2.77-0.17-8.45c2.08-5.68,4.57-6.06,5.57-5.69c1,0.37,1.75,1.93,1.75,1.93
				s1.08-1.2,2.92-0.22c1.32,0.7,1.29,2.88,1.23,4.14c-0.06,1.45-0.37,3.69-1.02,5.43"/>
			<path class="st6" d="M165.71,349.1c0,0,1.64-2.97,7.34-3.14c5.71-0.16,6.91,2.03,6.94,3.1c0.03,1.07-1.07,2.36-1.07,2.36
				s1.43,0.57,1.22,2.65c-0.15,1.49-2.07,2.27-3.19,2.69c-1.29,0.48-3.36,1.02-5.11,1.07"/>
			<path class="st6" d="M163.48,347.82"/>
			<path class="st6" d="M165.95,351.3c0,0,3.72,0.7,5.57,6.1c1.85,5.4,0.11,7.2-0.9,7.55c-1.01,0.35-2.57-0.33-2.57-0.33
				s-0.12,1.53-2.17,1.95c-1.47,0.3-2.79-1.31-3.51-2.25c-0.84-1.09-1.98-2.91-2.53-4.57"/>
			<path class="st6" d="M162.34,353.45c0,0,0.79,3.47-3.27,6.82c-4.06,3.35-6.29,2.3-6.97,1.48c-0.68-0.83-0.67-2.46-0.67-2.46
				s-1.39,0.36-2.52-1.4c-0.81-1.26,0.11-2.96,0.68-3.92c0.65-1.1,1.6-2.52,2.85-3.54"/>
			<path class="st6" d="M160.6,352.09c0,0-3.03,1.71-7.8-1.42c-4.77-3.13-4.51-5.62-3.92-6.51s2.23-1.32,2.23-1.32
				s-0.85-1.28,0.52-2.87c0.98-1.14,3-0.68,4.16-0.38c1.33,0.35,3.35,1.09,4.8,2.05"/>
		</g>
		<g>
			<circle class="st6" cx="203.61" cy="319.77" r="3"/>
			<path class="st6" d="M206.68,318.93"/>
			<path class="st6" d="M201.45,317.4c0,0-2.52-3.11-0.19-9.49c2.34-6.38,5.13-6.8,6.26-6.39c1.12,0.41,1.97,2.17,1.97,2.17
				s1.22-1.34,3.28-0.25c1.48,0.79,1.45,3.24,1.38,4.65c-0.07,1.63-0.42,4.15-1.14,6.1"/>
			<path class="st6" d="M206.29,317.88c0,0,1.84-3.34,8.24-3.52c6.41-0.18,7.76,2.28,7.8,3.48c0.03,1.2-1.21,2.65-1.21,2.65
				s1.6,0.64,1.37,2.98c-0.17,1.68-2.33,2.55-3.59,3.02c-1.45,0.54-3.78,1.15-5.74,1.2"/>
			<path class="st6" d="M203.79,316.44"/>
			<path class="st6" d="M206.56,320.35c0,0,4.18,0.79,6.25,6.85c2.07,6.07,0.13,8.09-1.01,8.48c-1.14,0.39-2.88-0.37-2.88-0.37
				s-0.13,1.72-2.44,2.19c-1.65,0.34-3.13-1.47-3.95-2.53c-0.94-1.22-2.22-3.27-2.84-5.13"/>
			<path class="st6" d="M202.51,322.76c0,0,0.89,3.89-3.68,7.65c-4.56,3.76-7.06,2.59-7.83,1.66s-0.75-2.77-0.75-2.77
				s-1.56,0.4-2.83-1.57c-0.91-1.42,0.13-3.33,0.76-4.4c0.73-1.24,1.8-2.83,3.2-3.97"/>
			<path class="st6" d="M200.55,321.23c0,0-3.4,1.92-8.76-1.6s-5.06-6.31-4.4-7.31s2.5-1.48,2.5-1.48s-0.95-1.44,0.58-3.22
				c1.1-1.28,3.37-0.76,4.67-0.42c1.5,0.39,3.76,1.22,5.39,2.3"/>
		</g>
	</g>
	<g>
		<g>
			<polygon class="st8" points="518.69,273.96 530.9,296.79 547.08,294.32 566.3,283.18 544.05,269.57 			"/>
			<polyline class="st8" points="544.05,269.57 547.08,294.32 554.84,313.76 			"/>
			<polyline class="st8" points="566.3,283.18 565.29,313.76 506.63,313.76 502.92,305.27 519.8,276.05 			"/>
			<line class="st8" x1="530.9" y1="296.79" x2="506.63" y2="313.76"/>
			<polyline class="st8" points="429.17,253.97 400.86,265.61 424.74,287.59 446.6,269.86 			"/>
			<polyline class="st8" points="400.86,265.61 407.45,290.55 424.29,300.85 424.74,287.59 			"/>
			<g>
				<path class="st8" d="M426.84,230.4c18-13.66,13.29-11.42,35.99-16.13l18.37,8.07l11.01,18.98l-8.88,19.19l-34.38,9.83
					l-19.79-16.38L426.84,230.4z"/>
				<polyline class="st8" points="426.84,230.4 451.94,247.07 492.22,241.32 				"/>
				<polyline class="st8" points="456.47,309.14 416.33,317.32 424.29,300.85 438.8,299.56 446.86,292.43 448.96,270.34 
					451.94,247.07 				"/>
				<polyline class="st8" points="450.88,255.35 483.34,260.51 518.69,273.96 				"/>
				<path class="st1" d="M458.06,243.31l28.68-4.57c-4.39-8.38-11.62-15.35-20.93-19.19C465.81,219.55,475.51,234.35,458.06,243.31z
					"/>
				<g>
					<path class="st1" d="M441.81,224.21l-8.44,6.2l18.4,11.54C452.26,238.49,451.97,230.62,441.81,224.21z"/>
					<path class="st1" d="M462.61,218.72l-18.43,3.75c0,0,13.22,9.79,9.76,20.84C473.94,232.68,462.61,218.72,462.61,218.72z"/>
				</g>
			</g>
			<path class="st8" d="M394.15,330.65c18-13.66,13.29-11.42,35.99-16.13l18.37,8.07l11.01,18.98l-8.88,19.19l-34.38,9.83
				l-19.79-16.38L394.15,330.65z"/>
			<polyline class="st8" points="394.15,330.65 419.25,347.32 459.53,341.57 			"/>
			<line class="st8" x1="416.27" y1="370.59" x2="419.25" y2="347.32"/>
			<line class="st8" x1="418.19" y1="355.6" x2="450.65" y2="360.76"/>
			<path class="st1" d="M425.37,343.55l28.68-4.57c-4.39-8.38-11.62-15.35-20.93-19.19C433.12,319.8,442.82,334.59,425.37,343.55z"
				/>
			<g>
				<path class="st1" d="M409.12,324.45l-8.44,6.2l18.4,11.54C419.57,338.74,419.29,330.87,409.12,324.45z"/>
				<path class="st1" d="M429.92,318.96l-18.43,3.75c0,0,13.22,9.79,9.76,20.84C441.25,332.93,429.92,318.96,429.92,318.96z"/>
			</g>
			<g>
				<path class="st8" d="M439.46,275.9"/>
				<path class="st8" d="M411.49,261.24c-2.5-0.51-4.22-0.68-8.03-1.47l-18.37,8.07l-11.01,18.98l8.88,19.19l34.38,9.83l20.65-16.21
					"/>
				<line class="st8" x1="407.45" y1="290.55" x2="374.08" y2="286.82"/>
				<path class="st8" d="M439.46,275.9"/>
				<path class="st8" d="M417.34,315.84"/>
			</g>
			<g>
				<path class="st8" d="M469.85,330.58c18-13.66,13.29-11.42,35.99-16.13l18.37,8.07l11.01,18.98l-8.88,19.19l-34.38,9.83
					l-19.79-16.38L469.85,330.58z"/>
				<polyline class="st8" points="457.81,336.34 469.85,330.58 494.95,347.25 535.23,341.5 				"/>
				<line class="st8" x1="491.97" y1="370.52" x2="494.95" y2="347.25"/>
				<line class="st8" x1="493.89" y1="355.53" x2="526.35" y2="360.69"/>
				<path class="st1" d="M501.07,343.48l28.68-4.57c-4.39-8.38-11.62-15.35-20.93-19.19C508.82,319.73,518.52,334.52,501.07,343.48z
					"/>
				<g>
					<path class="st1" d="M484.82,324.38l-8.44,6.2l18.4,11.54C495.27,338.67,494.99,330.8,484.82,324.38z"/>
					<path class="st1" d="M505.62,318.9l-18.43,3.75c0,0,13.22,9.79,9.76,20.84C516.95,332.86,505.62,318.9,505.62,318.9z"/>
				</g>
			</g>
			<polyline class="st8" points="446.86,292.43 456.47,299.56 500.22,292.48 519.26,276.05 			"/>
			<line class="st8" x1="454.99" y1="268.62" x2="465.81" y2="298"/>
			<path class="st8" d="M456.47,299.56v9.58l31.04,8.54c2.14,0.22-8.88-21.53-8.88-21.53"/>
			<line class="st8" x1="500.22" y1="292.48" x2="502.92" y2="305.27"/>
			<path class="st1" d="M379.23,289.79l26.38,4.54c0,0-13.19,0-20.37,9.25L379.23,289.79z"/>
			<path class="st1" d="M388.46,303.58c0,0,9.1-8.83,21.49-7.42l10.63,5.81l-5.72,9.68L388.46,303.58z"/>
			<path class="st1" d="M428.05,287.81V298l9.93-1.54c0,0,6.92-10.77,7.52-22.5C445.5,273.96,441.1,277.91,428.05,287.81z"/>
			<path class="st1" d="M541.84,272.49l-18.18,3.56l7.92,16.43C532.75,282.2,535.23,279.09,541.84,272.49z"/>
			<path class="st1" d="M488.62,288.79c2.17-1.72,3.94-3.56,5.49-5.8c3-4.33,3.06-9.37,3.18-14.51c-5.34-1.89-10.67-4.12-13.2-4.46
				c-6.96-0.94-24.56,6.75-24.56,6.75l9.36,24.13l14.87-2.42C485.89,291.24,486.73,290.29,488.62,288.79z"/>
			<path class="st1" d="M499.79,270.24c-0.38,5.3-2,10.44-4.94,14.93c-1.53,2.34-3.39,4.44-5.48,6.29h0
				c6.58-1.08,12.68-4.11,17.52-8.69l7.09-6.71C513.98,276.05,507.18,273.13,499.79,270.24z"/>
		</g>
		<g>
			<circle class="st9" cx="466.54" cy="117.97" r="1.58"/>
			<circle class="st9" cx="466.54" cy="125.66" r="1.58"/>
			<circle class="st9" cx="466.54" cy="133.35" r="1.58"/>
			<circle class="st9" cx="466.54" cy="141.04" r="1.58"/>
			<circle class="st9" cx="466.54" cy="148.73" r="1.58"/>
			<circle class="st9" cx="466.54" cy="156.42" r="1.58"/>
			<circle class="st9" cx="466.54" cy="164.66" r="1.58"/>
			<circle class="st9" cx="466.54" cy="172.35" r="1.58"/>
			<circle class="st9" cx="466.54" cy="180.04" r="1.58"/>
		</g>
		<g>
			<polygon class="st10" points="359.54,67.51 370.3,58.76 383.93,55.57 396.38,61.54 403.84,75.59 397.82,89.79 374.52,97.07 
				361.11,84.95 			"/>
			<polyline class="st10" points="359.54,67.51 376.54,79.85 403.84,75.59 			"/>
			<line class="st10" x1="374.52" y1="97.07" x2="376.54" y2="79.85"/>
			<line class="st10" x1="375.82" y1="85.97" x2="397.82" y2="89.79"/>
			<path class="st5" d="M380.69,77.06l19.43-3.38l-0.92-1.72c-2.94-5.5-7.6-9.88-13.26-12.48v0
				C385.94,59.48,392.52,70.43,380.69,77.06z"/>
			<g>
				<path class="st5" d="M369.68,62.92l-5.72,4.59l12.47,8.54C376.76,73.49,376.57,67.67,369.68,62.92z"/>
				<path class="st5" d="M383.78,58.86l-12.49,2.78c0,0,8.96,7.25,6.61,15.42C391.45,69.19,383.78,58.86,383.78,58.86z"/>
			</g>
		</g>
		<g>
			<polygon class="st10" points="441.93,67.51 452.69,58.76 466.32,55.57 478.77,61.54 486.23,75.59 480.21,89.79 456.91,97.07 
				443.5,84.95 			"/>
			<polyline class="st10" points="441.93,67.51 458.93,79.85 486.23,75.59 			"/>
			<line class="st10" x1="456.91" y1="97.07" x2="458.93" y2="79.85"/>
			<line class="st10" x1="458.21" y1="85.97" x2="480.21" y2="89.79"/>
			<path class="st5" d="M463.08,77.06l19.43-3.38l-0.92-1.72c-2.94-5.5-7.6-9.88-13.26-12.48v0
				C468.33,59.48,474.91,70.43,463.08,77.06z"/>
			<g>
				<path class="st5" d="M452.07,62.92l-5.72,4.59l12.47,8.54C459.15,73.49,458.96,67.67,452.07,62.92z"/>
				<path class="st5" d="M466.17,58.86l-12.49,2.78c0,0,8.96,7.25,6.61,15.42C473.84,69.19,466.17,58.86,466.17,58.86z"/>
			</g>
		</g>
		<g>
			<polygon class="st10" points="524.32,67.51 535.08,58.76 548.71,55.57 561.16,61.54 568.62,75.59 562.6,89.79 539.3,97.07 
				525.89,84.95 			"/>
			<polyline class="st10" points="524.32,67.51 541.32,79.85 568.62,75.59 			"/>
			<line class="st10" x1="539.3" y1="97.07" x2="541.32" y2="79.85"/>
			<line class="st10" x1="540.61" y1="85.97" x2="562.6" y2="89.79"/>
			<path class="st5" d="M545.47,77.06l19.43-3.38l-0.92-1.72c-2.94-5.5-7.6-9.88-13.26-12.48v0
				C550.72,59.48,557.3,70.43,545.47,77.06z"/>
			<g>
				<path class="st5" d="M534.46,62.92l-5.72,4.59l12.47,8.54C541.54,73.49,541.35,67.67,534.46,62.92z"/>
				<path class="st5" d="M548.56,58.86l-12.49,2.78c0,0,8.96,7.25,6.61,15.42C556.24,69.19,548.56,58.86,548.56,58.86z"/>
			</g>
		</g>
		<g>
			<path class="st9" d="M432.01,76.05h-6.96v7.31h-1.7v-7.31h-7.02v-1.59h7.02v-7.13h1.7v7.13h6.96V76.05z"/>
		</g>
		<g>
			<path class="st9" d="M512.4,76.05h-6.96v7.31h-1.7v-7.31h-7.02v-1.59h7.02v-7.13h1.7v7.13h6.96V76.05z"/>
		</g>
	</g>
	<g>
		<g>
			<g>
				<path class="st1" d="M868.71,180.42c-1.52,86.6-133.59,86.59-135.1,0C735.13,93.81,867.2,93.83,868.71,180.42z"/>
			</g>
			<g>
				<g>
					<circle class="st11" cx="803.2" cy="179.15" r="22.92"/>
				</g>
				<g>
					<path class="st1" d="M820.2,169.61c-1.77,1.49-4.31,1.95-6.95,0.98c-4.45-1.63-6.26-6.04-4.6-10.21
						c-1.74-0.51-3.58-0.79-5.48-0.79c-10.76,0-19.49,8.73-19.49,19.49s8.73,19.49,19.49,19.49s19.49-8.73,19.49-19.49
						C822.66,175.64,821.77,172.41,820.2,169.61z"/>
				</g>
			</g>
			<g>
				<g>
					<path class="st12" d="M779.71,182.36c-0.14,0-0.28-0.02-0.41-0.07c-0.44-0.16-0.75-0.56-0.79-1.03
						c-0.06-0.72-0.11-1.44-0.11-2.18c0-3.89,0.9-7.63,2.67-11.14c0.21-0.41,0.63-0.71,1.1-0.66c0.46,0.01,0.88,0.28,1.07,0.71
						c1.05,2.3,2.24,4.69,3.54,7.1c0.27,0.5,0.15,1.13-0.28,1.5c-2.11,1.77-4.11,3.6-5.93,5.43
						C780.34,182.24,780.03,182.36,779.71,182.36z M782.19,171.4c-0.83,2.25-1.29,4.59-1.36,7c1.08-1.02,2.21-2.03,3.38-3.03
						C783.5,174.04,782.82,172.71,782.19,171.4z"/>
				</g>
				<g>
					<path class="st12" d="M824.74,217.38c-5.04,0-12.48-4.93-20.84-13.98c-0.32-0.34-0.41-0.83-0.24-1.26
						c0.17-0.43,0.58-0.73,1.04-0.76c7.84-0.52,14.91-5.22,18.45-12.24c0.21-0.41,0.67-0.68,1.1-0.66c0.46,0.01,0.88,0.28,1.07,0.71
						c6.35,13.98,7.36,24.18,2.68,27.28C827.08,217.08,825.99,217.38,824.74,217.38z M807.31,203.5
						c8.48,8.74,16.14,13.09,19.37,10.96c3.24-2.15,2.17-10.9-2.58-22.1C820.34,198.26,814.2,202.33,807.31,203.5z"/>
				</g>
				<g>
					<path class="st12" d="M782.15,169.69c-0.01,0-0.02,0-0.02,0c-0.46-0.01-0.88-0.28-1.07-0.71c-6.35-13.98-7.36-24.18-2.68-27.28
						c4.67-3.1,13.69,1.78,24.11,13.07c0.32,0.34,0.41,0.83,0.24,1.26c-0.17,0.43-0.58,0.73-1.04,0.76
						c-7.84,0.52-14.91,5.22-18.45,12.24C783.02,169.43,782.6,169.69,782.15,169.69z M781.71,143.17c-0.78,0-1.46,0.18-2.01,0.54
						c-3.24,2.15-2.17,10.89,2.58,22.1c3.76-5.9,9.9-9.97,16.78-11.14C792.03,147.42,785.55,143.17,781.71,143.17z"/>
				</g>
				<g>
					<path class="st12" d="M785.72,176.86c-0.08,0-0.15-0.01-0.23-0.02c-0.36-0.07-0.66-0.29-0.83-0.61
						c-1.33-2.45-2.54-4.89-3.61-7.25c-0.15-0.33-0.14-0.72,0.02-1.04c3.92-7.78,11.76-12.98,20.44-13.56l0.31-0.02
						c4.4-0.31,9,0.72,12.96,2.83c0.41,0.22,0.66,0.66,0.64,1.13c-0.02,0.47-0.32,0.88-0.75,1.05c-2.4,0.97-4.85,2.1-7.31,3.36
						c-3.66,1.88-7.3,4.02-10.81,6.35c-3.51,2.33-6.89,4.85-10.05,7.5C786.28,176.76,786,176.86,785.72,176.86z M783.49,168.52
						c0.8,1.72,1.67,3.49,2.6,5.27c2.9-2.36,5.96-4.62,9.12-6.72c3.59-2.38,7.31-4.56,11.05-6.49c1.66-0.85,3.33-1.65,4.97-2.38
						c-2.93-1.13-6.14-1.66-9.23-1.44l-0.32,0.02C794.03,157.3,787.11,161.78,783.49,168.52z"/>
				</g>
				<g>
					<path class="st12" d="M776.9,204.85c-3.7,0-6.37-1.05-7.77-3.15c-2.94-4.43,0.61-12.22,9.73-21.38
						c0.33-0.33,0.83-0.44,1.27-0.28c0.44,0.16,0.75,0.56,0.79,1.03c0.66,7.57,5.08,14.23,11.81,17.8c0.41,0.22,0.66,0.66,0.64,1.13
						c-0.02,0.47-0.32,0.88-0.75,1.05C786.33,203.57,780.99,204.85,776.9,204.85z M778.86,183.78c-6.69,7.2-9.71,13.59-7.72,16.58
						c1.98,2.99,9.04,2.69,18.27-0.68C783.89,196,780.11,190.29,778.86,183.78z"/>
				</g>
				<g>
					<path class="st12" d="M826.67,178.21c-0.14,0-0.28-0.02-0.41-0.07c-0.44-0.16-0.75-0.56-0.79-1.03
						c-0.66-7.57-5.08-14.23-11.81-17.8c-0.41-0.22-0.66-0.66-0.64-1.12c0.02-0.47,0.32-0.88,0.75-1.06
						c11.98-4.85,20.54-5.09,23.47-0.66c2.94,4.42-0.61,12.22-9.73,21.38C827.29,178.09,826.98,178.21,826.67,178.21z
						 M816.96,158.49c5.52,3.68,9.31,9.39,10.55,15.9c6.69-7.21,9.71-13.59,7.72-16.58C833.25,154.82,826.19,155.11,816.96,158.49z"
						/>
				</g>
				<g>
					<path class="st12" d="M803.19,203.87c-4.03,0-8.04-1-11.6-2.89c-7.45-3.96-12.34-11.33-13.08-19.71
						c-0.03-0.36,0.1-0.7,0.35-0.96c1.87-1.88,3.92-3.76,6.09-5.57c0.28-0.24,0.64-0.33,1-0.26c0.36,0.07,0.66,0.29,0.83,0.61
						c1.94,3.58,4.09,7.17,6.4,10.64c2.32,3.49,4.78,6.87,7.32,10.03l0,0c1.71,2.13,3.45,4.15,5.16,6.01
						c0.32,0.34,0.41,0.83,0.24,1.26c-0.17,0.43-0.58,0.72-1.04,0.76l-0.28,0.02C804.12,203.84,803.66,203.87,803.19,203.87z
						 M780.97,181.61c0.82,7.34,5.18,13.76,11.75,17.24c2.9,1.54,6.13,2.42,9.41,2.58c-1.17-1.33-2.34-2.72-3.5-4.17l0,0
						c-2.59-3.22-5.09-6.65-7.45-10.21c-2.07-3.11-4.01-6.31-5.8-9.52C783.83,178.88,782.35,180.24,780.97,181.61z"/>
				</g>
				<g>
					<path class="st12" d="M804.79,203.79c-0.33,0-0.66-0.14-0.88-0.39c-1.75-1.9-3.53-3.96-5.27-6.13
						c-2.59-3.22-5.09-6.65-7.45-10.21c-2.35-3.53-4.54-7.18-6.51-10.82c-0.27-0.5-0.15-1.13,0.28-1.5
						c3.23-2.71,6.68-5.29,10.26-7.66c3.59-2.38,7.31-4.56,11.05-6.49c2.52-1.3,5.05-2.46,7.51-3.45c0.33-0.13,0.7-0.11,1.02,0.05
						c7.45,3.96,12.34,11.33,13.08,19.71c0,0,0,0,0,0c0.06,0.72,0.11,1.44,0.11,2.18c0,3.89-0.9,7.64-2.67,11.14
						c-3.92,7.78-11.76,12.98-20.44,13.56C804.84,203.79,804.81,203.79,804.79,203.79z M787.26,175.95
						c1.82,3.29,3.81,6.58,5.93,9.77c2.32,3.49,4.78,6.87,7.32,10.03c1.58,1.97,3.18,3.84,4.77,5.58
						c7.61-0.71,14.42-5.34,17.88-12.2c1.6-3.16,2.41-6.55,2.41-10.05c0-0.67-0.04-1.32-0.1-1.97c-0.65-7.39-4.86-13.9-11.32-17.53
						c-2.23,0.92-4.51,1.98-6.79,3.15c-3.66,1.88-7.3,4.02-10.81,6.35C793.32,171.22,790.2,173.53,787.26,175.95z"/>
				</g>
			</g>
			<g>
				<path class="st1" d="M665.96,204.32l-1.47-14.78c-0.06-0.64,0.48-1.18,1.12-1.12l16.5,1.59c0.64,0.06,1.18-0.48,1.12-1.12
					l-0.83-8.47c-0.07-0.67,0.53-1.22,1.19-1.11l31,5.34l-16.88,3.05c-0.47,0.09-0.82,0.48-0.84,0.96l-0.45,9.86
					c-0.02,0.49-0.38,0.89-0.86,0.96l-25.17,4.03"/>
			</g>
			<g>
				<path class="st1" d="M765.35,309.11L755,302.89c-0.47-0.28-0.55-0.93-0.15-1.32l10.66-10.41c0.43-0.42,0.29-1.13-0.25-1.37
					l-7.33-3.2c-0.55-0.24-0.68-0.96-0.24-1.37l18.51-17.6l-6.24,12.56c-0.17,0.35-0.08,0.77,0.22,1.02l6.25,5.11
					c0.31,0.25,0.4,0.68,0.21,1.04l-9.64,18.47"/>
			</g>
			<g>
				<path class="st1" d="M921.55,213.86l-1.7,7.8c-0.1,0.44-0.58,0.67-0.98,0.46l-8.66-4.41c-0.43-0.22-0.95,0.07-0.99,0.55
					l-0.43,5.02c-0.04,0.49-0.57,0.77-1,0.55l-15.08-7.94l9.28,1.26c0.32,0.04,0.62-0.14,0.73-0.44l1.85-4.91
					c0.11-0.3,0.42-0.48,0.74-0.43l13.78,2.15"/>
			</g>
			<g>
				<path class="st1" d="M855.04,66.9l9.66,8.05c0.34,0.29,0.32,0.82-0.04,1.08l-12.8,9.13c-0.39,0.28-0.38,0.87,0.03,1.13
					l7.35,4.66c0.41,0.26,0.42,0.86,0.02,1.14l-18.51,12.82c-0.63,0.44-1.39-0.33-0.95-0.96l6.12-8.67
					c0.18-0.26,0.16-0.61-0.05-0.85l-5.7-6.35c-0.22-0.24-0.23-0.6-0.04-0.86l12.73-17.26"/>
			</g>
		</g>
		<g>
			<g>
				<g>
					<path class="st13" d="M876.61,180.42c-1.69,96.74-149.22,96.72-150.9,0C727.4,83.68,874.93,83.7,876.61,180.42z"/>
				</g>
			</g>
		</g>
		<g>
			<g>
				<g>
					<path class="st14" d="M884.69,180.42c-1.88,107.1-165.21,107.08-167.07,0C719.5,73.32,882.83,73.34,884.69,180.42z"/>
				</g>
			</g>
		</g>
		<g>
			<g>
				<g>
					<path class="st15" d="M892.72,180.42c-2.06,117.39-181.08,117.37-183.12,0C711.66,63.03,890.68,63.05,892.72,180.42z"/>
				</g>
			</g>
		</g>
		<g>
			<circle class="st1" cx="900.39" cy="92.38" r="21.16"/>
			<g>
				<path class="st11" d="M897.31,84.75c-0.03,1.5-0.03,3.03-0.03,4.56v0.65c0,1.5,0,3.02,0.03,4.54l1.3,0.13v0.5h-5.09v-0.5
					l1.24-0.13c0.04-1.46,0.04-2.99,0.04-4.68h-3.96c0,1.66,0,3.2,0.04,4.7l1.22,0.12v0.5H887v-0.5l1.31-0.13
					c0.01-1.49,0.01-3,0.01-4.54v-0.65c0-1.53,0-3.05-0.01-4.55L887,84.63v-0.5h5.09v0.5l-1.22,0.12c-0.04,1.47-0.04,2.99-0.04,4.51
					h3.96c0-1.5,0-3.02-0.04-4.51l-1.24-0.12v-0.5h5.09v0.5L897.31,84.75z"/>
				<path class="st11" d="M904.08,98.98v1.05h-4.3v-0.77c0.47-0.51,0.97-1,1.39-1.44c0.98-1,1.36-1.59,1.36-2.48
					c0-0.81-0.4-1.31-1.06-1.31c-0.1,0-0.21,0.01-0.33,0.03l-0.19,0.85c-0.09,0.58-0.38,0.72-0.64,0.72c-0.25,0-0.46-0.14-0.56-0.36
					c0.08-0.99,1.05-1.54,2.2-1.54c1.35,0,1.98,0.71,1.98,1.68c0,0.89-0.73,1.67-2.37,2.74c-0.29,0.21-0.67,0.51-1.06,0.81H904.08z"
					/>
				<path class="st11" d="M915.61,89.63c0,3.83-2.43,5.8-5.21,5.8c-2.77,0-5.23-1.96-5.23-5.8c0-3.8,2.47-5.79,5.23-5.79
					C913.17,83.84,915.61,85.81,915.61,89.63z M910.4,94.87c1.8,0,2.62-2.21,2.62-5.24c0-3-0.82-5.23-2.62-5.23
					c-1.81,0-2.62,2.22-2.62,5.23C907.78,92.66,908.59,94.87,910.4,94.87z"/>
			</g>
		</g>
		<g>
			<circle class="st1" cx="693.1" cy="244.26" r="16.68"/>
			<g>
				<path class="st11" d="M690.67,238.24c-0.02,1.18-0.02,2.39-0.02,3.6v0.51c0,1.18,0,2.38,0.02,3.57l1.02,0.1v0.39h-4.01v-0.39
					l0.97-0.1c0.04-1.15,0.04-2.35,0.04-3.69h-3.12c0,1.31,0,2.52,0.04,3.7l0.96,0.09v0.39h-4.01v-0.39l1.03-0.1
					c0.01-1.17,0.01-2.37,0.01-3.57v-0.51c0-1.21,0-2.4-0.01-3.58l-1.03-0.1v-0.39h4.01v0.39l-0.96,0.09
					c-0.04,1.16-0.04,2.35-0.04,3.55h3.12c0-1.18,0-2.38-0.04-3.55l-0.97-0.09v-0.39h4.01v0.39L690.67,238.24z"/>
				<path class="st11" d="M696.01,249.45v0.83h-3.39v-0.61c0.37-0.41,0.76-0.79,1.1-1.14c0.77-0.79,1.07-1.25,1.07-1.95
					c0-0.64-0.32-1.03-0.84-1.03c-0.08,0-0.17,0.01-0.26,0.03l-0.15,0.67c-0.07,0.46-0.3,0.57-0.51,0.57c-0.2,0-0.36-0.11-0.44-0.28
					c0.06-0.78,0.82-1.21,1.73-1.21c1.07,0,1.56,0.56,1.56,1.32c0,0.7-0.58,1.32-1.87,2.16c-0.23,0.16-0.53,0.4-0.84,0.64H696.01z"
					/>
				<path class="st11" d="M705.09,242.08c0,3.01-1.91,4.57-4.11,4.57c-2.18,0-4.12-1.54-4.12-4.57c0-2.99,1.95-4.56,4.12-4.56
					C703.17,237.53,705.09,239.08,705.09,242.08z M700.99,246.21c1.42,0,2.06-1.74,2.06-4.13c0-2.37-0.65-4.12-2.06-4.12
					c-1.43,0-2.06,1.75-2.06,4.12C698.92,244.47,699.56,246.21,700.99,246.21z"/>
			</g>
		</g>
		<g>
			<circle class="st1" cx="702.86" cy="95.41" r="14.76"/>
			<g>
				<path class="st11" d="M700.71,90.09c-0.02,1.05-0.02,2.12-0.02,3.18v0.45c0,1.05,0,2.1,0.02,3.16l0.9,0.09v0.35h-3.55v-0.35
					l0.86-0.09c0.03-1.02,0.03-2.08,0.03-3.27h-2.76c0,1.16,0,2.23,0.03,3.28l0.85,0.08v0.35h-3.55v-0.35l0.91-0.09
					c0.01-1.04,0.01-2.1,0.01-3.16v-0.45c0-1.07,0-2.13-0.01-3.17l-0.91-0.09v-0.35h3.55v0.35l-0.85,0.08
					c-0.03,1.03-0.03,2.08-0.03,3.14h2.76c0-1.05,0-2.11-0.03-3.14l-0.86-0.08v-0.35h3.55v0.35L700.71,90.09z"/>
				<path class="st11" d="M705.44,100.01v0.74h-3v-0.54c0.33-0.36,0.68-0.7,0.97-1c0.68-0.7,0.95-1.11,0.95-1.73
					c0-0.56-0.28-0.92-0.74-0.92c-0.07,0-0.15,0.01-0.23,0.02l-0.13,0.59c-0.07,0.41-0.26,0.5-0.45,0.5c-0.17,0-0.32-0.1-0.39-0.25
					c0.05-0.69,0.73-1.07,1.53-1.07c0.95,0,1.38,0.5,1.38,1.17c0,0.62-0.51,1.17-1.65,1.91c-0.2,0.14-0.47,0.35-0.74,0.57H705.44z"
					/>
				<path class="st11" d="M713.48,93.49c0,2.67-1.69,4.05-3.64,4.05c-1.93,0-3.65-1.37-3.65-4.05c0-2.65,1.73-4.04,3.65-4.04
					C711.77,89.45,713.48,90.83,713.48,93.49z M709.84,97.15c1.25,0,1.83-1.54,1.83-3.66c0-2.09-0.58-3.65-1.83-3.65
					c-1.26,0-1.83,1.55-1.83,3.65C708.02,95.61,708.58,97.15,709.84,97.15z"/>
			</g>
		</g>
		<g>
			<circle class="st1" cx="890.66" cy="269.45" r="20.73"/>
			<g>
				<path class="st11" d="M887.64,261.97c-0.03,1.47-0.03,2.97-0.03,4.47v0.63c0,1.47,0,2.96,0.03,4.44l1.27,0.13v0.49h-4.99v-0.49
					l1.21-0.13c0.04-1.43,0.04-2.93,0.04-4.59h-3.88c0,1.63,0,3.13,0.04,4.6l1.2,0.12v0.49h-4.99v-0.49l1.28-0.13
					c0.01-1.46,0.01-2.94,0.01-4.44v-0.63c0-1.5,0-2.98-0.01-4.46l-1.28-0.13v-0.49h4.99v0.49l-1.2,0.12
					c-0.04,1.44-0.04,2.93-0.04,4.41h3.88c0-1.47,0-2.96-0.04-4.41l-1.21-0.12v-0.49h4.99v0.49L887.64,261.97z"/>
				<path class="st11" d="M894.28,275.91v1.03h-4.21v-0.76c0.46-0.5,0.95-0.98,1.36-1.41c0.96-0.98,1.34-1.56,1.34-2.43
					c0-0.79-0.4-1.29-1.04-1.29c-0.1,0-0.21,0.01-0.32,0.03l-0.19,0.83c-0.09,0.57-0.37,0.71-0.63,0.71c-0.24,0-0.45-0.13-0.55-0.35
					c0.08-0.98,1.03-1.51,2.15-1.51c1.33,0,1.94,0.7,1.94,1.65c0,0.87-0.71,1.64-2.32,2.69c-0.29,0.2-0.66,0.5-1.04,0.8H894.28z"/>
				<path class="st11" d="M905.57,266.75c0,3.75-2.38,5.68-5.1,5.68c-2.71,0-5.12-1.92-5.12-5.68c0-3.72,2.42-5.67,5.12-5.67
					C903.17,261.08,905.57,263.01,905.57,266.75z M900.46,271.88c1.76,0,2.57-2.16,2.57-5.13c0-2.94-0.81-5.12-2.57-5.12
					c-1.77,0-2.57,2.18-2.57,5.12C897.89,269.72,898.69,271.88,900.46,271.88z"/>
			</g>
		</g>
	</g>
	<rect class="st16" width="962.03" height="422.68"/>
</g>
</svg>
